# Blender v2.79 (sub 0) OBJ File: ''
# www.blender.org
o group_0_16089887.003
v 15.537655 47.902897 -21.000805
v 17.750656 45.712898 -21.000805
v 17.750654 45.712898 -40.000801
v 15.537654 47.902897 -40.000801
v 19.170654 42.953899 -21.000805
v 19.170652 42.953899 -40.000801
v 6.327660 49.514896 -20.671803
v 6.327660 49.514896 -18.671803
v 9.417656 49.998898 -18.671803
v 9.417656 49.998898 -20.671803
v 11.543655 54.998898 -24.756802
v 11.543655 64.998901 -24.756802
v 12.937656 64.998901 -24.045803
v 19.659657 39.895897 -21.000805
v 19.659655 39.895897 -40.000801
v 3.539658 48.107899 -20.671803
v 3.539658 48.107899 -18.671803
v 7.059655 54.998898 -15.955798
v 5.953660 54.998898 -17.061802
v 8.453659 54.998898 -15.245799
v 1.327660 45.918896 -20.671803
v 1.327660 45.918896 -18.671803
v 9.998657 64.998901 -25.000805
v 11.543655 54.998898 -15.245800
v 12.937656 54.998898 -15.955799
v 14.043655 54.998898 -17.061802
v 14.753654 54.998898 -18.455799
v 9.998657 54.998898 -15.000804
v -0.093345 43.158897 -20.671803
v -0.093345 43.158897 -18.671803
v 7.059655 64.998901 -15.955798
v 8.453659 64.998901 -15.245799
v 5.953660 64.998901 -17.061802
v 5.243653 64.998901 -18.455799
v -0.093345 37.040897 -20.671803
v -0.582344 40.099899 -20.671803
v 1.327660 34.281898 -20.671803
v 3.539658 32.091896 -20.671803
v 6.327660 30.685898 -20.671803
v 9.417656 30.200897 -20.671803
v 12.507656 49.514896 -20.671803
v 12.507656 30.685898 -20.671803
v -0.582344 40.099899 -18.671803
v 18.928658 37.040897 -20.671803
v 17.507656 34.281898 -20.671803
v 19.417656 40.099899 -20.671803
v 18.928658 43.158897 -20.671803
v 17.507656 45.918896 -20.671803
v 15.295654 48.107899 -20.671803
v 15.295654 32.091896 -20.671803
v 11.543655 64.998901 -15.245800
v 4.998658 64.998901 -20.000805
v 9.998657 64.998901 -15.000804
v 12.937656 64.998901 -15.955799
v 5.243653 64.998901 -21.545803
v 14.043655 64.998901 -17.061802
v 14.753654 64.998901 -18.455799
v 14.998657 64.998901 -20.000805
v -0.093345 37.040897 -18.671803
v 4.998658 54.998898 -20.000805
v 5.243653 54.998898 -21.545803
v 5.243653 54.998898 -18.455799
v 1.327660 34.281898 -18.671803
v 5.953660 54.998898 -22.939800
v 14.998657 54.998898 -20.000805
v 3.539658 32.091896 -18.671803
v 6.327660 30.685898 -18.671803
v 9.417656 30.200897 -18.671803
v 14.998656 39.998898 -40.000801
v 19.170652 36.837898 -40.000801
v 17.750654 34.078899 -40.000801
v 15.537654 31.888897 -40.000801
v 14.998656 31.616997 -40.000801
v 12.750655 49.308899 -40.000801
v 14.753654 54.998898 -21.545803
v 14.043655 54.998898 -22.939800
v 14.043655 64.998901 -22.939800
v -0.340348 39.895897 -40.000801
v 0.149658 42.953899 -40.000801
v -0.001343 39.998898 -40.000801
v -0.001343 37.780296 -40.000801
v 12.937656 54.998898 -24.045803
v 12.507656 30.685898 -18.671803
v 15.295654 32.091896 -18.671803
v 3.782653 47.902897 -40.000801
v 1.569656 45.712898 -40.000801
v 6.569656 49.308899 -40.000801
v 9.659652 49.792896 -40.000801
v 9.998657 54.998898 -25.000805
v 17.507656 34.281898 -18.671803
v 8.453659 54.998898 -24.756802
v 18.928658 37.040897 -18.671803
v 19.417656 40.099899 -18.671803
v 18.928658 43.158897 -18.671803
v 17.507656 45.918896 -18.671803
v 15.295654 48.107899 -18.671803
v 12.507656 49.514896 -18.671803
v 1.569657 45.712898 -21.000805
v 0.149659 42.953899 -21.000805
v -0.340347 39.895897 -21.000805
v -0.001342 37.780296 -21.000805
v 3.782654 47.902897 -21.000805
v 6.569657 49.308899 -21.000805
v 9.659653 49.792896 -21.000805
v 12.750656 49.308899 -21.000805
v 14.753654 64.998901 -21.545803
v 7.059655 54.998898 -24.045803
v 14.998657 39.998898 -21.000805
v 14.998657 31.616997 -21.000805
v 15.537655 31.888897 -21.000805
v 17.750656 34.078899 -21.000805
v 19.170654 36.837898 -21.000805
v -0.001342 39.998898 -21.000805
v 8.453659 64.998901 -24.756802
v 7.059655 64.998901 -24.045803
v 5.953660 64.998901 -22.939800
v 14.998656 31.616997 -40.000801
v -0.001343 37.780296 -40.000801
v 14.998656 39.998898 -40.000801
v 14.998656 9.998898 -40.000801
v -0.001343 9.998898 -40.000801
v -0.001343 39.998898 -40.000801
v 14.998657 9.998898 -21.000805
v 14.998657 31.616997 -21.000805
v -0.001342 9.998898 -21.000805
v -0.001342 37.780296 -21.000805
v 14.998657 39.998898 -21.000805
v -0.001342 39.998898 -21.000805
v -0.001341 54.997898 -0.000804
v -0.001341 49.998898 -0.000804
v 19.998657 49.998898 -0.000805
v 19.998657 54.997898 -0.000805
v 19.998657 9.998898 -21.000805
v 19.998657 -0.001102 -21.000805
v 19.998655 -0.001102 -40.000801
v 19.998655 9.998898 -40.000801
v -0.001343 -0.001102 -40.000801
v -0.001343 9.998898 -40.000801
v 14.998656 9.998898 -40.000801
v 14.998657 9.998898 -21.000805
v -0.001342 -0.001102 -21.000805
v -0.001342 9.998898 -21.000805
v 9.417656 49.998898 -18.671803
v -0.001342 49.998898 -18.671803
v -0.001342 49.998898 -20.671803
v 9.417656 49.998898 -20.671803
v -0.001343 54.997898 -40.000801
v 19.998655 54.997898 -40.000801
v 19.998655 49.998898 -40.000801
v -0.001343 49.998898 -40.000801
vt 0.023575 0.833113
vt 0.000000 0.833113
vt 0.000000 0.636765
vt 0.023575 0.636765
vt 0.869568 0.483297
vt 0.840177 0.483297
vt 0.840177 0.286949
vt 0.869567 0.286949
vt 0.906165 0.792939
vt 0.927471 0.792939
vt 0.927471 0.824872
vt 0.906165 0.824872
vt 0.142502 0.843447
vt 0.142502 0.946788
vt 0.127652 0.946788
vt 0.807600 0.483297
vt 0.807600 0.286949
vt 0.906165 0.764128
vt 0.927471 0.764128
vt 0.232617 0.910953
vt 0.222829 0.897875
vt 0.246096 0.920455
vt 0.609681 0.824490
vt 0.588375 0.824490
vt 0.588375 0.801153
vt 0.609680 0.801153
vt 0.158961 0.946788
vt 0.278597 0.925453
vt 0.294444 0.920461
vt 0.307922 0.910962
vt 0.317715 0.897882
vt 0.261938 0.925454
vt 0.609680 0.853465
vt 0.588375 0.853465
vt 0.745633 0.526249
vt 0.750785 0.510874
vt 0.745633 0.542413
vt 0.750785 0.557787
vt 0.338355 0.617454
vt 0.305355 0.617544
vt 0.369738 0.607368
vt 0.273970 0.607650
vt 0.247271 0.588720
vt 0.227888 0.562630
vt 0.396439 0.588294
vt 0.415841 0.562084
vt 0.217686 0.531913
vt 0.217696 0.499591
vt 0.426049 0.531316
vt 0.227894 0.468821
vt 0.426049 0.498992
vt 0.609681 0.885221
vt 0.588375 0.885221
vt 0.369776 0.423257
vt 0.396464 0.442185
vt 0.338391 0.413363
vt 0.305391 0.413453
vt 0.273997 0.423538
vt 0.247307 0.442612
vt 0.415858 0.468277
vt 0.774061 0.488295
vt 0.760578 0.570867
vt 0.760578 0.497794
vt 0.789910 0.483297
vt 0.774061 0.580367
vt 0.806572 0.483297
vt 0.822421 0.488295
vt 0.835904 0.497794
vt 0.609681 0.916657
vt 0.588375 0.916657
vt 0.217686 0.866333
vt 0.222840 0.850960
vt 0.217686 0.882499
vt 0.609681 0.944687
vt 0.588375 0.944687
vt 0.937383 0.827039
vt 0.952233 0.826806
vt 0.952233 0.930094
vt 0.322869 0.882509
vt 0.906165 0.764128
vt 0.906165 0.741822
vt 0.927471 0.741822
vt 0.927471 0.764128
vt 0.906165 0.713370
vt 0.927471 0.713370
vt 0.906165 0.681568
vt 0.927471 0.681568
vt 0.031309 0.936453
vt 0.031309 0.833113
vt 0.047767 0.833113
vt 0.282464 0.624880
vt 0.300320 0.669838
vt 0.254312 0.641565
vt 0.232876 0.665974
vt 0.220256 0.695729
vt 0.314576 0.617544
vt 0.347510 0.620281
vt 0.378049 0.632833
vt 0.382911 0.636918
vt 0.217686 0.727891
vt 0.349501 0.926720
vt 0.334651 0.926720
vt 0.334651 0.823380
vt 0.014850 0.936453
vt 0.014850 0.833113
vt 0.968691 0.930013
vt 0.968691 0.826725
vt 0.363437 0.816053
vt 0.331322 0.823380
vt 0.361050 0.813217
vt 0.382911 0.804504
vt 0.000000 0.936453
vt 0.000000 0.833113
vt 0.906165 0.856804
vt 0.322869 0.823380
vt 0.322869 0.926720
vt 0.985150 0.930094
vt 0.397268 0.823380
vt 0.409050 0.823380
vt 0.397268 0.926720
vt 0.409050 0.926720
vt 0.927471 0.649524
vt 0.906165 0.649524
vt 0.127652 0.843447
vt 0.382418 0.823380
vt 0.382418 0.926720
vt 0.906165 0.620370
vt 0.927471 0.620370
vt 0.267848 0.808090
vt 0.298387 0.820642
vt 0.242711 0.786973
vt 0.225431 0.759337
vt 0.158961 0.843447
vt 0.365960 0.823380
vt 0.365960 0.926720
vt 0.906165 0.596971
vt 0.927471 0.596971
vt 0.175419 0.843447
vt 0.609681 0.892899
vt 0.630986 0.892899
vt 0.630986 0.921410
vt 0.609681 0.921410
vt 0.985150 0.826806
vt 1.000000 0.930327
vt 1.000000 0.827039
vt 0.609681 0.861287
vt 0.630986 0.861287
vt 0.609681 0.829675
vt 0.630986 0.829675
vt 0.074399 0.936453
vt 0.062617 0.936453
vt 0.062617 0.833113
vt 0.074399 0.833113
vt 0.047767 0.936453
vt 0.609681 0.801153
vt 0.630986 0.801153
vt 0.906165 0.885615
vt 0.927471 0.885615
vt 0.927471 0.908474
vt 0.906165 0.908474
vt 0.927471 0.856804
vt 0.450117 0.997500
vt 0.450117 0.801153
vt 0.479974 0.801153
vt 0.479974 0.997500
vt 0.512700 0.997500
vt 0.512700 0.801153
vt 0.535111 0.801153
vt 0.535111 0.997500
vt 0.426049 0.997500
vt 0.426049 0.801153
vt 0.322869 0.866344
vt 0.148798 0.833113
vt 0.119109 0.833113
vt 0.119109 0.636765
vt 0.148798 0.636765
vt 0.086192 0.833113
vt 0.086191 0.636765
vt 0.053264 0.833113
vt 0.053264 0.636765
vt 0.845697 0.510875
vt 0.426049 0.682603
vt 0.624205 0.652431
vt 0.426060 0.714924
vt 0.436251 0.651885
vt 0.455634 0.625795
vt 0.578101 0.607148
vt 0.482333 0.606865
vt 0.513718 0.596971
vt 0.546719 0.597062
vt 0.604803 0.626221
vt 0.634413 0.683200
vt 0.349501 0.823380
vt 0.634413 0.715523
vt 0.624221 0.746239
vt 0.455670 0.771903
vt 0.436258 0.745695
vt 0.604828 0.772331
vt 0.482361 0.790978
vt 0.513754 0.801063
vt 0.546755 0.801153
vt 0.578140 0.791259
vt 0.246111 0.828382
vt 0.232633 0.837881
vt 0.261960 0.823380
vt 0.649603 0.754377
vt 0.717047 0.750513
vt 0.671039 0.778786
vt 0.636983 0.724622
vt 0.634413 0.692460
vt 0.642158 0.661014
vt 0.699191 0.795471
vt 0.799637 0.783434
vt 0.794776 0.787518
vt 0.764237 0.800070
vt 0.731303 0.802807
vt 0.799637 0.615848
vt 0.777777 0.607134
vt 0.780164 0.604298
vt 0.748048 0.596971
vt 0.278617 0.823388
vt 0.294461 0.828378
vt 0.307938 0.837890
vt 0.317726 0.850967
vt 0.659438 0.633379
vt 0.684575 0.612261
vt 0.715114 0.599709
vt 0.835904 0.570867
vt 0.822428 0.580374
vt 0.806572 0.585365
vt 0.789910 0.585365
vt 0.775024 0.483297
vt 0.775024 0.286949
vt 0.745633 0.483297
vt 0.745633 0.286949
vt 0.850849 0.526249
vt 0.850849 0.542413
vt 0.845704 0.557795
vt 0.412852 0.813891
vt 0.388721 0.813891
vt 0.388721 0.617544
vt 0.412851 0.617544
vt 0.382911 0.813891
vt 0.382911 0.617544
vt 0.175419 0.946788
vt 0.190269 0.843447
vt 0.190269 0.946788
vt 0.202051 0.946788
vt 0.202051 0.843447
vt 0.937383 0.930327
vt 0.585841 0.510352
vt 0.745633 0.574044
vt 0.585841 0.596971
vt 0.585841 0.286949
vt 0.745633 0.286949
vt 0.745633 0.596971
vt 0.202403 0.413363
vt 0.202403 0.636765
vt 0.000000 0.413363
vt 0.000000 0.636765
vt 0.426049 0.286949
vt 0.426049 0.000000
vt 0.628452 0.000000
vt 0.628452 0.286949
vt 0.426049 0.286949
vt 0.585841 0.510352
vt 0.426049 0.574044
vt 0.585841 0.596971
vt 0.585841 0.286949
vt 0.426049 0.596971
vt 0.148798 0.636765
vt 0.202051 0.636765
vt 0.202051 0.843447
vt 0.148798 0.843447
vt 0.740941 0.999154
vt 0.634413 0.999154
vt 0.634413 0.802807
vt 0.740941 0.802807
vt 0.799637 0.596971
vt 0.906165 0.596971
vt 0.906165 0.751982
vt 0.906165 0.803653
vt 0.799637 0.803653
vt 0.937383 0.206681
vt 0.830855 0.155011
vt 0.937383 0.000000
vt 0.830855 0.206681
vt 0.830855 0.000000
vt 0.213056 0.413363
vt 0.313365 0.220415
vt 0.426049 0.413363
vt 0.213056 0.220415
vt 0.588375 0.801153
vt 0.588375 0.997500
vt 0.535111 0.801153
vt 0.535111 0.997500
vt 0.830855 0.206621
vt 0.628452 0.206621
vt 0.830855 0.000000
vt 0.628452 0.000000
vt 0.906111 1.000000
vt 0.799638 1.000000
vt 0.799637 0.803653
vt 0.906111 0.803653
vt 0.937383 0.826725
vt 0.990609 0.613110
vt 0.990609 0.633778
vt 0.990609 0.826725
vt 0.213056 0.199747
vt 0.313365 0.199747
vt 0.213056 0.000000
vt 0.213056 0.413363
vt 0.000000 0.413363
vt 0.869568 0.493631
vt 0.869568 0.286949
vt 0.922821 0.286949
vt 0.922821 0.493631
vt 0.213056 0.000000
vt 0.426049 0.000000
vt 0.937383 0.413363
vt 0.990609 0.413363
vt 0.990636 0.413363
vt 0.937383 0.413363
vt 0.990636 0.000000
vt 0.937383 0.000000
vt 0.000000 0.000000
vn 0.4316 0.5999 0.6736
vn 0.5960 0.4373 0.6734
vn 0.5960 0.4373 -0.6734
vn 0.4316 0.5999 -0.6736
vn 0.7026 0.2304 0.6733
vn 0.7026 0.2304 -0.6733
vn -0.2264 0.7034 -0.6737
vn -0.2264 0.7034 0.6737
vn 0.0000 0.7388 0.6738
vn 0.0000 0.7388 -0.6738
vn 0.2284 -0.6734 -0.7031
vn 0.2284 0.6734 -0.7031
vn 0.4346 0.6735 -0.5979
vn 0.7394 0.0000 0.6732
vn 0.7394 0.0000 -0.6732
vn -0.4317 0.5998 -0.6737
vn -0.4317 0.5998 0.6737
vn -0.4344 -0.6735 0.5980
vn -0.5980 -0.6735 0.4344
vn -0.2284 -0.6735 0.7029
vn -0.5960 0.4373 -0.6734
vn -0.5960 0.4373 0.6734
vn 0.0000 0.6736 -0.7391
vn 0.2284 -0.6735 0.7029
vn 0.4344 -0.6735 0.5980
vn 0.5980 -0.6735 0.4344
vn 0.7029 -0.6735 0.2284
vn 0.0000 -0.6735 0.7392
vn -0.7026 0.2305 -0.6732
vn -0.7026 0.2305 0.6732
vn -0.4344 0.6735 0.5980
vn -0.2284 0.6735 0.7029
vn -0.5980 0.6735 0.4344
vn -0.7029 0.6735 0.2284
vn -0.7026 -0.2305 -0.6732
vn -0.7394 0.0000 -0.6732
vn -0.5960 -0.4373 -0.6735
vn -0.4317 -0.5999 -0.6736
vn -0.2264 -0.7034 -0.6738
vn 0.0000 -0.7389 -0.6738
vn 0.2264 0.7034 -0.6737
vn 0.2264 -0.7034 -0.6738
vn -0.7394 0.0000 0.6732
vn 0.7026 -0.2305 -0.6732
vn 0.5960 -0.4373 -0.6735
vn 0.7026 0.2305 -0.6732
vn 0.4317 0.5998 -0.6737
vn 0.4317 -0.5999 -0.6736
vn 0.2284 0.6735 0.7029
vn -0.7392 0.6735 0.0000
vn 0.0000 0.6735 0.7392
vn 0.4344 0.6735 0.5980
vn -0.7029 0.6735 -0.2284
vn 0.5980 0.6735 0.4344
vn 0.7029 0.6735 0.2284
vn 0.7392 0.6735 0.0000
vn -0.7026 -0.2305 0.6732
vn -0.7392 -0.6735 0.0000
vn -0.7029 -0.6735 -0.2284
vn -0.7029 -0.6735 0.2284
vn -0.5960 -0.4373 0.6735
vn -0.5980 -0.6735 -0.4344
vn 0.7392 -0.6735 0.0000
vn -0.4317 -0.5999 0.6736
vn -0.2264 -0.7034 0.6738
vn 0.0000 -0.7389 0.6738
vn 0.0000 0.0000 -1.0000
vn 0.7026 -0.2304 -0.6733
vn 0.5960 -0.4373 -0.6734
vn 0.4316 -0.5999 -0.6736
vn 0.3685 -0.7306 -0.5748
vn 0.2263 0.7034 -0.6738
vn 0.7029 -0.6735 -0.2284
vn 0.5980 -0.6735 -0.4344
vn 0.5980 0.6735 -0.4344
vn -0.7395 0.0000 -0.6731
vn -0.7025 0.2305 -0.6733
vn -0.9824 -0.1574 -0.1006
vn 0.4346 -0.6736 -0.5979
vn 0.2264 -0.7034 0.6738
vn 0.4317 -0.5999 0.6736
vn -0.4316 0.5999 -0.6736
vn -0.2263 0.7034 -0.6738
vn 0.0000 0.7388 -0.6739
vn 0.0000 -0.6736 -0.7391
vn 0.5960 -0.4373 0.6735
vn -0.2284 -0.6734 -0.7031
vn 0.7026 -0.2305 0.6732
vn 0.7026 0.2305 0.6732
vn 0.4317 0.5998 0.6737
vn 0.2264 0.7034 0.6737
vn -0.7025 0.2305 0.6733
vn -0.7395 0.0000 0.6731
vn -0.9824 -0.1574 0.1006
vn -0.4316 0.5999 0.6736
vn -0.2263 0.7034 0.6738
vn 0.0000 0.7388 0.6739
vn 0.2263 0.7034 0.6738
vn 0.7029 0.6735 -0.2284
vn -0.4346 -0.6736 -0.5979
vn 0.0000 0.0000 1.0000
vn 0.3685 -0.7305 0.5748
vn 0.4316 -0.5999 0.6736
vn 0.5960 -0.4373 0.6734
vn 0.7026 -0.2304 0.6733
vn -0.2284 0.6734 -0.7031
vn -0.4346 0.6735 -0.5979
vn -0.5980 0.6735 -0.4344
vn 0.4472 0.0000 -0.8944
vn -0.4472 0.0000 -0.8944
vn 0.7071 0.0000 -0.7071
vn -0.7071 0.0000 -0.7071
vn 0.7071 0.0000 0.7071
vn 0.4472 0.0000 0.8944
vn -0.7071 0.0000 0.7071
vn -0.4472 0.0000 0.8944
vn -0.5773 0.5773 0.5773
vn -0.5773 -0.5773 0.5773
vn 0.5773 -0.5773 0.5773
vn 0.5773 0.5773 0.5773
vn 0.5773 -0.5773 -0.5773
vn 0.5773 0.5773 -0.5773
vn -0.5773 -0.5773 -0.5773
vn 0.0000 0.4472 -0.8944
vn 0.0000 0.4472 0.8944
vn 0.0000 -1.0000 0.0000
vn -0.7071 -0.7071 0.0000
vn -0.5773 0.5773 -0.5773
s 1
f 1/1/1 2/2/2 3/3/3
f 1/1/1 3/3/3 4/4/4
f 2/5/2 5/6/5 6/7/6
f 2/5/2 6/7/6 3/8/3
f 7/9/7 8/10/8 9/11/9
f 7/9/7 9/11/9 10/12/10
f 11/13/11 12/14/12 13/15/13
f 6/7/6 14/16/14 15/17/15
f 16/18/16 17/19/17 8/10/8
f 16/18/16 8/10/8 7/9/7
f 18/20/18 19/21/19 20/22/20
f 21/23/21 22/24/22 17/25/17
f 21/23/21 17/25/17 16/26/16
f 23/27/23 12/14/12 11/13/11
f 24/28/24 19/21/19 25/29/25
f 26/30/26 25/29/25 19/21/19
f 27/31/27 26/30/26 19/21/19
f 28/32/28 19/21/19 24/28/24
f 20/22/20 19/21/19 28/32/28
f 21/23/21 29/33/29 30/34/30
f 21/23/21 30/34/30 22/24/22
f 31/35/31 32/36/32 33/37/33
f 34/38/34 33/37/33 32/36/32
f 35/39/35 36/40/36 37/41/37
f 36/40/36 29/42/29 37/41/37
f 29/42/29 21/43/21 37/41/37
f 21/43/21 16/44/16 37/41/37
f 38/45/38 37/41/37 16/44/16
f 39/46/39 38/45/38 16/44/16
f 16/44/16 7/47/7 39/46/39
f 7/47/7 10/48/10 39/46/39
f 40/49/40 39/46/39 10/48/10
f 41/50/41 42/51/42 10/48/10
f 29/33/29 36/52/36 43/53/43
f 29/33/29 43/53/43 30/34/30
f 44/54/44 45/55/45 46/56/15
f 47/57/46 46/56/15 45/55/45
f 48/58/3 47/57/46 45/55/45
f 49/59/47 48/58/3 45/55/45
f 45/55/45 50/60/48 49/59/47
f 50/60/48 42/51/42 49/59/47
f 41/50/41 49/59/47 42/51/42
f 40/49/40 10/48/10 42/51/42
f 51/61/49 52/62/50 53/63/51
f 54/64/52 55/65/53 51/61/49
f 56/66/54 55/65/53 54/64/52
f 57/67/55 55/65/53 56/66/54
f 58/68/56 55/65/53 57/67/55
f 36/52/36 35/69/35 59/70/57
f 36/52/36 59/70/57 43/53/43
f 60/71/58 61/72/59 62/73/60
f 35/69/35 37/74/37 63/75/61
f 35/69/35 63/75/61 59/70/57
f 64/76/62 61/77/59 55/78/53
f 65/79/63 27/31/27 19/21/19
f 37/80/37 38/81/38 66/82/64
f 37/80/37 66/82/64 63/83/61
f 38/81/38 39/84/39 67/85/65
f 38/81/38 67/85/65 66/82/64
f 34/38/34 32/36/32 52/62/50
f 39/84/39 40/86/40 68/87/66
f 39/84/39 68/87/66 67/85/65
f 32/36/32 53/63/51 52/62/50
f 52/62/50 51/61/49 55/65/53
f 28/88/28 53/89/51 32/90/32
f 15/91/15 69/92/67 6/93/6
f 3/94/3 6/93/6 69/92/67
f 4/95/4 3/94/3 69/92/67
f 70/96/68 69/92/67 15/91/15
f 71/97/69 69/92/67 70/96/68
f 72/98/70 69/92/67 71/97/69
f 73/99/71 69/92/67 72/98/70
f 74/100/72 4/95/4 69/92/67
f 75/101/73 76/102/74 77/103/75
f 24/104/24 51/105/49 28/88/28
f 53/89/51 28/88/28 51/105/49
f 52/106/50 55/78/53 60/107/58
f 78/108/76 79/109/77 80/110/67
f 78/108/76 80/110/67 81/111/78
f 24/104/24 25/112/25 54/113/52
f 24/104/24 54/113/52 51/105/49
f 41/114/41 10/12/10 9/11/9
f 13/115/13 77/103/75 82/116/79
f 76/102/74 82/116/79 77/103/75
f 52/106/50 60/107/58 34/117/34
f 56/118/54 54/119/52 26/120/26
f 25/121/25 26/120/26 54/119/52
f 83/122/80 68/87/66 42/123/42
f 40/86/40 42/123/42 68/87/66
f 82/124/79 11/13/11 13/15/13
f 56/118/54 26/120/26 57/125/55
f 27/126/27 57/125/55 26/120/26
f 42/123/42 50/127/48 84/128/81
f 42/123/42 84/128/81 83/122/80
f 85/129/82 69/92/67 86/130/21
f 87/131/83 69/92/67 85/129/82
f 88/132/84 69/92/67 87/131/83
f 86/130/21 69/92/67 79/109/77
f 23/27/23 11/13/11 89/133/85
f 57/125/55 27/126/27 58/134/56
f 65/135/63 58/134/56 27/126/27
f 50/127/48 45/136/45 90/137/86
f 50/127/48 90/137/86 84/128/81
f 74/100/72 69/92/67 88/132/84
f 80/110/67 79/109/77 69/92/67
f 23/27/23 89/133/85 91/138/87
f 44/139/44 92/140/88 90/141/86
f 44/139/44 90/141/86 45/142/45
f 34/117/34 60/107/58 62/143/60
f 33/144/33 34/117/34 19/145/19
f 62/143/60 19/145/19 34/117/34
f 46/146/15 93/147/14 92/140/88
f 46/146/15 92/140/88 44/139/44
f 47/148/46 94/149/89 93/147/14
f 47/148/46 93/147/14 46/146/15
f 19/150/19 18/151/18 31/152/31
f 19/150/19 31/152/31 33/153/33
f 32/90/32 31/152/31 20/154/20
f 18/151/18 20/154/20 31/152/31
f 65/135/63 75/101/73 58/134/56
f 48/155/3 95/156/2 94/149/89
f 48/155/3 94/149/89 47/148/46
f 5/6/5 14/16/14 6/7/6
f 20/154/20 28/88/28 32/90/32
f 49/157/47 96/158/90 95/159/2
f 49/157/47 95/159/2 48/160/3
f 41/114/41 97/161/91 96/158/90
f 41/114/41 96/158/90 49/157/47
f 98/162/22 86/163/21 79/164/77
f 98/162/22 79/164/77 99/165/92
f 100/166/93 78/167/76 81/168/78
f 100/166/93 81/168/78 101/169/94
f 98/162/22 102/170/95 85/171/82
f 98/162/22 85/171/82 86/163/21
f 9/11/9 97/161/91 41/114/41
f 19/21/19 75/172/73 65/79/63
f 99/165/92 79/164/77 78/167/76
f 99/165/92 78/167/76 100/166/93
f 102/173/95 103/174/96 87/175/83
f 102/173/95 87/175/83 85/176/82
f 103/174/96 104/177/97 88/178/84
f 103/174/96 88/178/84 87/175/83
f 104/177/97 105/179/98 74/180/72
f 104/177/97 74/180/72 88/178/84
f 106/181/99 55/65/53 58/68/56
f 8/182/8 67/183/65 9/184/9
f 17/185/17 67/183/65 8/182/8
f 22/186/22 63/187/61 17/185/17
f 30/188/30 63/187/61 22/186/22
f 43/189/43 63/187/61 30/188/30
f 59/190/57 63/187/61 43/189/43
f 66/191/64 17/185/17 63/187/61
f 67/183/65 17/185/17 66/191/64
f 68/192/66 9/184/9 67/183/65
f 106/193/99 58/134/56 75/101/73
f 83/194/80 84/195/81 96/196/90
f 96/196/90 97/197/91 83/194/80
f 97/197/91 9/184/9 83/194/80
f 68/192/66 83/194/80 9/184/9
f 84/195/81 90/198/86 96/196/90
f 95/199/2 96/196/90 90/198/86
f 94/200/89 95/199/2 90/198/86
f 93/201/14 94/200/89 90/198/86
f 93/201/14 90/198/86 92/202/88
f 107/203/100 19/21/19 64/204/62
f 61/72/59 64/204/62 19/21/19
f 91/205/87 19/21/19 107/203/100
f 19/21/19 62/73/60 61/72/59
f 2/206/2 108/207/101 5/208/5
f 1/209/1 108/207/101 2/206/2
f 105/210/98 104/211/97 108/207/101
f 14/212/14 5/208/5 108/207/101
f 109/213/102 110/214/103 108/207/101
f 110/214/103 111/215/104 108/207/101
f 111/215/104 112/216/105 108/207/101
f 14/212/14 108/207/101 112/216/105
f 101/217/94 113/218/101 100/219/93
f 99/220/92 100/219/93 113/218/101
f 19/21/19 91/205/87 89/221/85
f 19/21/19 89/221/85 11/222/11
f 19/21/19 11/222/11 82/223/79
f 19/21/19 82/223/79 76/224/74
f 19/21/19 76/224/74 75/172/73
f 103/225/96 102/226/95 108/207/101
f 102/226/95 98/227/22 108/207/101
f 98/227/22 99/220/92 108/207/101
f 113/218/101 108/207/101 99/220/92
f 104/211/97 103/225/96 108/207/101
f 1/209/1 105/210/98 108/207/101
f 23/228/23 114/229/106 55/65/53
f 114/229/106 115/230/107 55/65/53
f 116/231/108 55/65/53 115/230/107
f 15/17/15 14/16/14 112/232/105
f 15/17/15 112/232/105 70/233/68
f 112/232/105 111/234/104 71/235/69
f 112/232/105 71/235/69 70/233/68
f 106/181/99 77/236/75 55/65/53
f 77/236/75 13/237/13 55/65/53
f 13/237/13 12/238/12 55/65/53
f 23/228/23 55/65/53 12/238/12
f 111/239/104 110/240/103 72/241/70
f 111/239/104 72/241/70 71/242/69
f 110/240/103 109/243/102 73/244/71
f 110/240/103 73/244/71 72/241/70
f 74/180/72 105/179/98 1/1/1
f 74/180/72 1/1/1 4/4/4
f 91/138/87 114/245/106 23/27/23
f 107/246/100 115/247/107 114/245/106
f 107/246/100 114/245/106 91/138/87
f 115/247/107 107/246/100 116/248/108
f 64/249/62 116/248/108 107/246/100
f 64/76/62 55/78/53 116/250/108
f 60/107/58 55/78/53 61/77/59
f 77/103/75 106/193/99 75/101/73
f 117/251/109 118/252/110 119/253/67
f 120/254/111 121/255/112 117/251/109
f 122/256/67 119/253/67 118/252/110
f 118/252/110 117/251/109 121/255/112
f 120/257/111 117/258/109 123/259/113
f 124/260/114 123/259/113 117/258/109
f 118/261/110 121/262/112 125/263/115
f 118/261/110 125/263/115 126/264/116
f 125/265/115 124/266/114 126/267/116
f 124/266/114 127/268/101 126/267/116
f 123/269/113 124/266/114 125/265/115
f 128/270/101 126/267/116 127/268/101
f 129/271/117 130/272/118 131/273/119
f 129/271/117 131/273/119 132/274/120
f 133/275/120 134/276/119 135/277/121
f 133/275/120 135/277/121 136/278/122
f 137/279/123 138/280/112 139/281/124
f 136/282/122 135/283/121 139/281/124
f 137/279/123 139/281/124 135/283/121
f 134/284/119 140/285/125 141/286/118
f 133/287/120 140/285/125 134/284/119
f 142/288/115 141/286/118 140/285/125
f 130/289/118 143/290/126 131/291/119
f 144/292/127 143/290/126 130/289/118
f 133/293/120 136/294/122 140/295/125
f 139/296/124 140/295/125 136/294/122
f 141/297/118 137/298/123 134/299/119
f 135/300/121 134/299/119 137/298/123
f 138/301/112 137/302/123 141/303/118
f 138/301/112 141/303/118 142/304/115
f 129/305/117 145/306/127 144/307/127
f 129/305/117 144/307/127 130/308/118
f 145/309/127 146/310/126 143/290/126
f 145/309/127 143/290/126 144/292/127
f 147/311/128 129/312/117 132/313/120
f 147/314/128 148/315/122 149/316/121
f 150/317/123 147/314/128 149/316/121
f 150/318/123 149/319/121 146/310/126
f 145/309/127 150/318/123 146/310/126
f 129/305/117 147/320/128 145/306/127
f 150/321/123 145/306/127 147/320/128
f 131/291/119 143/290/126 146/310/126
f 149/319/121 131/291/119 146/310/126
f 149/322/121 148/323/122 131/324/119
f 132/325/120 131/324/119 148/323/122
f 147/311/128 132/313/120 148/326/122
