# Blender v2.79 (sub 0) OBJ File: ''
# www.blender.org
o group_0_15277357.003
v 10.843761 -23.272572 9.499546
v 10.843761 -13.272573 9.499546
v 5.843762 -13.272573 9.499546
v 10.843761 -13.272573 -9.500454
v 5.843762 -23.272572 9.499546
v 10.843761 -23.272572 -9.500454
v 5.843761 -23.272572 -9.500454
v 5.843761 -13.272573 -9.500454
v -9.495243 16.626427 9.499546
v -9.495243 16.626427 -9.500454
v -9.156239 14.510127 -9.500454
v -9.156239 14.510127 9.499546
v -9.005238 19.685429 9.499546
v -9.005238 19.685429 -9.500454
v 3.595761 26.040428 9.499546
v 6.382760 24.634430 9.499546
v 6.382759 24.634430 -9.500454
v 3.595760 26.040428 -9.500454
v -7.585239 22.444427 9.499546
v -7.585240 22.444427 -9.500454
v 8.595760 22.444427 9.499546
v 8.595760 22.444427 -9.500454
v -5.372241 24.634430 9.499546
v -5.372242 24.634430 -9.500454
v 10.504761 16.626427 -9.500454
v 10.504761 16.626427 9.499546
v 10.015759 13.567428 9.499546
v 10.015759 13.567428 -9.500454
v 10.015759 19.685429 9.499546
v 10.015759 19.685429 -9.500454
v -2.585239 26.040428 9.499546
v -2.585240 26.040428 -9.500454
v 8.595760 10.808429 9.499546
v 8.595760 10.808429 -9.500454
v 0.504757 26.525429 9.499546
v 0.504756 26.525429 -9.500454
v 6.382760 8.618428 9.499546
v 6.382759 8.618428 -9.500454
v 0.726756 6.762228 -9.500454
v 0.504756 6.727428 -9.500454
v -2.585240 7.212429 -9.500454
v -5.372242 8.618428 -9.500454
v -7.585240 10.808429 -9.500454
v -9.005238 13.567428 -9.500454
v 5.843762 8.346528 9.499546
v 5.843761 8.346528 -9.500454
v -9.005238 13.567428 9.499546
v -7.585239 10.808429 9.499546
v -5.372241 8.618428 9.499546
v -2.585239 7.212429 9.499546
v 0.504757 6.727428 9.499546
v 0.726757 6.762228 9.499546
v 3.595760 7.212429 -9.500454
v 3.595761 7.212429 9.499546
v -7.585239 10.808429 9.499546
v -9.005238 13.567428 9.499546
v -9.156239 -23.272572 9.499546
v 5.843762 -23.272572 9.499546
v 5.843762 -13.272573 9.499546
v 0.504757 6.727428 9.499546
v -2.585239 7.212429 9.499546
v -9.156239 14.510127 9.499546
v -9.156239 -23.272572 -9.500454
v 5.843761 -23.272572 -9.500454
v -9.156239 14.510127 -9.500454
v 0.504756 6.727428 -9.500454
v 5.843761 -13.272573 -9.500454
v 0.726756 6.762228 -9.500454
v 5.843761 8.346528 -9.500454
v 5.843762 8.346528 9.499546
v -5.372241 8.618426 9.499546
v -2.585240 7.212429 -9.500454
v -5.372242 8.618426 -9.500454
v -7.585240 10.808429 -9.500454
v 3.595760 7.212429 -9.500454
v -9.005238 13.567428 -9.500454
v 3.595761 7.212429 9.499546
v 0.726757 6.762228 9.499546
vt 0.716121 0.378883
vt 0.716121 0.248234
vt 0.782428 0.248234
vt 0.909957 0.741862
vt 0.975820 0.990095
vt 0.909957 0.990095
vt 0.782428 0.378883
vt 0.384000 1.000000
vt 0.251968 1.000000
vt 0.251968 0.751766
vt 0.384000 0.751766
vt 0.649813 0.248234
vt 0.716121 0.248234
vt 0.716121 0.378883
vt 0.649813 0.378883
vt 0.975820 0.741862
vt 0.449518 0.751766
vt 0.449519 1.000000
vt 0.384000 1.000000
vt 0.384000 0.751766
vt 0.882615 0.990095
vt 0.882615 0.741862
vt 0.909957 0.741862
vt 0.909957 0.990095
vt 0.841566 0.990095
vt 0.841566 0.741862
vt 0.886699 0.493628
vt 0.925567 0.493628
vt 0.925567 0.741862
vt 0.886699 0.741862
vt 0.803016 0.990095
vt 0.803016 0.741862
vt 0.958076 0.493628
vt 0.958076 0.741862
vt 0.770724 0.990095
vt 0.770724 0.741862
vt 0.925555 0.000000
vt 0.925555 0.248234
vt 0.884559 0.248234
vt 0.884559 0.000000
vt 1.000000 0.248234
vt 0.965336 0.248234
vt 0.965336 0.000000
vt 1.000000 0.000000
vt 0.770724 0.493628
vt 0.805279 0.493628
vt 0.805279 0.741862
vt 0.846368 0.248234
vt 0.846368 0.000000
vt 0.845239 0.493628
vt 0.845239 0.741862
vt 0.999160 0.741862
vt 0.965694 0.741862
vt 0.965693 0.493628
vt 0.999160 0.493628
vt 0.322072 0.738900
vt 0.510434 0.599849
vt 0.361138 0.751639
vt 0.288830 0.714774
vt 0.264679 0.681651
vt 0.251970 0.642751
vt 0.402222 0.751766
vt 0.511346 0.602643
vt 0.429250 0.743104
vt 0.511346 0.643508
vt 0.498657 0.682328
vt 0.474516 0.715328
vt 0.441290 0.739245
vt 0.958076 0.741862
vt 0.958076 0.493628
vt 0.661599 0.751766
vt 0.633176 0.751678
vt 0.700668 0.739245
vt 0.733894 0.715328
vt 0.758034 0.682328
vt 0.770724 0.643508
vt 0.770724 0.602643
vt 0.620515 0.751639
vt 0.581449 0.738900
vt 0.548207 0.714774
vt 0.524056 0.681651
vt 0.511348 0.642751
vt 0.511347 0.639815
vt 0.251968 0.601873
vt 0.498636 0.563731
vt 0.264658 0.563053
vt 0.474485 0.530608
vt 0.288798 0.530054
vt 0.322024 0.506137
vt 0.441243 0.506481
vt 0.361095 0.493628
vt 0.402177 0.493743
vt 0.479155 0.537014
vt 0.521581 0.570561
vt 0.524035 0.563053
vt 0.758013 0.563731
vt 0.511346 0.601873
vt 0.733862 0.530607
vt 0.700620 0.506481
vt 0.548176 0.530054
vt 0.661554 0.493743
vt 0.581402 0.506137
vt 0.620473 0.493628
vt 0.430057 0.048362
vt 0.448888 0.012316
vt 0.450891 0.493628
vt 0.251969 0.493628
vt 0.251969 0.362979
vt 0.322772 0.101680
vt 0.363750 0.095344
vt 0.000000 0.490202
vt 0.000000 0.000000
vt 0.251968 0.490202
vt 0.649813 0.000000
vt 0.846368 0.000000
vt 0.846368 0.248234
vt 0.649813 0.248234
vt 0.450891 0.000000
vt 0.251968 0.000000
vt 0.579010 0.101680
vt 0.649813 0.362979
vt 0.450891 0.493628
vt 0.581954 0.101226
vt 0.649813 0.493628
vt 0.000000 0.490202
vt 0.251968 0.771412
vt 0.000000 0.771412
vt 0.251968 0.490202
vt 0.400709 0.076975
vt 0.538032 0.095344
vt 0.501072 0.076975
vt 0.471725 0.048362
vt 0.649813 0.080527
vt 0.620001 0.095344
vt 0.450891 0.000000
vt 0.452893 0.012316
vt 0.251968 0.080527
vt 0.281780 0.095344
vt 0.319828 0.101226
vn 0.5773 -0.5773 0.5773
vn 0.5773 0.5773 0.5773
vn 0.0000 0.7071 0.7071
vn 0.5773 0.5773 -0.5773
vn 0.0000 -0.7071 0.7071
vn 0.5773 -0.5773 -0.5773
vn 0.0000 -0.7071 -0.7071
vn 0.0000 0.7071 -0.7071
vn -0.7395 0.0000 0.6732
vn -0.7395 0.0000 -0.6732
vn -0.4416 -0.0707 -0.8944
vn -0.4416 -0.0707 0.8944
vn -0.7025 0.2305 0.6733
vn -0.7025 0.2305 -0.6733
vn 0.2264 0.7034 0.6738
vn 0.4316 0.5999 0.6736
vn 0.4316 0.5999 -0.6736
vn 0.2264 0.7034 -0.6738
vn -0.5960 0.4373 0.6734
vn -0.5960 0.4373 -0.6734
vn 0.5960 0.4373 0.6734
vn 0.5960 0.4373 -0.6734
vn -0.4316 0.5999 0.6736
vn -0.4316 0.5999 -0.6736
vn 0.7394 0.0000 -0.6732
vn 0.7394 0.0000 0.6732
vn 0.7026 -0.2304 0.6732
vn 0.7026 -0.2304 -0.6732
vn 0.7026 0.2304 0.6732
vn 0.7026 0.2304 -0.6732
vn -0.2264 0.7034 0.6738
vn -0.2264 0.7034 -0.6738
vn 0.5960 -0.4373 0.6734
vn 0.5960 -0.4373 -0.6734
vn 0.0000 0.7389 0.6738
vn 0.0000 0.7389 -0.6738
vn 0.4316 -0.5999 0.6736
vn 0.4316 -0.5999 -0.6736
vn 0.0000 0.0000 -1.0000
vn 0.2014 -0.3993 0.8944
vn 0.2014 -0.3993 -0.8944
vn 0.0000 0.0000 1.0000
vn -0.5773 -0.5773 0.5773
vn 0.4472 0.0000 0.8944
vn -0.9949 0.0000 0.1006
vn -0.5773 -0.5773 -0.5773
vn -0.9949 0.0000 -0.1006
vn 0.4472 0.0000 -0.8944
vn 0.8182 0.0000 -0.5748
vn 0.8182 0.0000 0.5748
s 1
f 1/1/1 2/2/2 3/3/3
f 4/4/4 3/5/3 2/6/2
f 5/7/5 1/1/1 3/3/3
f 2/8/2 1/9/1 6/10/6
f 2/8/2 6/10/6 4/11/4
f 6/12/6 7/13/7 8/14/8
f 6/12/6 8/14/8 4/15/4
f 8/16/8 3/5/3 4/4/4
f 6/17/6 1/18/1 5/19/5
f 6/17/6 5/19/5 7/20/7
f 9/21/9 10/22/10 11/23/11
f 9/21/9 11/23/11 12/24/12
f 13/25/13 14/26/14 10/22/10
f 13/25/13 10/22/10 9/21/9
f 15/27/15 16/28/16 17/29/17
f 15/27/15 17/29/17 18/30/18
f 19/31/19 20/32/20 14/26/14
f 19/31/19 14/26/14 13/25/13
f 16/28/16 21/33/21 22/34/22
f 16/28/16 22/34/22 17/29/17
f 19/31/19 23/35/23 24/36/24
f 19/31/19 24/36/24 20/32/20
f 25/37/25 26/38/26 27/39/27
f 25/37/25 27/39/27 28/40/28
f 21/41/21 29/42/29 30/43/30
f 21/41/21 30/43/30 22/44/22
f 23/45/23 31/46/31 32/47/32
f 23/45/23 32/47/32 24/36/24
f 27/39/27 33/48/33 34/49/34
f 27/39/27 34/49/34 28/40/28
f 31/46/31 35/50/35 36/51/36
f 31/46/31 36/51/36 32/47/32
f 29/42/29 26/38/26 25/37/25
f 29/42/29 25/37/25 30/43/30
f 33/52/33 37/53/37 38/54/38
f 33/52/33 38/54/38 34/55/34
f 20/56/20 39/57/39 14/58/14
f 24/59/24 39/57/39 20/56/20
f 32/60/32 39/57/39 24/59/24
f 36/61/36 39/57/39 32/60/32
f 10/62/10 14/58/14 39/57/39
f 40/63/39 11/64/11 39/57/39
f 41/65/39 11/64/11 40/63/39
f 42/66/39 11/64/11 41/65/39
f 43/67/39 11/64/11 42/66/39
f 44/68/39 11/64/11 43/67/39
f 10/62/10 39/57/39 11/64/11
f 37/53/37 45/69/40 46/70/41
f 37/53/37 46/70/41 38/54/38
f 18/30/18 36/51/36 15/27/15
f 35/50/35 15/27/15 36/51/36
f 9/71/9 12/72/12 13/73/13
f 19/74/19 13/73/13 12/72/12
f 23/75/23 19/74/19 12/72/12
f 31/76/31 23/75/23 12/72/12
f 35/77/35 31/76/31 12/72/12
f 35/77/35 12/72/12 47/78/42
f 35/77/35 47/78/42 48/79/42
f 35/77/35 48/79/42 49/80/42
f 35/77/35 49/80/42 50/81/42
f 35/77/35 50/81/42 51/82/42
f 35/77/35 51/82/42 52/83/42
f 36/61/36 18/84/18 39/57/39
f 53/85/39 39/57/39 18/84/18
f 17/86/17 38/87/38 18/84/18
f 22/88/22 38/87/38 17/86/17
f 30/89/30 34/90/34 22/88/22
f 25/91/25 28/92/28 30/89/30
f 34/90/34 30/89/30 28/92/28
f 38/87/38 22/88/22 34/90/34
f 38/87/38 46/93/41 18/84/18
f 53/85/39 18/84/18 46/93/41
f 45/94/40 37/95/37 15/96/15
f 54/97/42 45/94/40 15/96/15
f 52/83/42 54/97/42 15/96/15
f 35/77/35 52/83/42 15/96/15
f 16/98/16 15/96/15 37/95/37
f 21/99/21 16/98/16 37/95/37
f 37/95/37 33/100/33 21/99/21
f 29/101/29 21/99/21 33/100/33
f 33/100/33 27/102/27 29/101/29
f 26/103/26 29/101/29 27/102/27
f 55/104/42 56/105/42 57/106/43
f 57/106/43 58/107/5 59/108/44
f 57/106/43 59/108/44 60/109/42
f 60/109/42 61/110/42 57/106/43
f 57/111/43 62/112/45 63/113/46
f 63/114/46 64/115/7 58/116/5
f 63/114/46 58/116/5 57/117/43
f 62/118/45 57/106/43 56/105/42
f 65/119/47 63/113/46 62/112/45
f 66/120/39 67/121/48 63/122/46
f 68/123/39 67/121/48 66/120/39
f 64/124/7 63/122/46 67/121/48
f 69/125/49 59/126/44 67/127/48
f 69/125/49 70/128/50 59/126/44
f 61/110/42 71/129/42 57/106/43
f 63/122/46 72/130/39 66/120/39
f 73/131/39 63/122/46 74/132/39
f 72/130/39 63/122/46 73/131/39
f 69/133/49 67/121/48 75/134/39
f 71/129/42 55/104/42 57/106/43
f 63/122/46 65/135/47 76/136/39
f 63/122/46 76/136/39 74/132/39
f 75/134/39 67/121/48 68/123/39
f 70/137/50 77/138/42 59/108/44
f 60/109/42 59/108/44 78/139/42
f 77/138/42 78/139/42 59/108/44
