# Blender v2.79 (sub 0) OBJ File: ''
# www.blender.org
o group_0_undefined.009
v 11.545259 44.997673 -24.755457
v 10.000261 34.999672 -25.000458
v 10.000261 44.997673 -25.000456
v 20.000259 34.999668 -4.256655
v 20.000261 34.999676 -35.744061
v 15.000261 34.999672 -20.000458
v 8.455263 44.997673 -24.755457
v 3.930261 -0.000330 -15.590464
v 3.930261 13.002670 -15.590462
v 5.590261 13.002669 -13.930462
v 5.590261 -0.000331 -13.930464
v 14.045259 44.997673 -22.938456
v 10.000261 44.997673 -15.000455
v 14.755259 44.997673 -21.545456
v 12.939264 44.997673 -24.045456
v 12.939264 44.997673 -15.954457
v 14.045259 44.997673 -17.061457
v 14.755259 44.997673 -18.454458
v 15.000261 44.997673 -20.000456
v 20.000259 -0.000333 -0.000463
v 20.000261 -0.000326 -39.999462
v 2.865263 -0.000330 -17.681463
v 2.865263 13.002670 -17.681461
v 0.000260 -0.000333 -0.000464
v 10.000261 -0.000331 -12.497465
v 2.498262 -0.000330 -20.000463
v 2.498262 13.002670 -20.000462
v 14.045259 34.999672 -22.938457
v 12.939264 34.999672 -24.045458
v 8.455263 34.999672 -15.244457
v 10.000261 34.999672 -15.000457
v 16.070261 -0.000329 -24.409464
v 16.070261 13.002671 -24.409462
v 14.410265 13.002671 -26.069462
v 14.410265 -0.000329 -26.069464
v 11.545259 44.997673 -15.244454
v 7.061262 44.997673 -24.045456
v 5.955263 44.997673 -22.938456
v 5.245260 44.997673 -21.545456
v 5.000261 44.997673 -20.000456
v 5.245260 44.997673 -18.454458
v 5.955263 44.997673 -17.061457
v 7.061262 44.997673 -15.954458
v 8.455263 44.997673 -15.244455
v 11.545259 34.999672 -15.244456
v 14.755259 34.999672 -18.454460
v 17.135263 -0.000329 -22.318464
v 12.536264 34.999672 -15.749156
v 12.939264 34.999672 -15.954459
v 5.245260 34.999672 -18.454460
v 0.000260 34.999668 -4.256656
v 5.955263 34.999672 -17.061459
v 12.536264 34.999672 -24.250759
v 14.045259 34.999672 -17.061459
v 17.135262 -0.000330 -17.681463
v 16.070259 -0.000330 -15.590463
v 7.061262 34.999672 -15.954460
v 11.545259 34.999672 -24.755459
v 14.410265 -0.000331 -13.930463
v 8.455263 34.999672 -24.755459
v 17.503258 -0.000330 -20.000463
v 14.755259 34.999672 -21.545458
v 7.682260 -0.000331 -12.864466
v 12.318262 -0.000331 -12.864465
v 0.000262 -0.000326 -39.999462
v 3.930261 -0.000329 -24.409464
v 2.865263 -0.000329 -22.318464
v 0.000262 34.999676 -35.744061
v 17.135263 13.002671 -22.318462
v 7.061262 34.999672 -24.045458
v 12.318262 -0.000329 -27.135464
v 10.000261 -0.000329 -27.502464
v 7.682261 -0.000329 -27.135464
v 17.503258 13.002670 -20.000462
v 5.955263 34.999672 -22.938457
v 5.000261 34.999672 -20.000458
v 2.865263 13.002671 -22.318462
v 17.135262 13.002670 -17.681461
v 3.930261 13.002671 -24.409462
v 5.245260 34.999672 -21.545458
v 16.070259 13.002670 -15.590461
v 5.590261 -0.000329 -26.069464
v 5.590261 13.002671 -26.069462
v 14.410265 13.002669 -13.930461
v 7.682261 13.002672 -27.135462
v 12.318262 13.002669 -12.864463
v 10.000261 13.002672 -27.502462
v 12.318262 13.002672 -27.135462
v 10.000261 13.002669 -12.497463
v 7.682260 13.002669 -12.864464
vt 0.487791 0.852693
vt 0.469509 0.966184
vt 0.469509 0.852724
vt 0.943018 0.453961
vt 0.943018 0.811322
vt 0.884070 0.632643
vt 0.451373 0.852681
vt 0.955249 0.811322
vt 0.955249 0.958884
vt 0.935188 0.959131
vt 0.935188 0.811569
vt 0.925171 0.411955
vt 0.892728 0.315786
vt 0.936010 0.397603
vt 0.910249 0.422398
vt 0.925188 0.331704
vt 0.936023 0.346078
vt 0.941718 0.362955
vt 0.941716 0.380720
vt 0.000000 0.453961
vt 0.000000 0.000000
vt 0.412637 0.405656
vt 0.315114 1.000000
vt 0.315114 0.852425
vt 0.339766 0.852425
vt 0.339766 1.000000
vt 0.235793 0.453961
vt 0.117896 0.595794
vt 0.287773 1.000000
vt 0.287773 0.852425
vt 0.872811 0.665987
vt 0.859771 0.678551
vt 0.584224 0.966141
vt 0.566088 0.966184
vt 0.566088 0.852724
vt 0.189460 0.630897
vt 0.169889 0.612057
vt 0.202015 0.654629
vt 0.948818 0.315775
vt 0.948818 0.168200
vt 0.968389 0.168200
vt 0.968389 0.315775
vt 0.910267 0.321267
vt 0.892706 0.427879
vt 0.874263 0.427879
vt 0.856725 0.422386
vt 0.841804 0.411950
vt 0.830970 0.397575
vt 0.825275 0.380699
vt 0.825275 0.362945
vt 0.830982 0.346051
vt 0.841822 0.331699
vt 0.856744 0.321256
vt 0.874287 0.315775
vt 0.547806 0.966153
vt 0.600442 0.965895
vt 0.616865 0.852425
vt 0.616865 0.965895
vt 0.046333 0.730987
vt 0.000000 0.907923
vt 0.033777 0.707256
vt 0.635092 0.965895
vt 0.531165 0.852590
vt 0.547806 0.852693
vt 0.535976 0.966080
vt 0.531165 0.966050
vt 0.769062 0.615097
vt 0.707225 0.453961
vt 0.777433 0.599287
vt 0.504433 0.852590
vt 0.499622 0.966080
vt 0.517799 0.852425
vt 0.517799 0.965885
vt 0.033777 0.654629
vt 0.046333 0.630897
vt 0.790472 0.586724
vt 0.600442 0.852425
vt 0.487791 0.966153
vt 0.065904 0.612058
vt 0.635092 0.852425
vt 0.451373 0.966141
vt 0.029439 0.680948
vt 0.881181 0.650178
vt 0.653306 0.852425
vt 0.653307 0.965895
vt 0.145225 0.599959
vt 0.090568 0.599959
vt 0.825122 0.575896
vt 0.669729 0.852425
vt 0.669729 0.965895
vt 0.855020 0.584394
vt 0.843337 0.578665
vt 0.235793 0.907923
vt 0.206342 0.680948
vt 0.189460 0.730987
vt 0.202015 0.707256
vt 0.339766 0.965895
vt 0.339766 0.852425
vt 0.352817 0.852425
vt 0.517799 0.852425
vt 0.504433 0.966050
vt 0.517799 0.965885
vt 0.412637 0.048296
vt 0.471509 0.454582
vt 0.707225 0.453961
vt 0.707225 0.851804
vt 0.471509 0.852425
vt 0.924166 0.315775
vt 0.924166 0.168200
vt 0.600442 0.852567
vt 0.600442 0.966027
vt 0.584224 0.852681
vt 0.435156 0.966027
vt 0.435156 0.852567
vt 0.471509 0.454582
vt 0.235793 0.851804
vt 0.471509 0.852425
vt 0.065904 0.749827
vt 0.090568 0.761925
vt 0.117896 0.766090
vt 0.145225 0.761925
vt 0.896838 0.315775
vt 0.896838 0.168200
vt 0.435156 0.965895
vt 0.422104 0.965895
vt 0.422104 0.852425
vt 0.435156 0.852425
vt 0.387466 0.852425
vt 0.387466 0.965895
vt 0.369240 0.965895
vt 0.369240 0.852425
vt 0.412637 0.048296
vt 0.825275 0.000000
vt 0.412637 0.405656
vt 0.825275 0.453961
vt 0.260445 1.000000
vt 0.260445 0.852425
vt 0.869498 0.315775
vt 0.869498 0.168200
vt 0.235793 1.000000
vt 0.235793 0.852425
vt 0.352817 0.965895
vt 0.405681 0.852425
vt 0.405681 0.965895
vt 0.844846 0.315775
vt 0.844846 0.168200
vt 0.727286 0.811569
vt 0.727286 0.959131
vt 0.707225 0.958884
vt 0.707225 0.811322
vt 0.825275 0.315775
vt 0.825275 0.168200
vt 0.752260 0.811724
vt 0.752260 0.959286
vt 0.831237 0.811535
vt 0.855574 0.959268
vt 0.831237 0.959097
vt 0.779689 0.959333
vt 0.779689 0.811771
vt 0.806907 0.686609
vt 0.825122 0.689389
vt 0.707225 0.811322
vt 0.843337 0.686609
vt 0.855020 0.680881
vt 0.806899 0.811706
vt 0.806899 0.959268
vt 0.766173 0.632643
vt 0.769062 0.650178
vt 0.831237 0.811535
vt 0.831237 0.959097
vt 0.806907 0.578665
vt 0.855574 0.811706
vt 0.898803 0.168200
vt 0.952799 0.008234
vt 0.926480 0.168200
vt 0.872476 0.159966
vt 0.850093 0.144309
vt 0.952790 0.159966
vt 0.833828 0.122761
vt 0.825275 0.097418
vt 0.975174 0.144309
vt 0.975182 0.023891
vt 0.991447 0.045439
vt 1.000000 0.070782
vt 1.000000 0.097426
vt 0.991447 0.122753
vt 0.882784 0.811771
vt 0.882784 0.959333
vt 0.881181 0.615097
vt 0.825275 0.070774
vt 0.833828 0.045447
vt 0.850084 0.023891
vt 0.872484 0.008234
vt 0.898795 0.000000
vt 0.926472 0.000000
vt 0.910214 0.811724
vt 0.910214 0.959286
vt 0.872811 0.599287
vt 0.859771 0.586724
vt 0.790472 0.678551
vt 0.777433 0.665987
vt 0.169889 0.749827
vn 0.2284 0.6736 -0.7029
vn 0.0000 0.7441 -0.6681
vn 0.0000 0.6735 -0.7392
vn 0.5840 0.6077 0.5382
vn 0.5840 0.6077 -0.5383
vn 0.6681 0.7441 -0.0000
vn -0.2284 0.6736 -0.7029
vn 0.5405 -0.7441 -0.3926
vn 0.5980 -0.6735 -0.4344
vn 0.4345 -0.6735 -0.5980
vn 0.3927 -0.7441 -0.5405
vn 0.5980 0.6736 -0.4343
vn -0.0000 0.6736 0.7391
vn 0.7029 0.6735 -0.2285
vn 0.4346 0.6735 -0.5980
vn 0.4346 0.6735 0.5980
vn 0.5980 0.6736 0.4343
vn 0.7030 0.6735 0.2285
vn 0.7392 0.6735 -0.0000
vn 0.5713 -0.5442 0.6144
vn 0.5713 -0.5442 -0.6144
vn 0.6354 -0.7441 -0.2064
vn 0.7030 -0.6735 -0.2283
vn -0.5713 -0.5442 0.6144
vn -0.0000 -0.7441 -0.6681
vn 0.6681 -0.7440 0.0000
vn 0.7391 -0.6736 0.0000
vn 0.5406 0.7440 -0.3927
vn 0.3928 0.7441 -0.5404
vn -0.2063 0.7441 0.6354
vn 0.0000 0.7440 0.6682
vn -0.5405 -0.7441 0.3926
vn -0.5980 -0.6735 0.4344
vn -0.4345 -0.6735 0.5980
vn -0.3927 -0.7441 0.5405
vn 0.2282 0.6735 0.7031
vn -0.4346 0.6735 -0.5980
vn -0.5980 0.6736 -0.4343
vn -0.7029 0.6735 -0.2285
vn -0.7392 0.6735 -0.0000
vn -0.7030 0.6735 0.2285
vn -0.5980 0.6736 0.4343
vn -0.4346 0.6735 0.5980
vn -0.2282 0.6735 0.7031
vn 0.2062 0.7441 0.6354
vn 0.6354 0.7441 0.2065
vn -0.6354 -0.7440 0.2065
vn 0.3209 0.7071 0.6301
vn 0.3928 0.7441 0.5404
vn -0.6354 0.7441 0.2065
vn -0.5840 0.6077 0.5382
vn -0.5406 0.7440 0.3927
vn 0.3209 0.7071 -0.6301
vn 0.5406 0.7440 0.3927
vn -0.6354 -0.7440 -0.2065
vn -0.5405 -0.7441 -0.3926
vn -0.3927 0.7441 0.5404
vn 0.2065 0.7440 -0.6355
vn -0.3927 -0.7441 -0.5405
vn -0.2065 0.7440 -0.6354
vn -0.6680 -0.7442 0.0000
vn 0.6354 0.7441 -0.2066
vn 0.2064 -0.7441 -0.6354
vn -0.2064 -0.7441 -0.6354
vn -0.5713 -0.5442 -0.6144
vn 0.5405 -0.7441 0.3926
vn 0.6354 -0.7441 0.2064
vn -0.5840 0.6077 -0.5383
vn -0.7029 -0.6736 0.2285
vn -0.3927 0.7441 -0.5404
vn -0.2064 -0.7441 0.6354
vn 0.0000 -0.7441 0.6681
vn 0.2064 -0.7441 0.6354
vn -0.7392 -0.6735 0.0000
vn -0.5406 0.7440 -0.3927
vn -0.6681 0.7441 -0.0000
vn 0.7030 -0.6735 0.2283
vn -0.7029 -0.6736 -0.2284
vn 0.5980 -0.6735 0.4344
vn -0.6354 0.7441 -0.2066
vn -0.5980 -0.6735 -0.4344
vn 0.3927 -0.7441 0.5405
vn 0.4345 -0.6735 0.5980
vn -0.4345 -0.6735 -0.5980
vn 0.2284 -0.6735 0.7030
vn -0.2284 -0.6735 -0.7030
vn 0.0000 -0.6735 0.7391
vn -0.2284 -0.6735 0.7030
vn 0.0000 -0.6735 -0.7391
vn 0.2284 -0.6735 -0.7030
s 1
f 1/1/1 2/2/2 3/3/3
f 4/4/4 5/5/5 6/6/6
f 3/3/3 2/2/2 7/7/7
f 8/8/8 9/9/9 10/10/10
f 8/8/8 10/10/10 11/11/11
f 12/12/12 13/13/13 14/14/14
f 15/15/15 13/13/13 12/12/12
f 16/16/16 17/17/17 14/14/14
f 17/17/17 18/18/18 14/14/14
f 19/19/19 14/14/14 18/18/18
f 20/20/20 21/21/21 4/22/4
f 22/23/22 23/24/23 9/25/9
f 22/23/22 9/25/9 8/26/8
f 20/20/20 24/27/24 25/28/25
f 26/29/26 27/30/27 23/24/23
f 26/29/26 23/24/23 22/23/22
f 28/31/28 5/5/5 29/32/29
f 30/33/30 31/34/31 13/35/13
f 24/27/24 8/36/8 11/37/11
f 22/38/22 8/36/8 24/27/24
f 32/39/32 33/40/33 34/41/34
f 32/39/32 34/41/34 35/42/35
f 16/16/16 14/14/14 36/43/36
f 36/43/36 14/14/14 13/13/13
f 13/13/13 15/15/15 1/44/1
f 13/13/13 1/44/1 3/45/3
f 13/13/13 3/45/3 7/46/7
f 13/13/13 7/46/7 37/47/37
f 13/13/13 37/47/37 38/48/38
f 13/13/13 38/48/38 39/49/39
f 13/13/13 39/49/39 40/50/40
f 13/13/13 40/50/40 41/51/41
f 13/13/13 41/51/41 42/52/42
f 43/53/43 44/54/44 42/52/42
f 13/13/13 42/52/42 44/54/44
f 13/35/13 31/34/31 45/55/45
f 17/56/17 46/57/46 18/58/18
f 32/59/32 21/60/21 47/61/47
f 46/57/46 19/62/19 18/58/18
f 16/63/16 36/64/36 48/65/48
f 49/66/49 16/63/16 48/65/48
f 50/67/50 51/68/51 52/69/52
f 15/70/15 53/71/53 1/1/1
f 17/72/17 16/63/16 54/73/54
f 49/66/49 54/73/54 16/63/16
f 55/74/55 20/20/20 56/75/56
f 52/69/52 51/68/51 57/76/57
f 54/77/54 46/57/46 17/56/17
f 58/78/58 2/2/2 1/1/1
f 59/79/59 56/75/56 20/20/20
f 19/62/19 46/57/46 6/80/6
f 2/2/2 60/81/60 7/7/7
f 55/74/55 61/82/61 20/20/20
f 21/60/21 20/20/20 61/82/61
f 61/82/61 47/61/47 21/60/21
f 62/83/62 6/6/6 5/5/5
f 6/80/6 62/84/62 14/85/14
f 6/80/6 14/85/14 19/62/19
f 11/37/11 63/86/63 24/27/24
f 63/86/63 25/28/25 24/27/24
f 20/20/20 25/28/25 64/87/64
f 64/87/64 59/79/59 20/20/20
f 51/68/51 4/4/4 31/88/31
f 62/84/62 28/89/28 12/90/12
f 62/84/62 12/90/12 14/85/14
f 48/91/48 45/92/45 4/4/4
f 24/27/24 65/93/65 26/94/26
f 26/94/26 22/38/22 24/27/24
f 66/95/66 67/96/67 65/93/65
f 57/97/57 43/98/43 42/99/42
f 15/70/15 12/100/12 29/101/29
f 28/102/28 29/101/29 12/100/12
f 4/22/4 21/21/21 5/103/5
f 21/104/21 65/105/65 68/106/68
f 21/104/21 68/106/68 5/107/5
f 47/108/47 69/109/69 33/40/33
f 47/108/47 33/40/33 32/39/32
f 43/110/43 57/111/57 44/112/44
f 30/33/30 44/112/44 57/111/57
f 60/81/60 70/113/70 37/114/37
f 60/81/60 37/114/37 7/7/7
f 58/78/58 1/1/1 53/71/53
f 29/101/29 53/71/53 15/70/15
f 20/115/20 51/116/51 24/27/24
f 4/117/4 51/116/51 20/115/20
f 21/60/21 32/59/32 35/118/35
f 35/118/35 71/119/71 21/60/21
f 71/119/71 72/120/72 21/60/21
f 72/120/72 73/121/73 65/93/65
f 61/122/61 74/123/74 69/109/69
f 61/122/61 69/109/69 47/108/47
f 13/35/13 44/112/44 30/33/30
f 70/124/70 75/125/75 38/126/38
f 70/124/70 38/126/38 37/127/37
f 40/128/40 76/129/76 50/130/50
f 40/128/40 50/130/50 41/131/41
f 68/132/68 65/133/65 51/134/51
f 24/135/24 51/134/51 65/133/65
f 67/136/67 77/137/77 27/30/27
f 67/136/67 27/30/27 26/29/26
f 55/138/55 78/139/78 74/123/74
f 55/138/55 74/123/74 61/122/61
f 45/55/45 36/64/36 13/35/13
f 66/140/66 79/141/79 77/137/77
f 66/140/66 77/137/77 67/136/67
f 50/130/50 52/142/52 42/99/42
f 50/130/50 42/99/42 41/131/41
f 39/143/39 38/126/38 80/144/80
f 75/125/75 80/144/80 38/126/38
f 56/145/56 81/146/81 78/139/78
f 56/145/56 78/139/78 55/138/55
f 82/147/82 83/148/83 79/149/79
f 82/147/82 79/149/79 66/150/66
f 45/55/45 48/65/48 36/64/36
f 59/151/59 84/152/84 81/146/81
f 59/151/59 81/146/81 56/145/56
f 52/142/52 57/97/57 42/99/42
f 80/144/80 76/129/76 40/128/40
f 80/144/80 40/128/40 39/143/39
f 73/153/73 85/154/85 83/148/83
f 73/153/73 83/148/83 82/147/82
f 59/155/59 86/156/86 84/157/84
f 87/158/87 85/154/85 73/153/73
f 87/158/87 73/153/73 72/159/72
f 60/160/60 2/161/2 68/162/68
f 2/161/2 58/163/58 5/5/5
f 53/164/53 29/32/29 5/5/5
f 71/165/71 88/166/88 87/158/87
f 71/165/71 87/158/87 72/159/72
f 76/167/76 51/68/51 50/67/50
f 68/162/68 51/68/51 76/167/76
f 68/162/68 76/167/76 80/168/80
f 35/169/35 34/170/34 88/166/88
f 35/169/35 88/166/88 71/165/71
f 45/92/45 31/88/31 4/4/4
f 31/88/31 30/171/30 51/68/51
f 30/171/30 57/76/57 51/68/51
f 86/156/86 59/155/59 64/172/64
f 83/173/83 86/174/86 79/175/79
f 85/176/85 86/174/86 83/173/83
f 87/177/87 86/174/86 85/176/85
f 77/178/77 79/175/79 86/174/86
f 88/179/88 86/174/86 87/177/87
f 34/180/34 86/174/86 88/179/88
f 27/181/27 77/178/77 86/174/86
f 27/181/27 86/174/86 89/182/89
f 27/181/27 89/182/89 90/183/90
f 27/181/27 90/183/90 10/184/10
f 9/185/9 23/186/23 10/184/10
f 27/181/27 10/184/10 23/186/23
f 86/156/86 64/172/64 25/187/25
f 86/156/86 25/187/25 89/188/89
f 28/31/28 62/83/62 5/5/5
f 4/4/4 6/6/6 46/189/46
f 33/190/33 69/191/69 34/180/34
f 34/180/34 69/191/69 74/192/74
f 34/180/34 74/192/74 78/193/78
f 34/180/34 78/193/78 81/194/81
f 34/180/34 81/194/81 84/195/84
f 34/180/34 84/195/84 86/174/86
f 63/196/63 90/197/90 89/188/89
f 63/196/63 89/188/89 25/187/25
f 46/189/46 54/198/54 4/4/4
f 4/4/4 49/199/49 48/91/48
f 26/94/26 65/93/65 67/96/67
f 11/11/11 10/10/10 90/197/90
f 11/11/11 90/197/90 63/196/63
f 49/199/49 4/4/4 54/198/54
f 58/163/58 53/164/53 5/5/5
f 5/5/5 68/162/68 2/161/2
f 60/160/60 68/162/68 70/200/70
f 75/201/75 68/162/68 80/168/80
f 66/95/66 65/93/65 82/202/82
f 73/121/73 82/202/82 65/93/65
f 70/200/70 68/162/68 75/201/75
f 65/93/65 21/60/21 72/120/72
