# Blender v2.79 (sub 0) OBJ File: ''
# www.blender.org
o group_0_undefined.005
v 1.159061 39.999603 -50.249989
v 26.159065 39.999603 -50.249989
v 26.159065 9.999605 -50.249989
v 1.159061 9.999605 -50.249989
v 0.659061 -0.000395 -50.249989
v 0.659061 9.999605 -50.249989
v 34.659065 -0.000395 -50.249989
v 34.659065 9.999605 -50.249989
v 0.000066 59.998604 0.000009
v 0.000066 54.999603 0.000009
v 35.000069 54.999603 0.000007
v 35.000069 59.998604 0.000007
v 15.955067 59.999603 -20.244993
v 14.561066 59.999603 -20.954992
v 13.455067 59.999603 -22.060991
v 12.267063 54.175602 -25.838991
v 12.267063 54.175602 -23.338991
v 17.458065 54.999603 -23.338991
v 17.458065 54.999603 -25.838991
v 19.045065 59.999603 -20.244993
v 20.439066 59.999603 -20.954992
v 21.545063 59.999603 -22.060991
v 17.500067 59.999603 -19.999990
v 7.585065 51.785603 -25.838991
v 7.585065 51.785603 -23.338991
v 26.159065 39.999603 -49.999989
v 1.411968 39.999603 -49.999989
v 17.865067 54.649605 -26.249990
v 23.055065 53.826603 -26.249992
v 23.055065 53.826603 -49.999989
v 17.865067 54.649605 -49.999989
v 3.869068 48.062603 -25.838991
v 3.869069 48.062603 -23.338991
v 14.561066 69.999603 -20.954992
v 15.955067 69.999603 -20.244993
v 13.455067 69.999603 -22.060991
v 17.500067 69.999603 -19.999990
v 12.500065 69.999603 -24.999990
v 27.738064 51.436604 -26.249992
v 27.738064 51.436604 -49.999989
v 35.000065 54.999603 -49.999989
v 0.000064 54.999603 -49.999989
v 0.000064 59.998604 -49.999989
v 1.483067 43.371605 -25.838991
v 1.483067 43.371605 -23.338991
v 12.500065 59.999603 -24.999990
v 14.561066 59.999603 -29.044992
v 12.745064 59.999603 -23.454992
v 31.454063 47.714603 -26.249992
v 31.454063 47.714603 -49.999989
v 21.545063 69.999603 -22.060991
v 12.745064 69.999603 -26.544992
v 20.439066 69.999603 -20.954992
v 19.045065 69.999603 -20.244993
v 12.674065 53.826603 -26.249990
v 7.992063 51.436604 -26.249990
v 4.276067 47.714603 -26.249990
v 33.840069 43.023602 -26.249992
v 1.890065 43.023602 -26.249990
v 1.411969 39.999603 -26.249990
v 1.159062 38.400204 -26.249990
v 1.068066 37.824604 -26.249990
v 1.159062 37.249004 -26.249990
v 1.867566 32.767605 -26.249990
v 34.662067 37.824604 -26.249992
v 33.840069 32.625603 -26.249992
v 0.661068 38.171604 -25.838991
v 0.661069 38.171604 -23.338991
v 33.840065 43.023602 -49.999989
v 22.500065 59.999603 -24.999992
v 22.255066 59.999603 -23.454994
v 1.483067 32.971603 -25.838991
v 1.483067 32.971603 -23.338991
v 34.662064 37.824604 -49.999989
v 12.745064 69.999603 -23.454992
v 1.068065 37.824604 -49.999989
v 1.159061 38.400204 -49.999989
v 1.159061 37.249004 -49.999989
v 34.255070 38.171604 -25.838993
v 34.255070 38.171604 -23.338993
v 33.432068 32.971603 -23.338993
v 33.432068 32.971603 -25.838993
v 33.840065 32.625603 -49.999989
v 22.255066 69.999603 -23.454994
v 22.500065 69.999603 -24.999992
v 26.159065 9.999605 -26.249992
v 26.159065 23.406706 -26.249992
v 23.055065 21.822607 -26.249992
v 17.865067 20.999605 -26.249990
v 22.648064 54.175602 -23.338993
v 27.331066 51.785603 -23.338993
v 31.047066 48.062603 -23.338993
v 33.432068 43.371605 -23.338993
v 31.454063 27.935606 -26.249992
v 31.454063 27.935606 -49.999989
v 33.432068 43.371605 -25.838993
v 12.674064 53.826603 -49.999989
v 7.992061 51.436604 -49.999989
v 4.276065 47.714603 -49.999989
v 1.890064 43.023602 -49.999989
v 31.047066 48.062603 -25.838993
v 27.331066 51.785603 -25.838993
v 27.738064 24.212606 -49.999989
v 26.159065 23.406706 -49.999989
v 27.738064 24.212606 -26.249992
v 3.869069 28.279608 -23.338991
v 31.047066 28.279608 -23.338993
v 7.585065 24.556604 -23.338991
v 27.331066 24.556604 -23.338993
v 12.267063 22.166605 -23.338991
v 17.458065 21.343607 -23.338991
v 22.648064 22.166605 -23.338993
v 12.674065 21.822607 -26.249990
v 7.992063 24.212606 -26.249990
v 1.159062 9.999605 -26.249990
v 22.648064 54.175602 -25.838993
v 4.276067 27.935606 -26.249990
v 14.561066 69.999603 -29.044992
v 15.955067 59.999603 -29.755991
v 3.869068 28.279608 -25.838991
v 1.890065 32.625603 -26.249990
v 13.455067 59.999603 -27.938990
v 12.745064 59.999603 -26.544992
v 7.585065 24.556604 -25.838991
v 22.255066 59.999603 -26.544994
v 12.267063 22.166605 -25.838991
v 17.458065 21.343607 -25.838991
v 20.439064 59.999603 -29.044992
v 19.045063 59.999603 -29.755991
v 21.545063 59.999603 -27.938990
v 17.500065 59.999603 -29.999990
v 22.648064 22.166605 -25.838993
v 27.331066 24.556604 -25.838993
v 17.500065 69.999603 -29.999990
v 15.955067 69.999603 -29.755991
v 13.455067 69.999603 -27.938990
v 31.047066 28.279608 -25.838993
v 34.659069 9.999605 -26.249992
v 34.659069 -0.000395 -26.249992
v 0.659062 -0.000395 -26.249990
v 0.659062 9.999605 -26.249990
v 22.255066 69.999603 -26.544994
v 21.545063 69.999603 -27.938990
v 20.439064 69.999603 -29.044992
v 19.045063 69.999603 -29.755991
v 35.000065 59.998604 -49.999989
v 1.159062 39.999603 -26.249990
vt 0.241323 0.710371
vt 0.061231 0.710371
vt 0.061231 0.485217
vt 0.241323 0.485217
vt 0.244925 0.410165
vt 0.244925 0.485217
vt 0.000000 0.410166
vt 0.000000 0.485217
vt 0.963989 0.624744
vt 1.000000 0.624744
vt 1.000000 0.887423
vt 0.963989 0.887423
vt 0.587420 0.319988
vt 0.578306 0.313088
vt 0.571687 0.303590
vt 0.962365 0.035139
vt 0.980374 0.035139
vt 0.980374 0.074098
vt 0.962365 0.074098
vt 0.609397 0.323618
vt 0.620113 0.319992
vt 0.629227 0.313093
vt 0.598132 0.323619
vt 0.962365 0.000000
vt 0.980374 0.000000
vt 0.246732 0.938141
vt 0.244931 0.938141
vt 0.246732 0.752411
vt 0.244931 0.750513
vt 0.807214 0.178247
vt 0.844600 0.178247
vt 0.844601 0.356494
vt 0.807214 0.356494
vt 0.496976 0.750513
vt 0.244931 0.750513
vt 0.370651 0.575351
vt 0.896344 0.178247
vt 0.896344 0.207207
vt 0.878335 0.207207
vt 0.878335 0.178247
vt 0.568209 0.292420
vt 0.564725 0.303586
vt 0.568209 0.280681
vt 0.558103 0.313085
vt 0.558103 0.260016
vt 0.878335 0.178247
vt 0.878335 0.356494
vt 0.944907 0.487677
vt 0.944907 0.224998
vt 0.980918 0.224998
vt 0.896344 0.243055
vt 0.878335 0.243055
vt 0.568209 0.280683
vt 0.587430 0.253120
vt 0.568209 0.292423
vt 0.905385 0.178247
vt 0.878573 0.178247
vt 0.878573 0.000000
vt 0.905385 0.000000
vt 0.527000 0.323614
vt 0.548985 0.253117
vt 0.538268 0.323614
vt 0.548985 0.319984
vt 0.161308 0.403992
vt 0.123921 0.410165
vt 0.195045 0.386057
vt 0.086527 0.403986
vt 0.052801 0.386046
vt 0.026034 0.358109
vt 0.221816 0.358125
vt 0.239006 0.322920
vt 0.008849 0.322901
vt 0.005407 0.300206
vt 0.003586 0.288202
vt 0.002930 0.283882
vt 0.003586 0.279562
vt 0.008693 0.245929
vt 0.244931 0.283902
vt 0.239012 0.244882
vt 0.896344 0.282285
vt 0.878335 0.282285
vt 0.844780 0.178247
vt 0.844780 0.000000
vt 0.639334 0.292430
vt 0.635849 0.303594
vt 0.896344 0.321055
vt 0.878335 0.321055
vt 0.807329 0.178247
vt 0.807329 0.000000
vt 0.695721 0.672932
vt 0.744628 0.708173
vt 0.677226 0.707412
vt 0.723530 0.646078
vt 0.669864 0.746133
vt 0.564725 0.269515
vt 0.497059 0.327934
vt 0.497715 0.323614
vt 0.497715 0.332254
vt 0.905139 0.905165
vt 0.923148 0.905165
vt 0.923148 0.944192
vt 0.905139 0.944192
vt 0.769877 0.178247
vt 0.769877 0.000000
vt 0.516283 0.319984
vt 0.507165 0.313085
vt 0.183694 0.075066
vt 0.183686 0.175688
vt 0.161327 0.163798
vt 0.123940 0.157618
vt 0.597629 0.249487
vt 0.561622 0.237289
vt 0.635484 0.249468
vt 0.531001 0.214079
vt 0.671496 0.237246
vt 0.508753 0.182121
vt 0.702128 0.214007
vt 0.724380 0.182032
vt 0.497059 0.144548
vt 0.497066 0.105037
vt 0.736091 0.144450
vt 0.508771 0.067454
vt 0.736091 0.104938
vt 0.736091 0.178247
vt 0.736091 0.000000
vt 0.905139 0.866139
vt 0.923148 0.866139
vt 0.657343 0.324538
vt 0.657343 0.249487
vt 0.668473 0.249487
vt 0.690248 0.821106
vt 0.715997 0.850025
vt 0.749080 0.869222
vt 0.786257 0.876829
vt 0.823896 0.872096
vt 0.674351 0.785314
vt 0.843907 0.862437
vt 0.905139 0.830932
vt 0.923148 0.830932
vt 0.647301 0.249487
vt 0.791656 0.951828
vt 0.791656 0.876829
vt 0.802786 0.951897
vt 0.905139 0.802990
vt 0.923148 0.802990
vt 0.757934 0.629473
vt 0.795568 0.624744
vt 0.832751 0.632347
vt 0.843907 0.638821
vt 0.944356 0.178247
vt 0.916905 0.178247
vt 0.916905 0.000000
vt 0.944356 0.000000
vt 0.531031 0.035473
vt 0.724406 0.067359
vt 0.561663 0.012234
vt 0.702158 0.035401
vt 0.597668 0.000011
vt 0.635529 0.000000
vt 0.671530 0.012190
vt 0.639334 0.324538
vt 0.639334 0.249487
vt 0.086545 0.163792
vt 0.052816 0.181726
vt 0.003602 0.075052
vt 0.962365 0.113050
vt 0.980374 0.113050
vt 0.980374 0.148196
vt 0.962365 0.148196
vt 0.171087 0.810993
vt 0.000000 0.810993
vt 0.000000 0.710371
vt 0.720174 0.876829
vt 0.720174 0.951880
vt 0.710132 0.951880
vt 0.905385 0.178247
vt 0.905385 0.000000
vt 0.963989 1.000000
vt 0.928003 1.000000
vt 0.963989 0.624744
vt 0.928003 0.624744
vt 0.026045 0.209665
vt 0.710132 0.876829
vt 0.812828 0.877096
vt 0.812828 0.952095
vt 0.802786 0.876897
vt 0.728142 0.876829
vt 0.738183 0.951880
vt 0.728142 0.951880
vt 0.878335 0.355578
vt 0.896344 0.355578
vt 0.008855 0.244863
vt 0.699003 0.876829
vt 0.689644 0.249487
vt 0.697611 0.249487
vt 0.689644 0.324538
vt 0.697611 0.324538
vt 0.578316 0.260019
vt 0.571694 0.269518
vt 0.598147 0.249487
vt 0.720174 0.951880
vt 0.944356 0.176746
vt 0.962365 0.176746
vt 0.962365 0.203907
vt 0.944356 0.203907
vt 0.679602 0.324538
vt 0.679602 0.249487
vt 0.639334 0.280689
vt 0.908896 0.375256
vt 0.908896 0.579625
vt 0.737809 0.579625
vt 0.944356 0.142081
vt 0.962365 0.142081
vt 0.944356 0.103294
vt 0.962365 0.103294
vt 0.629237 0.260025
vt 0.620124 0.253117
vt 0.635856 0.269522
vt 0.609411 0.249493
vt 0.668473 0.324538
vt 0.944356 0.064196
vt 0.962365 0.064196
vt 0.944356 0.028599
vt 0.962365 0.028599
vt 0.647301 0.324538
vt 0.507165 0.260016
vt 0.516278 0.253112
vt 0.527000 0.249487
vt 0.538268 0.249487
vt 0.944356 0.000000
vt 0.962365 0.000000
vt 0.221827 0.209682
vt 0.195060 0.181738
vt 0.905139 0.802990
vt 0.905139 0.983113
vt 0.843907 0.802990
vt 0.843907 0.983113
vt 0.244931 0.000020
vt 0.244925 0.075071
vt 0.699003 0.951880
vt 0.780527 0.876897
vt 0.923148 0.979406
vt 0.905139 0.979406
vt 0.000006 0.000000
vt 0.000000 0.075051
vt 0.500543 0.303586
vt 0.497059 0.292420
vt 0.497059 0.280681
vt 0.500538 0.269510
vt 0.980918 0.487677
vt 0.738183 0.876829
vt 0.749313 0.876829
vt 0.720174 0.876829
vt 0.003585 0.300205
vt 0.944907 0.600254
vt 0.908896 0.600254
vt 0.944907 0.224998
vt 0.908896 0.224998
vt 0.687873 0.951880
vt 0.780527 0.951897
vt 0.770485 0.952095
vt 0.770485 0.877096
vt 0.687873 0.876829
vt 0.736008 0.375256
vt 0.244931 0.375256
vt 0.244931 0.000000
vt 0.497059 0.000000
vt 0.497059 0.375256
vt 0.677831 0.876829
vt 0.677831 0.951880
vt 0.669864 0.951880
vt 0.669864 0.876829
vt 0.244931 0.375256
vt 0.496976 0.375256
vt 0.370651 0.556588
vt 0.172888 0.935525
vt 0.171087 0.935525
vt 0.172888 0.710371
vt 0.770485 0.951880
vt 0.760443 0.951880
vt 0.760443 0.876829
vt 0.770485 0.876829
vt 0.737809 0.588259
vt 0.736008 0.600254
vt 0.749313 0.951880
vt 0.496976 0.480196
vt 0.508670 0.442623
vt 0.724296 0.442712
vt 0.496983 0.519707
vt 0.736008 0.480293
vt 0.736008 0.519806
vt 0.508687 0.557289
vt 0.702044 0.410736
vt 0.671412 0.387498
vt 0.530917 0.410665
vt 0.635400 0.375276
vt 0.561539 0.387455
vt 0.597545 0.375256
vt 0.671446 0.612554
vt 0.635445 0.624744
vt 0.702075 0.589343
vt 0.597584 0.624733
vt 0.561580 0.612509
vt 0.530948 0.589271
vt 0.724322 0.557385
vt 0.908896 0.583917
vt 0.737809 0.583917
vt 0.908896 0.600254
vt 0.908896 0.588259
vt 0.417819 0.750513
vt 0.417819 0.752411
vt 0.906106 0.802990
vt 0.906106 0.624744
vt 0.928002 0.624744
vt 0.928003 0.802990
vt 0.871697 0.802990
vt 0.871697 0.624744
vt 0.843907 0.802990
vt 0.843907 0.624744
vt 0.736091 0.178247
vt 0.769819 0.178247
vt 0.769819 0.356494
vt 0.736091 0.356494
vt 0.493407 0.750513
vt 0.493407 0.930636
vt 0.489806 0.930636
vt 0.489806 0.750513
vt 0.669864 0.879833
vt 0.496976 0.879833
vt 0.669864 0.624744
vt 0.496976 0.624744
vt 0.172888 0.710371
vt 0.244925 0.710371
vt 0.244925 0.890494
vt 0.172888 0.890494
vt 0.417819 0.750513
vt 0.489806 0.750513
vt 0.489806 0.930636
vt 0.417819 0.930636
vn -0.5773 0.5773 -0.5773
vn 0.5773 0.5773 -0.5773
vn 0.3015 0.3015 -0.9045
vn -0.3015 0.3015 -0.9045
vn -0.5773 -0.5773 -0.5773
vn 0.5773 -0.5773 -0.5773
vn -0.5773 0.5773 0.5773
vn -0.5773 -0.5773 0.5773
vn 0.5773 -0.5773 0.5773
vn 0.5773 0.5773 0.5773
vn -0.2284 -0.6735 0.7029
vn -0.4344 -0.6735 0.5980
vn -0.5980 -0.6735 0.4344
vn -0.2288 0.7029 -0.6735
vn -0.2288 0.7029 0.6735
vn 0.0000 -0.7474 0.6643
vn 0.0000 -0.7474 -0.6643
vn 0.2284 -0.6735 0.7029
vn 0.4344 -0.6735 0.5980
vn 0.5980 -0.6735 0.4344
vn 0.0000 -0.6735 0.7392
vn -0.4350 0.5976 -0.6735
vn -0.4350 0.5976 0.6735
vn -0.2882 0.9208 -0.2626
vn 0.0000 0.7392 0.6735
vn 0.2287 0.7029 0.6735
vn 0.2287 0.7029 -0.6735
vn 0.0000 0.7392 -0.6735
vn -0.5983 0.4339 -0.6735
vn -0.5983 0.4339 0.6735
vn -0.4344 0.6735 0.5980
vn -0.2284 0.6735 0.7029
vn -0.5980 0.6735 0.4344
vn 0.0000 0.6735 0.7392
vn -0.7392 0.6735 0.0000
vn 0.4349 0.5977 0.6735
vn 0.4349 0.5977 -0.6735
vn -0.7031 0.2280 -0.6736
vn -0.7031 0.2280 0.6736
vn -0.7392 -0.6735 0.0000
vn -0.4346 -0.6736 -0.5979
vn -0.7029 -0.6735 0.2284
vn 0.5983 0.4340 0.6735
vn 0.5983 0.4340 -0.6735
vn 0.5980 0.6735 0.4344
vn -0.7029 0.6735 -0.2284
vn 0.4344 0.6735 0.5980
vn 0.2284 0.6735 0.7029
vn -0.2287 0.7029 0.6735
vn -0.4349 0.5976 0.6735
vn -0.5983 0.4340 0.6735
vn 0.7030 0.2280 0.6736
vn -0.7030 0.2280 0.6736
vn -0.3016 0.3530 0.8856
vn -0.6865 0.0539 0.7252
vn -0.7391 0.0000 0.6736
vn -0.6865 -0.0539 0.7252
vn 0.0000 0.0000 1.0000
vn 0.7391 0.0000 0.6736
vn 0.7030 -0.2281 0.6735
vn -0.7391 0.0000 -0.6736
vn 0.7030 0.2280 -0.6736
vn 0.7392 -0.6735 0.0000
vn 0.7029 -0.6735 0.2284
vn -0.7031 -0.2280 -0.6736
vn -0.7031 -0.2280 0.6736
vn 0.7391 0.0000 -0.6736
vn -0.7029 0.6735 0.2284
vn -0.9989 0.0391 -0.0250
vn -0.9989 -0.0391 -0.0250
vn 0.7391 0.0000 -0.6735
vn 0.7391 0.0000 0.6735
vn 0.7030 -0.2280 0.6736
vn 0.7030 -0.2280 -0.6736
vn 0.7030 -0.2281 -0.6735
vn 0.7029 0.6735 0.2284
vn 0.7392 0.6735 0.0000
vn 0.3015 0.3015 0.9045
vn 0.4555 -0.2789 0.8454
vn 0.2288 0.7029 0.6735
vn 0.4349 0.5976 0.6735
vn 0.5984 0.4339 0.6735
vn 0.5983 -0.4340 0.6735
vn 0.5983 -0.4340 -0.6735
vn -0.2287 0.7029 -0.6735
vn -0.4349 0.5976 -0.6735
vn -0.5983 0.4340 -0.6735
vn -0.7030 0.2280 -0.6736
vn 0.5984 0.4339 -0.6735
vn 0.4349 0.5976 -0.6735
vn 0.4349 -0.5976 -0.6735
vn 0.9502 -0.2450 -0.1924
vn 0.4349 -0.5976 0.6735
vn -0.5983 -0.4339 0.6735
vn 0.5984 -0.4339 0.6735
vn -0.4350 -0.5976 0.6735
vn -0.2287 -0.7029 0.6735
vn 0.0000 -0.7392 0.6735
vn 0.2287 -0.7029 0.6735
vn -0.3015 0.3015 0.9045
vn 0.2288 0.7029 -0.6735
vn -0.4346 0.6736 -0.5979
vn -0.2284 -0.6734 -0.7031
vn -0.5983 -0.4339 -0.6735
vn -0.0001 0.0000 1.0000
vn -0.5980 -0.6735 -0.4344
vn -0.7029 -0.6735 -0.2284
vn -0.4350 -0.5976 -0.6735
vn 0.7029 -0.6735 -0.2284
vn -0.2287 -0.7029 -0.6735
vn 0.0000 -0.7392 -0.6735
vn 0.4346 -0.6736 -0.5979
vn 0.2284 -0.6734 -0.7031
vn 0.5980 -0.6735 -0.4344
vn 0.0000 -0.6736 -0.7391
vn 0.2287 -0.7029 -0.6735
vn 0.0000 0.6736 -0.7391
vn -0.2284 0.6734 -0.7031
vn -0.5980 0.6735 -0.4344
vn 0.5984 -0.4339 -0.6735
vn 0.7029 0.6735 -0.2284
vn 0.5980 0.6735 -0.4344
vn 0.4346 0.6736 -0.5979
vn 0.2284 0.6734 -0.7031
s 1
f 1/1/1 2/2/2 3/3/3
f 1/1/1 3/3/3 4/4/4
f 4/4/4 3/3/3 5/5/5
f 6/6/1 4/4/4 5/5/5
f 7/7/6 5/5/5 3/3/3
f 8/8/2 7/7/6 3/3/3
f 9/9/7 10/10/8 11/11/9
f 9/9/7 11/11/9 12/12/10
f 13/13/11 14/14/12 15/15/13
f 16/16/14 17/17/15 18/18/16
f 16/16/14 18/18/16 19/19/17
f 20/20/18 15/15/13 21/21/19
f 22/22/20 21/21/19 15/15/13
f 23/23/21 15/15/13 20/20/18
f 13/13/11 15/15/13 23/23/21
f 24/24/22 25/25/23 17/17/15
f 24/24/22 17/17/15 16/16/14
f 26/26/3 2/27/2 27/28/24
f 1/29/1 27/28/24 2/27/2
f 28/30/25 29/31/26 30/32/27
f 28/30/25 30/32/27 31/33/28
f 11/34/9 10/35/8 18/36/16
f 24/37/22 32/38/29 33/39/30
f 24/37/22 33/39/30 25/40/23
f 34/41/31 35/42/32 36/43/33
f 37/44/34 38/45/35 35/42/32
f 29/31/26 39/46/36 40/47/37
f 29/31/26 40/47/37 30/32/27
f 41/48/6 42/49/5 43/50/1
f 32/38/29 44/51/38 45/52/39
f 32/38/29 45/52/39 33/39/30
f 46/53/40 47/54/41 48/55/42
f 39/56/36 49/57/43 50/58/44
f 39/56/36 50/58/44 40/59/37
f 51/60/45 52/61/46 53/62/47
f 53/62/47 52/61/46 54/63/48
f 29/64/26 28/65/25 39/66/36
f 28/65/25 55/67/49 39/66/36
f 55/67/49 56/68/50 39/66/36
f 56/68/50 57/69/51 39/66/36
f 49/70/43 39/66/36 57/69/51
f 58/71/52 49/70/43 57/69/51
f 58/71/52 57/69/51 59/72/53
f 58/71/52 59/72/53 60/73/54
f 58/71/52 60/73/54 61/74/55
f 58/71/52 61/74/55 62/75/56
f 58/71/52 62/75/56 63/76/57
f 64/77/58 65/78/59 63/76/57
f 66/79/60 65/78/59 64/77/58
f 58/71/52 63/76/57 65/78/59
f 44/51/38 67/80/61 68/81/56
f 44/51/38 68/81/56 45/52/39
f 49/57/43 58/82/52 69/83/62
f 49/57/43 69/83/62 50/58/44
f 15/15/13 70/84/63 71/85/64
f 15/15/13 71/85/64 22/22/20
f 67/80/61 72/86/65 73/87/66
f 67/80/61 73/87/66 68/81/56
f 65/88/59 74/89/67 58/82/52
f 74/89/67 69/83/62 58/82/52
f 69/90/62 26/91/3 50/92/44
f 74/93/67 26/91/3 69/90/62
f 40/94/37 50/92/44 26/91/3
f 36/43/33 35/42/32 75/95/68
f 75/95/68 35/42/32 38/45/35
f 76/96/61 77/97/69 78/98/70
f 79/99/71 80/100/72 81/101/73
f 79/99/71 81/101/73 82/102/74
f 66/103/60 83/104/75 74/89/67
f 37/44/34 54/63/48 38/45/35
f 84/105/76 52/61/46 51/60/45
f 85/106/77 52/61/46 84/105/76
f 86/107/78 87/108/79 88/109/58
f 89/110/58 86/107/78 88/109/58
f 18/111/16 17/112/15 90/113/80
f 17/112/15 25/114/23 90/113/80
f 91/115/81 90/113/80 25/114/23
f 25/114/23 33/116/30 91/115/81
f 92/117/82 91/115/81 33/116/30
f 93/118/52 92/117/82 33/116/30
f 33/116/30 45/119/39 93/118/52
f 45/119/39 68/120/56 93/118/52
f 80/121/72 93/118/52 68/120/56
f 73/122/66 81/123/73 68/120/56
f 80/121/72 68/120/56 81/123/73
f 66/103/60 94/124/83 95/125/84
f 66/103/60 95/125/84 83/104/75
f 96/126/62 93/127/52 80/100/72
f 96/126/62 80/100/72 79/99/71
f 20/128/18 54/129/48 37/130/34
f 31/131/28 26/91/3 97/132/85
f 98/133/86 97/132/85 26/91/3
f 99/134/87 98/133/86 26/91/3
f 100/135/88 99/134/87 26/91/3
f 30/136/27 26/91/3 31/131/28
f 40/94/37 26/91/3 30/136/27
f 27/137/24 100/135/88 26/91/3
f 101/138/89 92/139/82 93/127/52
f 101/138/89 93/127/52 96/126/62
f 20/128/18 53/140/47 54/129/48
f 38/141/35 46/142/40 75/143/68
f 102/144/90 91/145/81 92/139/82
f 102/144/90 92/139/82 101/138/89
f 26/91/3 74/93/67 83/146/75
f 26/91/3 83/146/75 95/147/84
f 26/91/3 95/147/84 103/148/91
f 26/91/3 103/148/91 104/149/92
f 94/150/83 105/151/93 103/152/91
f 94/150/83 103/152/91 95/153/84
f 73/122/66 106/154/94 81/123/73
f 107/155/95 81/123/73 106/154/94
f 108/156/96 109/157/93 106/154/94
f 110/158/97 109/157/93 108/156/96
f 111/159/98 109/157/93 110/158/97
f 112/160/99 109/157/93 111/159/98
f 107/155/95 106/154/94 109/157/93
f 53/140/47 22/161/20 51/162/45
f 113/163/58 114/164/58 115/165/100
f 116/166/101 90/167/80 91/168/81
f 116/166/101 91/168/81 102/169/90
f 104/170/92 87/171/79 86/172/78
f 51/173/45 22/174/20 71/175/64
f 105/151/93 87/176/79 104/177/92
f 105/151/93 104/177/92 103/152/91
f 10/178/8 9/179/7 42/180/5
f 43/181/1 42/180/5 9/179/7
f 114/164/58 117/182/58 115/165/100
f 18/18/16 90/167/80 116/166/101
f 18/18/16 116/166/101 19/19/17
f 71/175/64 84/183/76 51/173/45
f 15/184/13 36/185/33 48/186/42
f 118/187/102 119/188/103 47/189/41
f 73/87/66 72/86/65 106/190/94
f 120/191/104 106/190/94 72/86/65
f 117/182/58 121/192/105 115/165/100
f 85/193/77 84/183/76 71/175/64
f 34/194/31 36/195/33 14/196/12
f 15/197/13 14/196/12 36/195/33
f 122/198/106 47/54/41 123/199/107
f 119/200/103 15/15/13 47/54/41
f 48/55/42 47/54/41 15/15/13
f 123/199/107 47/54/41 46/53/40
f 47/189/41 122/201/106 118/187/102
f 121/192/105 64/77/58 115/165/100
f 124/202/108 108/203/96 106/204/94
f 124/202/108 106/204/94 120/205/104
f 14/196/12 13/206/11 35/207/32
f 14/196/12 35/207/32 34/194/31
f 15/15/13 125/208/109 70/84/63
f 115/209/100 63/210/57 78/211/70
f 75/143/68 46/142/40 48/186/42
f 126/212/110 110/213/97 108/203/96
f 126/212/110 108/203/96 124/202/108
f 127/214/111 111/215/98 110/213/97
f 127/214/111 110/213/97 126/212/110
f 128/216/112 15/15/13 129/217/113
f 130/218/114 15/15/13 128/216/112
f 131/219/115 129/217/113 15/15/13
f 125/208/109 15/15/13 130/218/114
f 119/200/103 131/219/115 15/15/13
f 35/207/32 13/206/11 37/130/34
f 23/220/21 37/130/34 13/206/11
f 48/186/42 36/185/33 75/143/68
f 132/221/116 112/222/99 111/215/98
f 132/221/116 111/215/98 127/214/111
f 37/130/34 23/220/21 20/128/18
f 38/45/35 54/63/48 52/61/46
f 132/221/116 133/223/91 109/224/93
f 132/221/116 109/224/93 112/222/99
f 53/140/47 20/128/18 21/225/19
f 134/226/117 135/227/118 52/61/46
f 135/227/118 118/228/102 52/61/46
f 136/229/119 52/61/46 118/228/102
f 137/230/120 107/231/95 109/224/93
f 137/230/120 109/224/93 133/223/91
f 64/77/58 121/192/105 87/108/79
f 94/232/83 64/77/58 105/233/93
f 87/108/79 105/233/93 64/77/58
f 66/79/60 64/77/58 94/232/83
f 121/192/105 117/182/58 87/108/79
f 117/182/58 114/164/58 87/108/79
f 88/109/58 87/108/79 114/164/58
f 89/110/58 88/109/58 114/164/58
f 113/163/58 89/110/58 114/164/58
f 138/234/10 8/235/2 86/236/78
f 3/237/3 86/236/78 8/235/2
f 139/238/9 138/239/10 86/107/78
f 70/240/63 85/193/77 71/175/64
f 38/141/35 123/241/107 46/142/40
f 81/101/73 107/242/95 137/243/120
f 81/101/73 137/243/120 82/102/74
f 21/225/19 22/161/20 53/140/47
f 139/238/9 86/107/78 140/244/8
f 86/107/78 115/165/100 140/244/8
f 141/245/7 140/244/8 115/165/100
f 85/106/77 142/246/121 52/61/46
f 142/246/121 143/247/122 52/61/46
f 143/247/122 144/248/123 52/61/46
f 144/248/123 145/249/124 52/61/46
f 134/226/117 52/61/46 145/249/124
f 86/107/78 89/110/58 115/165/100
f 89/110/58 113/163/58 115/165/100
f 146/250/2 41/48/6 43/50/1
f 119/188/103 135/251/118 134/252/117
f 64/77/58 63/76/57 115/165/100
f 118/187/102 135/251/118 119/188/103
f 122/201/106 136/253/119 118/187/102
f 60/73/54 147/254/7 61/74/55
f 41/255/6 146/256/2 11/257/9
f 12/258/10 11/257/9 146/256/2
f 85/193/77 70/240/63 125/259/109
f 52/260/46 136/261/119 123/241/107
f 122/262/106 123/241/107 136/261/119
f 123/241/107 38/141/35 52/260/46
f 85/193/77 125/259/109 142/263/121
f 4/264/4 115/209/100 78/211/70
f 12/265/10 146/266/2 43/267/1
f 43/267/1 9/268/7 12/265/10
f 142/263/121 125/259/109 143/269/122
f 130/270/114 143/269/122 125/259/109
f 130/270/114 128/271/112 144/272/123
f 42/273/5 41/274/6 19/275/17
f 10/35/8 42/273/5 19/275/17
f 18/36/16 10/35/8 19/275/17
f 41/274/6 11/34/9 19/275/17
f 144/272/123 143/269/122 130/270/114
f 2/276/2 26/277/3 104/170/92
f 86/172/78 3/278/3 104/170/92
f 2/276/2 104/170/92 3/278/3
f 128/279/112 129/280/113 145/281/124
f 128/279/112 145/281/124 144/282/123
f 77/283/69 1/284/1 78/211/70
f 4/264/4 78/211/70 1/284/1
f 134/252/117 145/281/124 131/285/115
f 129/280/113 131/285/115 145/281/124
f 44/286/38 32/287/29 96/288/62
f 67/289/61 44/286/38 96/288/62
f 96/288/62 79/290/71 67/289/61
f 79/290/71 82/291/74 67/289/61
f 72/292/65 67/289/61 82/291/74
f 101/293/89 96/288/62 32/287/29
f 102/294/90 101/293/89 32/287/29
f 32/287/29 24/295/22 102/294/90
f 116/296/101 102/294/90 24/295/22
f 24/295/22 16/297/14 116/296/101
f 19/298/17 116/296/101 16/297/14
f 134/252/117 131/285/115 119/188/103
f 132/299/116 127/300/111 133/301/91
f 127/300/111 126/302/110 133/301/91
f 126/302/110 124/303/108 133/301/91
f 124/303/108 120/304/104 133/301/91
f 137/305/120 133/301/91 120/304/104
f 82/291/74 137/305/120 120/304/104
f 82/291/74 120/304/104 72/292/65
f 18/36/16 19/275/17 11/34/9
f 66/103/60 74/89/67 65/88/59
f 62/306/56 76/307/61 78/211/70
f 62/306/56 78/211/70 63/210/57
f 147/308/7 1/284/1 77/283/69
f 147/308/7 77/283/69 61/309/55
f 147/310/7 60/311/54 27/28/24
f 147/310/7 27/28/24 1/29/1
f 61/309/55 77/283/69 76/307/61
f 61/309/55 76/307/61 62/306/56
f 59/312/53 100/313/88 27/314/24
f 59/312/53 27/314/24 60/315/54
f 57/316/51 99/317/87 100/313/88
f 57/316/51 100/313/88 59/312/53
f 56/318/50 98/319/86 99/317/87
f 56/318/50 99/317/87 57/316/51
f 56/320/50 55/321/49 97/322/85
f 56/320/50 97/322/85 98/323/86
f 55/321/49 28/30/25 31/33/28
f 55/321/49 31/33/28 97/322/85
f 6/324/1 141/325/7 115/326/100
f 6/324/1 115/326/100 4/327/4
f 140/328/8 5/329/5 139/330/9
f 7/331/6 139/330/9 5/329/5
f 138/332/10 139/333/9 7/334/6
f 138/332/10 7/334/6 8/335/2
f 6/336/1 5/337/5 140/338/8
f 6/336/1 140/338/8 141/339/7
