# Blender v2.79 (sub 0) OBJ File: ''
# www.blender.org
o group_0_15277357.004
v -15.292155 -34.973557 -11.777415
v 9.707845 -34.973557 -11.777416
v -15.792153 -34.973557 11.972585
v -15.792155 -34.973557 -11.777415
v 18.207846 -34.973557 11.972583
v 18.207846 -34.973557 -11.777417
v 9.707847 -24.973557 11.972584
v 18.207846 -24.973557 11.972583
v -15.292153 -24.973557 11.972585
v -15.792153 -24.973557 11.972585
v 18.207846 -24.973557 -11.777417
v -15.792155 -24.973557 -11.777415
v 9.707845 -24.973557 -11.777416
v -15.292155 -24.973557 -11.777415
v 1.413845 40.026443 11.972581
v 6.603846 39.194443 11.972581
v 6.603845 39.194443 -11.777417
v 1.413844 40.026443 -11.777417
v -3.777155 39.194443 11.972581
v -8.459155 36.779442 11.972581
v 11.286847 36.779442 11.972580
v -12.175155 33.018440 11.972582
v -14.561154 28.279442 11.972582
v 15.002845 33.018440 11.972580
v 17.388845 28.279442 11.972580
v 11.286845 36.779442 -11.777418
v 15.002843 33.018440 -11.777418
v -15.292153 23.607944 11.972582
v -15.292155 23.607944 -11.777416
v -15.383155 23.026443 -11.777416
v -15.383153 23.026443 11.972582
v 9.707845 25.026443 -11.777417
v -3.777156 39.194443 -11.777417
v -8.459157 36.779442 -11.777417
v -12.175157 33.018440 -11.777416
v 11.286847 9.273445 11.972580
v 9.707847 8.459145 11.972581
v 9.707845 8.459145 -11.777417
v 11.286845 9.273445 -11.777418
v 18.210844 23.026443 -11.777418
v 18.210844 23.026443 11.972580
v 17.388845 17.773445 11.972580
v 17.388845 17.773445 -11.777418
v 15.002845 13.034443 11.972580
v 15.002843 13.034443 -11.777418
v -14.561156 28.279442 -11.777416
v -15.070155 25.026443 -11.777416
v -15.070153 25.026443 11.972582
v 17.388845 28.279442 -11.777418
v -15.292155 22.444942 -11.777416
v -15.292153 22.444942 11.972582
v -14.561154 17.773445 11.972582
v -12.175155 13.034443 11.972582
v -8.459155 9.273445 11.972581
v -3.777155 6.858444 11.972581
v 1.413845 6.026443 11.972581
v 6.603846 6.858444 11.972581
v -15.292153 -24.973557 11.972582
v 9.707847 -24.973557 11.972581
v 1.413845 6.026443 11.972581
v -15.292153 25.026443 11.972582
v -15.292155 23.607944 -11.777416
v -15.292153 23.607944 11.972582
v -15.070153 25.026443 11.972582
v -15.070155 25.026443 -11.777416
v -8.459155 9.273445 11.972581
v -12.175155 13.034443 11.972582
v 6.603846 6.858444 11.972581
v 9.707847 8.459145 11.972581
v 9.707845 25.026443 -12.027417
v 9.707845 25.026443 -11.777417
v 9.707845 8.459145 -11.777417
v -15.292153 22.444942 11.972582
v -15.292155 22.444942 -11.777416
v -14.561154 17.773445 11.972582
v -3.777155 6.858444 11.972581
v -15.292155 25.026443 -12.027416
v -15.292155 -34.973557 -12.027416
v -15.292155 -34.973557 -11.777416
v -15.292155 -24.973557 -11.777416
v 9.707845 -34.973557 -12.027417
v 9.707845 -34.973557 -11.777417
v 9.707845 -24.973557 -11.777417
vt 0.208550 0.795803
vt 0.208550 0.583962
vt 0.411376 0.800040
vt 0.208550 0.800040
vt 0.411376 0.511936
vt 0.208550 0.511936
vt 0.922325 0.290097
vt 0.836924 0.217573
vt 0.922325 0.000000
vt 0.836924 0.290097
vt 0.836924 0.004266
vt 0.836924 0.000000
vt 0.990091 0.926697
vt 0.904691 0.926697
vt 0.904691 0.724056
vt 0.990091 0.724056
vt 0.906868 0.510749
vt 0.992071 0.510749
vt 0.992071 0.713390
vt 0.906868 0.713390
vt 0.623423 0.489910
vt 0.623423 0.404588
vt 0.696014 0.404588
vt 0.696014 0.489910
vt 0.700284 0.404588
vt 0.700284 0.489910
vt 0.696014 0.489910
vt 0.696014 0.404588
vt 0.994915 0.000000
vt 0.994915 0.202642
vt 0.922325 0.202642
vt 0.922325 0.000000
vt 0.415646 0.511936
vt 0.415646 0.714578
vt 0.411376 0.714578
vt 0.411376 0.511936
vt 0.502778 1.000000
vt 0.458455 1.000000
vt 0.458455 0.797359
vt 0.502778 0.797359
vt 0.537740 0.510749
vt 0.582636 0.510915
vt 0.495048 0.524609
vt 0.625329 0.525097
vt 0.458724 0.551144
vt 0.661648 0.551899
vt 0.688036 0.588700
vt 0.432337 0.587749
vt 0.418462 0.630845
vt 0.418462 1.000000
vt 0.418462 0.797359
vt 0.904691 0.926697
vt 0.872571 0.926697
vt 0.872571 0.724056
vt 0.904691 0.724056
vt 1.000000 0.724056
vt 1.000000 0.926697
vt 0.994993 0.926697
vt 0.994993 0.724056
vt 0.023814 0.736330
vt 0.090933 0.606365
vt 0.054361 0.769204
vt 0.093730 0.790959
vt 0.005084 0.695573
vt 0.000000 0.650904
vt 0.138070 0.799480
vt 0.955112 0.492739
vt 0.940906 0.492739
vt 0.940906 0.290097
vt 0.955112 0.290097
vt 0.787239 0.724056
vt 0.787239 0.926697
vt 0.742378 0.926697
vt 0.742378 0.724056
vt 0.701907 0.926697
vt 0.701907 0.724056
vt 0.864937 0.290097
vt 0.864937 0.492739
vt 0.836924 0.492739
vt 0.836924 0.290097
vt 0.906701 0.492739
vt 0.906701 0.290097
vt 0.990388 0.492739
vt 0.990388 0.290097
vt 0.009061 0.606710
vt 0.031379 0.567312
vt 0.064770 0.536570
vt 0.105964 0.517488
vt 0.150934 0.511936
vt 0.195274 0.520457
vt 0.208550 0.527795
vt 0.832100 0.724056
vt 0.832100 0.926697
vt 0.625319 0.494872
vt 0.626096 0.489910
vt 0.626096 0.499834
vt 0.183040 0.793929
vt 0.208550 0.782112
vt 0.990091 0.926697
vt 0.990091 0.724056
vt 0.418462 0.676211
vt 0.696626 0.615450
vt 0.700372 0.627115
vt 0.701907 0.631897
vt 0.701907 0.636919
vt 0.701907 0.677262
vt 0.688032 0.720358
vt 0.661645 0.756964
vt 0.625330 0.783498
vt 0.582630 0.797358
vt 0.537741 0.797191
vt 0.509438 0.787792
vt 0.495041 0.783011
vt 0.458722 0.756208
vt 0.432333 0.719407
vt 0.940906 0.290097
vt 0.940906 0.492739
vt 0.587094 1.000000
vt 0.547109 1.000000
vt 0.547109 0.797359
vt 0.587094 0.797359
vt 0.836924 0.404588
vt 0.623423 0.404588
vt 0.694254 0.140087
vt 0.418462 0.000000
vt 0.621288 0.012075
vt 0.418462 0.012075
vt 0.906868 0.510749
vt 0.906868 0.512643
vt 0.704042 0.512643
vt 0.778570 0.112383
vt 0.810305 0.080293
vt 0.649931 0.132988
vt 0.623423 0.119331
vt 0.418462 0.511936
vt 0.416327 0.511936
vt 0.416327 0.370580
vt 0.418462 0.425624
vt 0.418462 0.021975
vt 0.621288 0.021975
vt 0.830682 0.039859
vt 0.213501 0.085323
vt 0.213501 0.370580
vt 0.836924 0.000000
vt 0.738586 0.132988
vt 0.623423 0.000000
vt 0.625319 0.502014
vt 0.623423 0.502014
vt 0.623423 0.489910
vt 0.704042 0.724056
vt 0.701907 0.724056
vt 0.701907 0.510749
vt 0.623423 0.510749
vt 0.621288 0.510749
vt 0.621288 0.425624
vt 0.415646 0.723777
vt 0.415646 0.511936
vt 0.417781 0.511936
vt 0.417781 0.723777
vt 0.000000 0.000000
vt 0.213501 0.000000
vt 0.213501 0.511936
vt 0.000000 0.511936
vt 0.416327 0.085323
vt 0.418462 0.000000
vt 0.416327 0.000000
vn 0.0000 -0.8944 -0.4472
vn -0.5773 -0.5773 0.5773
vn -0.5773 -0.5773 -0.5773
vn 0.5773 -0.5773 0.5773
vn 0.5773 -0.5773 -0.5773
vn 0.0000 0.4472 0.8944
vn 0.5773 0.5773 0.5773
vn -0.5773 0.5773 0.5773
vn 0.5773 0.5773 -0.5773
vn -0.5773 0.5773 -0.5773
vn 0.0000 0.7071 -0.7071
vn 0.0000 0.7395 0.6731
vn 0.2309 0.7024 0.6732
vn 0.2309 0.7024 -0.6732
vn 0.0000 0.7395 -0.6731
vn -0.2309 0.7024 0.6732
vn -0.4378 0.5957 0.6734
vn 0.4378 0.5957 0.6734
vn -0.6002 0.4311 0.6736
vn -0.7035 0.2260 0.6738
vn 0.6002 0.4311 0.6736
vn 0.7035 0.2260 0.6738
vn 0.4378 0.5957 -0.6734
vn 0.6002 0.4311 -0.6736
vn -0.4418 0.0691 0.8944
vn -0.9832 0.1538 -0.0983
vn -0.7388 0.0000 -0.6739
vn -0.7388 0.0000 0.6739
vn 0.0000 0.0000 -1.0000
vn -0.2309 0.7024 -0.6732
vn -0.4378 0.5957 -0.6734
vn -0.6002 0.4311 -0.6736
vn 0.4378 -0.5957 0.6734
vn 0.2050 -0.3975 0.8944
vn 0.3760 -0.7291 -0.5717
vn 0.4378 -0.5957 -0.6734
vn 0.7388 0.0000 -0.6739
vn 0.7388 0.0000 0.6739
vn 0.7035 -0.2260 0.6738
vn 0.7035 -0.2260 -0.6738
vn 0.6002 -0.4311 0.6736
vn 0.6002 -0.4311 -0.6736
vn -0.7035 0.2260 -0.6738
vn -0.7339 0.1148 -0.6694
vn 0.7035 0.2260 -0.6738
vn -0.9832 -0.1538 -0.0983
vn -0.4418 -0.0691 0.8944
vn 0.0000 0.0000 1.0000
vn -0.7071 0.0000 0.7071
vn 0.7071 0.0000 0.7071
vn -1.0000 0.0000 0.0000
vn -0.9951 0.0000 0.0983
vn 0.0000 0.7429 0.6694
vn 0.0000 1.0000 0.0000
vn 0.8204 0.0000 0.5717
vn 0.7071 0.7071 0.0000
vn 1.0000 0.0000 0.0000
vn -0.7071 -0.7071 0.0000
vn 0.7071 -0.7071 0.0000
s 1
f 1/1/1 2/2/1 3/3/2
f 4/4/3 1/1/1 3/3/2
f 5/5/4 3/3/2 2/2/1
f 6/6/5 5/5/4 2/2/1
f 5/7/4 7/8/6 3/9/2
f 8/10/7 7/8/6 5/7/4
f 7/8/6 9/11/6 3/9/2
f 10/12/8 3/9/2 9/11/6
f 8/13/7 5/14/4 6/15/5
f 8/13/7 6/15/5 11/16/9
f 12/17/10 4/18/3 3/19/2
f 12/17/10 3/19/2 10/20/8
f 11/21/9 6/22/5 2/23/1
f 11/21/9 2/23/1 13/24/11
f 4/25/3 12/26/10 14/27/11
f 4/25/3 14/27/11 1/28/1
f 13/29/11 7/30/6 8/31/7
f 13/29/11 8/31/7 11/32/9
f 12/33/10 10/34/8 9/35/6
f 12/33/10 9/35/6 14/36/11
f 15/37/12 16/38/13 17/39/14
f 15/37/12 17/39/14 18/40/15
f 15/41/12 19/42/16 16/43/13
f 19/42/16 20/44/17 16/43/13
f 21/45/18 16/43/13 20/44/17
f 22/46/19 23/47/20 24/48/21
f 25/49/22 24/48/21 23/47/20
f 16/38/13 21/50/18 26/51/23
f 16/38/13 26/51/23 17/39/14
f 21/52/18 24/53/21 27/54/24
f 21/52/18 27/54/24 26/55/23
f 28/56/25 29/57/26 30/58/27
f 28/56/25 30/58/27 31/59/28
f 18/60/15 32/61/29 33/62/30
f 34/63/31 33/62/30 32/61/29
f 17/64/14 32/61/29 18/60/15
f 26/65/23 32/61/29 17/64/14
f 35/66/32 34/63/31 32/61/29
f 36/67/33 37/68/34 38/69/35
f 36/67/33 38/69/35 39/70/36
f 40/71/37 41/72/38 42/73/39
f 40/71/37 42/73/39 43/74/40
f 42/73/39 44/75/41 45/76/42
f 42/73/39 45/76/42 43/74/40
f 23/77/20 46/78/43 47/79/44
f 23/77/20 47/79/44 48/80/25
f 35/81/32 46/78/43 23/77/20
f 35/81/32 23/77/20 22/82/19
f 44/83/41 36/67/33 39/70/36
f 44/83/41 39/70/36 45/84/42
f 32/61/29 27/85/24 49/86/45
f 32/61/29 49/86/45 40/87/37
f 32/61/29 40/87/37 43/88/40
f 32/61/29 43/88/40 45/89/42
f 32/61/29 45/89/42 39/90/36
f 38/91/35 32/61/29 39/90/36
f 49/92/45 27/54/24 25/93/22
f 24/53/21 25/93/22 27/54/24
f 30/94/27 29/95/26 50/96/46
f 26/65/23 27/85/24 32/61/29
f 25/93/22 41/72/38 40/71/37
f 25/93/22 40/71/37 49/92/45
f 35/66/32 32/61/29 46/97/43
f 47/98/44 46/97/43 32/61/29
f 31/59/28 30/58/27 50/99/46
f 31/59/28 50/99/46 51/100/47
f 24/48/21 21/45/18 20/44/17
f 20/44/17 22/46/19 24/48/21
f 41/101/38 25/49/22 23/47/20
f 41/101/38 23/47/20 48/102/25
f 41/101/38 48/102/25 28/103/25
f 41/101/38 28/103/25 31/104/28
f 41/101/38 31/104/28 51/105/47
f 41/101/38 51/105/47 52/106/48
f 41/101/38 52/106/48 53/107/48
f 41/101/38 53/107/48 54/108/48
f 41/101/38 54/108/48 55/109/48
f 41/101/38 55/109/48 56/110/48
f 41/101/38 56/110/48 57/111/48
f 41/101/38 57/111/48 37/112/34
f 36/113/33 44/114/41 37/112/34
f 42/115/39 37/112/34 44/114/41
f 41/101/38 37/112/34 42/115/39
f 20/116/17 34/117/31 35/81/32
f 20/116/17 35/81/32 22/82/19
f 20/118/17 19/119/16 33/120/30
f 20/118/17 33/120/30 34/121/31
f 19/119/16 15/37/12 18/40/15
f 19/119/16 18/40/15 33/120/30
f 58/122/49 59/123/50 60/124/48
f 61/125/8 62/126/51 63/127/52
f 61/128/8 64/129/53 65/130/54
f 66/131/48 67/132/48 58/122/49
f 60/124/48 59/123/50 68/133/48
f 69/134/55 68/133/48 59/123/50
f 70/135/9 71/136/56 72/137/57
f 58/138/49 73/139/52 74/140/51
f 67/132/48 75/141/48 58/122/49
f 59/142/50 72/137/57 69/143/55
f 75/141/48 73/144/52 58/122/49
f 76/145/48 66/131/48 58/122/49
f 60/124/48 76/145/48 58/122/49
f 62/126/51 77/146/10 74/140/51
f 61/125/8 77/146/10 62/126/51
f 64/147/53 61/148/8 63/149/52
f 71/150/56 70/151/9 65/130/54
f 70/151/9 77/152/10 65/130/54
f 61/128/8 65/130/54 77/152/10
f 78/153/3 79/154/58 80/155/51
f 78/153/3 80/155/51 77/146/10
f 74/140/51 77/146/10 80/155/51
f 78/156/3 81/157/5 82/158/59
f 78/156/3 82/158/59 79/159/58
f 81/160/5 78/161/3 77/162/10
f 81/160/5 77/162/10 70/163/9
f 59/142/50 83/164/57 72/137/57
f 83/164/57 81/165/5 72/137/57
f 82/166/59 81/165/5 83/164/57
f 70/135/9 72/137/57 81/165/5
f 80/155/51 58/138/49 74/140/51
