# Blender v2.79 (sub 0) OBJ File: ''
# www.blender.org
o group_0_4634441.005
v 8.953258 -1.515118 11.964258
v 8.953258 -14.947817 11.964258
v 8.953256 -3.947817 -12.035742
v 8.953256 -24.947817 -12.035742
v -16.046747 -24.947817 -12.035741
v -16.046747 -3.947817 -12.035741
v 8.953256 -24.947817 -11.785742
v 8.953256 -14.947817 -11.785742
v 5.849256 -3.115816 11.964258
v 0.659258 -3.947817 11.964258
v -16.046747 -14.947817 11.964259
v -16.046747 15.052183 11.964259
v -16.046747 15.052183 -12.035741
v -16.046747 13.633684 -11.785741
v -16.046747 13.633684 11.964259
v -15.824746 15.052183 11.964259
v -15.824748 15.052183 -11.785741
v -16.046747 12.470682 11.964259
v -16.046747 12.470682 -11.785741
v -4.531744 -3.115816 11.964258
v -9.213746 -0.700817 11.964258
v 8.953256 15.052183 -11.785742
v 8.953256 15.052183 -12.035742
v -12.929742 3.060183 11.964259
v -15.315743 7.799185 11.964259
v -15.319039 7.820185 11.964259
v -16.046747 -24.947817 11.964259
v 8.953258 -24.947817 11.964258
v -16.046747 -24.947817 -11.785741
v -16.046747 -14.947817 -11.785741
v 8.953256 -1.515118 -11.785742
v 14.248260 3.060180 11.964255
v 10.532260 -0.700819 11.964256
v 10.532258 -0.700819 -11.785744
v 14.248258 3.060182 -11.785745
v 8.953261 -1.515120 11.964256
v 8.953259 -1.515120 -11.785744
v -4.531740 29.220179 11.964256
v 0.659261 30.052179 11.964256
v 0.659260 30.052183 -11.785744
v -4.531741 29.220182 -11.785744
v 5.849260 29.220179 11.964256
v 5.849259 29.220182 -11.785744
v 10.532260 26.805178 11.964256
v 10.532258 26.805182 -11.785744
v 14.248260 23.044180 11.964255
v 14.248258 23.044184 -11.785745
v 16.634260 18.305180 11.964255
v 16.634260 18.305180 -11.785745
v 17.456259 13.052179 11.964255
v 17.456259 13.052181 -11.785745
v 16.634260 7.799181 11.964255
v 16.634260 7.799185 -11.785745
v -16.137737 13.052181 11.964257
v -16.137737 13.052183 -11.785743
v -16.046741 12.470682 -11.785743
v -16.046741 12.470680 11.964257
v -16.046741 13.633682 11.964257
v -16.046741 13.633684 -11.785743
v -15.315738 18.305180 11.964257
v -15.315740 18.305182 -11.785743
v -15.824742 15.052183 -11.785743
v -15.824740 15.052181 11.964257
v -12.929736 23.044180 11.964257
v -12.929738 23.044184 -11.785743
v -9.213742 26.805182 11.964256
v -9.213744 26.805182 -11.785744
v 8.953259 15.052181 -11.785744
v 0.659261 -3.947819 11.964256
v 5.849260 -3.115818 11.964256
v -4.531740 -3.115818 11.964256
v -9.213742 -0.700819 11.964256
v -12.929736 3.060181 11.964257
v -15.315738 7.799183 11.964257
v -15.319034 7.820183 11.964257
v 17.453260 -14.947819 -11.785745
v 17.453260 -24.947819 -11.785745
v 8.953259 -24.947819 -11.785744
v 8.953259 -14.947819 -11.785744
v 8.953261 -14.947821 11.964256
v 17.453260 -14.947821 11.964255
v 17.453260 -24.947821 11.964255
v 8.953261 -24.947821 11.964256
v -16.546741 -24.947819 -11.785743
v -16.546741 -14.947819 -11.785743
v -16.046741 -14.947819 -11.785743
v -16.046741 -24.947819 -11.785743
v -16.546741 -14.947821 11.964257
v -16.046741 -14.947821 11.964257
v -16.046741 -24.947821 11.964257
v -16.546741 -24.947821 11.964257
vt 0.233942 0.483843
vt 0.233942 0.613419
vt 0.000000 0.507310
vt 0.567213 0.385851
vt 0.323523 0.385851
vt 0.323523 0.183279
vt 0.567213 0.183279
vt 0.002437 0.709882
vt 0.000000 0.709882
vt 0.002437 0.613419
vt 0.587722 0.536203
vt 0.638312 0.544229
vt 0.557465 0.650338
vt 0.801155 0.650338
vt 0.323523 0.385852
vt 0.557465 0.385851
vt 0.555028 0.399506
vt 0.323523 0.399506
vt 0.233942 0.709882
vt 0.233942 0.712023
vt 0.002437 0.712023
vt 0.000000 0.709882
vt 0.323523 0.674638
vt 0.323523 0.410702
vt 0.557465 0.568750
vt 0.555028 0.410702
vt 0.688911 0.536203
vt 0.734550 0.512908
vt 0.002437 0.951039
vt 0.000000 0.951039
vt 0.770772 0.476628
vt 0.794029 0.430914
vt 0.794061 0.430711
vt 0.801155 0.746801
vt 0.557465 0.746801
vt 0.557465 0.520763
vt 0.801155 0.385851
vt 0.569377 0.338769
vt 0.567213 0.338769
vt 0.567213 0.325086
vt 0.557465 0.770901
vt 0.555028 0.770901
vt 0.555028 0.674638
vt 0.557465 0.986905
vt 0.557465 0.746801
vt 0.559902 0.746801
vt 0.791407 0.746801
vt 0.791407 0.986905
vt 0.559902 0.986905
vt 0.323523 0.000000
vt 0.567213 0.000000
vt 0.000000 0.324030
vt 0.002437 0.483843
vt 0.002437 0.324030
vt 0.975184 0.614951
vt 0.935698 0.614951
vt 0.935698 0.385851
vt 0.975184 0.385851
vt 0.919633 0.614951
vt 0.919633 0.385851
vt 0.938245 0.975900
vt 0.887645 0.975900
vt 0.887645 0.746801
vt 0.938245 0.746801
vt 0.837055 0.975900
vt 0.837055 0.746801
vt 0.791407 0.975900
vt 0.791407 0.746801
vt 0.554980 1.000000
vt 0.518319 1.000000
vt 0.518319 0.770901
vt 0.554980 0.770901
vt 0.472125 1.000000
vt 0.472125 0.770901
vt 0.420921 1.000000
vt 0.420921 0.770901
vt 0.369717 1.000000
vt 0.323523 1.000000
vt 0.323523 0.770901
vt 0.369717 0.770901
vt 0.980898 0.614951
vt 0.980898 0.385851
vt 0.986497 0.385851
vt 0.986497 0.614951
vt 0.975184 0.614951
vt 0.975184 0.385851
vt 0.833118 0.385851
vt 0.833118 0.614951
vt 0.801155 0.614951
vt 0.801155 0.385851
vt 0.880714 0.385851
vt 0.880714 0.614951
vt 0.919633 0.385851
vt 0.919633 0.614951
vt 0.983883 0.975900
vt 0.983883 0.746801
vt 0.603029 0.062606
vt 0.671004 0.106758
vt 0.577555 0.107148
vt 0.641141 0.027849
vt 0.688160 0.006276
vt 0.567213 0.157112
vt 0.321670 0.329640
vt 0.322557 0.324030
vt 0.322557 0.335249
vt 0.187380 0.000000
vt 0.236108 0.015669
vt 0.136135 0.000188
vt 0.087406 0.016221
vt 0.263589 0.035553
vt 0.045952 0.046523
vt 0.015832 0.088129
vt 0.015769 0.088324
vt 0.277568 0.045669
vt 0.307687 0.087054
vt 0.323523 0.135776
vt 0.594394 0.253692
vt 0.629260 0.290857
vt 0.674197 0.315453
vt 0.724806 0.325086
vt 0.776134 0.318810
vt 0.573016 0.207613
vt 0.805251 0.305450
vt 0.739488 0.000000
vt 0.790097 0.009633
vt 0.805251 0.017929
vt 0.136143 0.324030
vt 0.087405 0.308360
vt 0.187378 0.323841
vt 0.045955 0.278362
vt 0.236117 0.307809
vt 0.015837 0.236977
vt 0.277571 0.277508
vt 0.307691 0.235902
vt 0.000000 0.188254
vt 0.000000 0.156493
vt 0.323523 0.187065
vt 0.000000 0.142643
vt 0.000000 0.136966
vt 0.001753 0.131559
vt 0.884009 0.614951
vt 0.884009 0.711414
vt 0.801155 0.711414
vt 0.801155 0.614951
vt 0.316796 0.324030
vt 0.316796 0.553130
vt 0.233942 0.553130
vt 0.233942 0.324030
vt 0.316435 0.553130
vt 0.316435 0.782229
vt 0.233942 0.782229
vt 0.233942 0.553130
vt 0.902727 0.229099
vt 0.805251 0.229099
vt 0.805251 0.000000
vt 0.902727 0.000000
vt 0.810125 0.229099
vt 0.810125 0.325562
vt 0.805251 0.325562
vt 0.805251 0.229099
vt 0.321670 0.324030
vt 0.321670 0.553130
vt 0.316797 0.553130
vt 0.316796 0.324030
vt 0.316796 0.878692
vt 0.233942 0.878692
vt 0.233942 0.782229
vt 0.316796 0.782229
vt 0.316435 0.782229
vt 0.316435 0.553130
vt 0.321287 0.553130
vt 0.321287 0.782229
vt 1.000000 0.229099
vt 0.902727 0.229099
vt 0.902727 0.000000
vt 1.000000 0.000000
vt 0.814999 0.229099
vt 0.814999 0.325562
vt 0.810125 0.325562
vt 0.810125 0.229099
vn 0.8204 0.0000 0.5717
vn 0.4472 0.0000 0.8944
vn 0.7071 0.0000 -0.7071
vn 0.5773 -0.5773 -0.5773
vn -0.5773 -0.5773 -0.5773
vn -0.7071 0.0000 -0.7071
vn 0.4472 -0.8944 0.0000
vn 1.0000 0.0000 0.0000
vn 0.0000 0.0000 1.0000
vn -0.4472 0.0000 0.8944
vn -0.5773 0.5773 0.5773
vn -0.5773 0.5773 -0.5773
vn -1.0000 0.0000 0.0000
vn -0.9951 0.0000 0.0983
vn 0.0000 0.7429 0.6694
vn 0.0000 1.0000 0.0000
vn 0.7071 0.7071 0.0000
vn 0.5773 0.5773 -0.5773
vn 0.0000 -0.7071 0.7071
vn -0.4472 -0.8944 0.0000
vn 0.6002 -0.4311 0.6736
vn 0.4378 -0.5957 0.6734
vn 0.4378 -0.5957 -0.6734
vn 0.6002 -0.4311 -0.6736
vn 0.2050 -0.3974 0.8944
vn 0.3760 -0.7291 -0.5717
vn -0.2309 0.7024 0.6732
vn 0.0000 0.7395 0.6731
vn 0.0000 0.7395 -0.6731
vn -0.2309 0.7024 -0.6732
vn 0.2309 0.7024 0.6732
vn 0.2309 0.7024 -0.6732
vn 0.4378 0.5957 0.6734
vn 0.4378 0.5957 -0.6734
vn 0.6002 0.4311 0.6736
vn 0.6002 0.4311 -0.6736
vn 0.7035 0.2260 0.6738
vn 0.7035 0.2260 -0.6738
vn 0.7388 0.0000 0.6739
vn 0.7388 0.0000 -0.6739
vn 0.7035 -0.2260 0.6738
vn 0.7035 -0.2260 -0.6738
vn -0.7388 0.0000 0.6739
vn -0.7388 0.0000 -0.6739
vn -0.9832 -0.1538 -0.0983
vn -0.4418 -0.0691 0.8944
vn -0.4418 0.0691 0.8944
vn -0.9832 0.1538 -0.0983
vn -0.7035 0.2260 0.6738
vn -0.7035 0.2260 -0.6738
vn -0.7339 0.1148 -0.6694
vn -0.6002 0.4311 0.6736
vn -0.6002 0.4311 -0.6736
vn -0.4378 0.5957 0.6734
vn -0.4378 0.5957 -0.6734
vn 0.0000 0.0000 -1.0000
vn 0.0000 -0.7071 -0.7071
vn 0.0000 0.7071 -0.7071
vn 0.0000 0.7071 0.7071
vn 0.5773 0.5773 0.5773
vn 0.5773 -0.5773 0.5773
vn -0.5773 -0.5773 0.5773
s 1
f 1/1/1 2/2/2 3/3/3
f 4/4/4 5/5/5 6/6/6
f 4/4/4 6/6/6 3/7/3
f 7/8/7 4/9/4 8/10/8
f 3/3/3 8/10/8 4/9/4
f 8/10/8 3/3/3 2/2/2
f 9/11/9 10/12/9 2/13/2
f 10/12/9 11/14/10 2/13/2
f 12/15/11 13/16/12 14/17/13
f 12/15/11 14/17/13 15/18/14
f 12/19/11 16/20/15 17/21/16
f 12/19/11 17/21/16 13/22/12
f 11/23/10 18/24/14 6/25/6
f 14/17/13 13/16/12 19/26/13
f 6/25/6 19/26/13 13/16/12
f 20/27/9 21/28/9 11/14/10
f 22/29/17 23/30/18 17/21/16
f 13/22/12 17/21/16 23/30/18
f 21/28/9 24/31/9 11/14/10
f 24/31/9 25/32/9 11/14/10
f 11/14/10 25/32/9 26/33/9
f 19/26/13 6/25/6 18/24/14
f 27/34/19 28/35/19 2/13/2
f 1/36/1 9/11/9 2/13/2
f 10/12/9 20/27/9 11/14/10
f 27/34/19 2/13/2 11/14/10
f 26/33/9 18/37/14 11/14/10
f 16/38/15 12/39/11 15/40/14
f 5/41/5 29/42/20 30/43/13
f 30/43/13 11/23/10 6/25/6
f 5/41/5 30/43/13 6/25/6
f 5/44/5 4/45/4 7/46/7
f 28/47/19 27/48/19 7/46/7
f 27/48/19 29/49/20 7/46/7
f 5/44/5 7/46/7 29/49/20
f 13/50/12 23/51/18 3/7/3
f 13/50/12 3/7/3 6/6/6
f 3/3/3 23/52/18 31/53/8
f 1/1/1 3/3/3 31/53/8
f 22/54/17 31/53/8 23/52/18
f 32/55/21 33/56/22 34/57/23
f 32/55/21 34/57/23 35/58/24
f 33/56/22 36/59/25 37/60/26
f 33/56/22 37/60/26 34/57/23
f 38/61/27 39/62/28 40/63/29
f 38/61/27 40/63/29 41/64/30
f 39/62/28 42/65/31 43/66/32
f 39/62/28 43/66/32 40/63/29
f 42/65/31 44/67/33 45/68/34
f 42/65/31 45/68/34 43/66/32
f 44/69/33 46/70/35 47/71/36
f 44/69/33 47/71/36 45/72/34
f 46/70/35 48/73/37 49/74/38
f 46/70/35 49/74/38 47/71/36
f 48/73/37 50/75/39 51/76/40
f 48/73/37 51/76/40 49/74/38
f 52/77/41 32/78/21 35/79/24
f 52/77/41 35/79/24 53/80/42
f 54/81/43 55/82/44 56/83/45
f 54/81/43 56/83/45 57/84/46
f 58/85/47 59/86/48 55/82/44
f 58/85/47 55/82/44 54/81/43
f 60/87/49 61/88/50 62/89/51
f 60/87/49 62/89/51 63/90/47
f 64/91/52 65/92/53 61/88/50
f 64/91/52 61/88/50 60/87/49
f 66/93/54 67/94/55 65/92/53
f 66/93/54 65/92/53 64/91/52
f 66/95/54 38/61/27 41/64/30
f 66/95/54 41/64/30 67/96/55
f 49/97/38 68/98/56 47/99/36
f 51/100/40 68/98/56 49/97/38
f 53/101/42 68/98/56 51/100/40
f 45/102/34 47/99/36 68/98/56
f 55/103/44 59/104/48 56/105/45
f 69/106/9 70/107/9 71/108/9
f 72/109/9 71/108/9 70/107/9
f 70/107/9 36/110/25 72/109/9
f 73/111/9 72/109/9 36/110/25
f 74/112/9 73/111/9 36/110/25
f 75/113/9 74/112/9 36/110/25
f 75/113/9 36/110/25 33/114/22
f 75/113/9 33/114/22 32/115/21
f 75/113/9 32/115/21 52/116/41
f 40/117/29 68/98/56 41/118/30
f 67/119/55 41/118/30 68/98/56
f 65/120/53 67/119/55 68/98/56
f 61/121/50 65/120/53 68/98/56
f 43/122/32 68/98/56 40/117/29
f 45/102/34 68/98/56 43/122/32
f 62/123/51 61/121/50 68/98/56
f 68/98/56 53/101/42 35/124/24
f 68/98/56 35/124/24 34/125/23
f 68/98/56 34/125/23 37/126/26
f 52/77/41 53/80/42 50/75/39
f 51/76/40 50/75/39 53/80/42
f 39/127/28 38/128/27 42/129/31
f 38/128/27 66/130/54 42/129/31
f 44/131/33 42/129/31 66/130/54
f 66/130/54 64/132/52 44/131/33
f 46/133/35 44/131/33 64/132/52
f 48/134/37 46/133/35 64/132/52
f 64/132/52 60/135/49 48/134/37
f 60/135/49 63/136/47 48/134/37
f 50/137/39 48/134/37 63/136/47
f 50/137/39 63/136/47 58/138/47
f 50/137/39 58/138/47 54/139/43
f 50/137/39 54/139/43 57/140/46
f 50/137/39 57/140/46 75/113/9
f 50/137/39 75/113/9 52/116/41
f 76/141/18 77/142/4 78/143/57
f 76/141/18 78/143/57 79/144/58
f 79/145/58 80/146/59 81/147/60
f 79/145/58 81/147/60 76/148/18
f 77/149/4 82/150/61 83/151/19
f 77/149/4 83/151/19 78/152/57
f 81/153/60 82/154/61 77/155/4
f 81/153/60 77/155/4 76/156/18
f 84/157/5 85/158/12 86/159/58
f 84/157/5 86/159/58 87/160/57
f 85/161/12 88/162/11 89/163/59
f 85/161/12 89/163/59 86/164/58
f 83/165/19 82/166/61 81/167/60
f 83/165/19 81/167/60 80/168/59
f 87/169/57 90/170/19 91/171/62
f 87/169/57 91/171/62 84/172/5
f 85/173/12 84/174/5 91/175/62
f 85/173/12 91/175/62 88/176/11
f 88/177/11 91/178/62 90/179/19
f 88/177/11 90/179/19 89/180/59
