# Blender v2.79 (sub 0) OBJ File: ''
# www.blender.org
o group_0_undefined.006
v 14.999559 72.000175 -29.999496
v 14.999559 67.001183 -29.999496
v 14.998559 67.001183 -29.999496
v 7.498559 67.001183 -29.999496
v 14.998559 59.501175 -29.999496
v 9.999559 60.001175 -29.999496
v 14.631559 61.819176 -29.999496
v 14.631559 57.183174 -29.999496
v 13.566560 55.093174 -29.999496
v 11.907559 53.433174 -29.999496
v 9.999559 52.461376 -29.999496
v 13.566560 63.909176 -29.999496
v 3.454560 82.001183 -17.938499
v 4.560561 72.001183 -19.044495
v 3.454560 72.001183 -17.938499
v 7.498560 67.001183 -15.502495
v -0.000440 67.001183 -15.502495
v -0.000440 67.001183 -15.749496
v 7.498560 67.001183 -15.749496
v -0.000441 72.000175 -29.999496
v 2.744561 72.001183 -16.544495
v -0.000441 67.001183 -29.999496
v 7.498560 67.001183 -15.999496
v 9.816560 66.634178 -29.999496
v 5.181560 66.634178 -29.999496
v 3.090559 65.569176 -29.999496
v 11.907559 65.569176 -29.999496
v 9.816560 66.634178 -15.502495
v 9.816560 66.634178 -14.002495
v 11.907559 65.569176 -14.002496
v 11.907559 65.569176 -15.502496
v 1.431559 55.093174 -15.502495
v 3.090559 65.569176 -15.502495
v 5.181561 66.634178 -15.502495
v 7.498560 67.001183 -14.002495
v 1.431558 63.909176 -29.999496
v 0.366560 61.819176 -29.999496
v 0.078760 60.001175 -29.999496
v 1.431559 63.909176 -15.502495
v 1.431559 63.909176 -14.002495
v -0.000441 10.001176 -29.999496
v 9.999559 10.001176 -29.999496
v -0.000441 60.001175 -29.999496
v 0.366560 61.819176 -15.502495
v 0.366561 61.819176 -14.002495
v 13.566560 55.093174 -15.749497
v 14.631559 61.819176 -15.749497
v 14.998559 59.501175 -15.749497
v -0.000441 0.001176 -29.999496
v 14.999559 0.001176 -29.999496
v 14.999559 10.001176 -29.999496
v -0.000439 72.000175 0.000504
v -0.000439 67.001183 0.000504
v 14.999560 67.001183 0.000503
v 14.999560 72.000175 0.000503
v -0.000440 10.001176 -15.999496
v 9.999559 10.001176 -15.999496
v 7.498560 52.001175 -15.999496
v -0.000440 59.501175 -15.502495
v -0.000440 59.501175 -14.002495
v 4.560561 72.001183 -10.954498
v 3.454560 72.001183 -12.060493
v 2.744561 72.001183 -13.454498
v 5.954560 72.001183 -10.244499
v 11.907559 53.433174 -15.749497
v 5.954560 72.001183 -19.754494
v 5.954560 82.001183 -19.754494
v 7.499560 72.001183 -19.999496
v 9.999559 52.461376 -15.999496
v 9.816560 52.368176 -15.999496
v 14.631559 61.819176 -15.502496
v 14.998559 59.501175 -15.502496
v 13.566560 63.909176 -15.502496
v 14.631559 57.183174 -15.502496
v 13.566560 55.093174 -15.502496
v 11.907559 53.433174 -15.502496
v 9.816560 52.368176 -15.502495
v 7.498560 52.001175 -15.502495
v 5.181561 52.368176 -15.502495
v 3.090559 53.433174 -15.502495
v 0.366560 57.183174 -15.502495
v 0.366561 57.183174 -14.002495
v -0.000440 67.001183 -14.002495
v 1.431559 55.093174 -14.002495
v 5.181561 52.368176 -15.999496
v 3.090559 53.433174 -15.999496
v 10.438560 72.001183 -10.954498
v 11.544559 72.001183 -12.060494
v 9.044560 72.001183 -10.244499
v 12.254560 72.001183 -13.454499
v 7.499560 72.001183 -9.999496
v 3.090559 53.433174 -14.002495
v 1.431559 55.093174 -15.999496
v 4.560561 82.001183 -10.954498
v 12.254560 82.001183 -13.454499
v 3.454560 82.001183 -12.060493
v 5.954560 82.001183 -10.244499
v 13.566560 63.909176 -15.749497
v 5.181561 52.368176 -14.002495
v 12.499559 72.001183 -14.999497
v -0.000440 59.501175 -15.999496
v 0.366560 57.183174 -15.999496
v 7.498560 52.001175 -14.002495
v 9.816560 52.368176 -14.002495
v 1.431559 63.909176 -15.749496
v 3.090559 65.569176 -15.749496
v 5.181561 66.634178 -15.749496
v 2.744561 82.001183 -13.454498
v 5.181561 66.634178 -14.002495
v 14.998559 59.501175 -14.002496
v 3.090559 65.569176 -14.002495
v 7.499560 82.001183 -9.999496
v 9.044560 82.001183 -10.244499
v 10.438560 82.001183 -10.954498
v 11.544559 82.001183 -12.060494
v 0.078761 60.001175 -15.999496
v -0.000440 60.001175 -15.999496
v 9.816560 66.634178 -15.749496
v 11.907559 53.433174 -14.002496
v 12.499559 82.001183 -14.999497
v 12.254560 82.001183 -16.544495
v 11.544559 82.001183 -17.938499
v 2.744561 82.001183 -16.544495
v 13.566560 55.093174 -14.002496
v 14.631559 57.183174 -14.002496
v 14.999559 0.001176 -15.999497
v -0.000440 0.001176 -15.999496
v 14.999559 10.001176 -15.999497
v 11.907559 65.569176 -15.749497
v 0.366560 61.819176 -15.749496
v 2.499560 72.001183 -14.999496
v 14.631559 61.819176 -14.002496
v 13.566560 63.909176 -14.002496
v 14.631559 57.183174 -15.749497
v 10.438560 72.001183 -19.044495
v 9.044559 72.001183 -19.754494
v 11.544559 72.001183 -17.938499
v 12.254560 72.001183 -16.544495
v 2.499560 82.001183 -14.999496
v 4.560561 82.001183 -19.044495
v 9.044559 82.001183 -19.754494
v 10.438560 82.001183 -19.044495
v 7.499560 82.001183 -19.999496
v 9.816560 52.368176 -15.749496
v 7.498560 52.001175 -15.749496
v 5.181561 52.368176 -15.749496
v 3.090559 53.433174 -15.749496
v 1.431559 55.093174 -15.749496
v -0.000440 59.501175 -15.749496
v 0.366560 57.183174 -15.749496
vt 0.907844 0.489679
vt 0.965427 0.489679
vt 0.965427 0.489691
vt 0.965427 0.576186
vt 0.172772 0.086495
vt 0.115189 0.080729
vt 0.168545 0.059762
vt 0.168545 0.113228
vt 0.156277 0.137331
vt 0.137167 0.156475
vt 0.115189 0.167683
vt 0.156277 0.035659
vt 0.265972 0.972382
vt 0.253232 0.857056
vt 0.265972 0.857056
vt 0.754465 0.167189
vt 0.668097 0.167189
vt 0.668097 0.164341
vt 0.754465 0.164341
vt 0.850263 0.489679
vt 0.907844 0.654020
vt 0.907844 0.656869
vt 0.895616 0.346080
vt 0.911673 0.346006
vt 0.895616 0.461402
vt 0.965427 0.662669
vt 0.907844 0.662669
vt 0.754465 0.000000
vt 0.840843 0.000000
vt 0.754465 0.161457
vt 0.113081 0.004233
vt 0.086380 0.000000
vt 0.059691 0.004233
vt 0.035605 0.016515
vt 0.137167 0.016515
vt 0.627505 0.913228
vt 0.644783 0.913228
vt 0.644783 0.937343
vt 0.627505 0.937343
vt 0.725714 0.823043
vt 0.826031 0.684820
vt 0.751422 0.831403
vt 0.826026 0.807142
vt 0.804155 0.823044
vt 0.778455 0.831403
vt 0.644783 0.886496
vt 0.627505 0.886496
vt 0.016495 0.035659
vt 0.004227 0.059762
vt 0.000912 0.080729
vt 0.157066 0.772689
vt 0.157066 0.792006
vt 0.139788 0.792006
vt 0.000000 0.657362
vt 0.115189 0.657362
vt 0.000000 0.080729
vt 0.157066 0.816219
vt 0.139788 0.816219
vt 0.530907 0.835659
vt 0.506833 1.000000
vt 0.506833 0.835659
vt 0.557608 0.835659
vt 0.584309 1.000000
vt 0.557608 1.000000
vt 0.000000 0.772689
vt 0.172784 0.772689
vt 0.172784 0.657362
vt 0.898438 0.164341
vt 0.956021 0.164341
vt 0.956021 0.337331
vt 0.898438 0.337331
vt 0.345568 0.570867
vt 0.230378 0.570867
vt 0.259187 0.086495
vt 0.157066 0.842989
vt 0.139788 0.842989
vt 0.864873 0.351549
vt 0.879449 0.362149
vt 0.890041 0.376745
vt 0.847735 0.345980
vt 0.781163 0.831403
vt 0.800605 0.831403
vt 0.781163 0.995744
vt 0.800605 0.995744
vt 0.237175 0.857056
vt 0.237175 0.972382
vt 0.219378 0.857056
vt 0.230378 0.081188
vt 0.232486 0.082263
vt 0.687967 0.785240
vt 0.679616 0.759498
vt 0.703849 0.807126
vt 0.679616 0.732432
vt 0.687968 0.706705
vt 0.703853 0.684804
vt 0.725724 0.668902
vt 0.751436 0.660541
vt 0.778458 0.660543
vt 0.804166 0.668903
vt 0.841912 0.706706
vt 0.850263 0.732448
vt 0.850263 0.759514
vt 0.841911 0.785241
vt 0.157066 0.869682
vt 0.139788 0.869682
vt 0.758992 0.831403
vt 0.758992 0.992860
vt 0.907844 0.674168
vt 0.850263 0.835659
vt 0.157066 0.893673
vt 0.139788 0.893673
vt 0.285877 0.082263
vt 0.309963 0.069980
vt 0.798011 0.362166
vt 0.787426 0.376762
vt 0.812586 0.351561
vt 0.781865 0.393922
vt 0.829719 0.345980
vt 0.157066 0.912644
vt 0.139788 0.912644
vt 0.329072 0.050836
vt 0.776294 0.429117
vt 0.684251 0.443697
vt 0.781865 0.411962
vt 0.765698 0.443710
vt 0.668097 0.000000
vt 0.584309 0.835659
vt 0.608383 0.835659
vt 0.608383 1.000000
vt 0.800605 0.928640
vt 0.817883 0.928640
vt 0.817883 0.952536
vt 0.800605 0.952536
vt 0.781865 0.411963
vt 0.668097 0.345980
vt 0.754465 0.184488
vt 0.840855 0.345980
vt 0.668097 0.184488
vt 0.345568 0.000000
vt 0.341340 0.026733
vt 0.800605 0.901997
vt 0.817883 0.901997
vt 0.907844 0.835659
vt 0.506833 0.000000
vt 0.668097 0.489679
vt 0.506833 0.489679
vt 0.800605 0.875194
vt 0.817883 0.875194
vt 0.120494 0.772689
vt 0.139788 0.772689
vt 0.139788 0.937029
vt 0.975914 0.164340
vt 0.949224 0.164340
vt 0.949224 0.161457
vt 0.781865 0.393921
vt 0.668097 0.000000
vt 0.751422 0.660539
vt 0.850263 0.561584
vt 0.778444 0.660541
vt 0.804155 0.652180
vt 0.725714 0.652179
vt 0.703849 0.636262
vt 0.751120 0.454314
vt 0.733981 0.459883
vt 0.715961 0.459883
vt 0.698827 0.454306
vt 0.668998 0.465721
vt 0.668097 0.465578
vt 0.668999 0.459883
vt 0.975914 0.000000
vt 1.000000 0.000000
vt 1.000000 0.164340
vt 0.922524 0.164340
vt 0.800605 0.850868
vt 0.817883 0.850868
vt 0.949224 0.000000
vt 0.673660 0.429102
vt 0.668097 0.411942
vt 0.668097 0.393901
vt 0.765711 0.362166
vt 0.800605 0.831403
vt 0.817883 0.831403
vt 0.922524 0.000000
vt 0.506833 0.000000
vt 0.506833 0.576610
vt 0.345568 0.005766
vt 0.345568 0.000000
vt 0.345568 0.576610
vt 0.817883 0.928116
vt 0.835162 0.928116
vt 0.835162 0.952219
vt 0.817883 0.952219
vt 0.947267 0.461328
vt 0.963324 0.346080
vt 0.963324 0.461402
vt 0.172784 0.686194
vt 0.345568 0.686194
vt 0.172784 0.570867
vt 0.898438 0.000000
vt 0.345568 0.864895
vt 0.358308 0.864895
vt 0.358308 0.980222
vt 0.345568 0.980222
vt 0.898438 0.164341
vt 0.817883 0.901383
vt 0.835162 0.901383
vt 0.075339 0.937029
vt 0.075339 0.775572
vt 0.096310 0.937029
vt 0.096309 0.772689
vt 0.879470 0.443697
vt 0.864894 0.454302
vt 0.895616 0.411941
vt 0.895615 0.393900
vt 0.890055 0.429101
vt 0.374365 0.864895
vt 0.840855 0.000000
vt 0.627505 0.835659
vt 0.627505 1.000000
vt 0.850263 0.588650
vt 0.841911 0.614378
vt 0.826026 0.636278
vt 0.687967 0.614376
vt 0.679616 0.588634
vt 0.679616 0.561569
vt 0.687968 0.535841
vt 0.703853 0.513941
vt 0.725724 0.498039
vt 0.751424 0.489679
vt 0.778458 0.489680
vt 0.804166 0.498040
vt 0.826031 0.513956
vt 0.841912 0.535842
vt 0.120494 0.937029
vt 0.817883 0.874651
vt 0.835162 0.874651
vt 0.317623 0.972382
vt 0.299826 0.972382
vt 0.317623 0.857056
vt 0.374365 0.980222
vt 0.506833 0.489679
vt 0.679616 0.489679
vt 0.506833 0.835659
vt 0.679616 0.835659
vt 0.530907 1.000000
vt 0.812608 0.454314
vt 0.829746 0.459883
vt 0.798032 0.443714
vt 0.847762 0.459883
vt 0.817883 0.850547
vt 0.835162 0.850547
vt 0.787440 0.429118
vt 0.344343 0.847651
vt 0.343431 0.847651
vt 0.343431 0.686194
vt 0.344343 0.686194
vt 0.392162 0.980222
vt 0.392162 0.864895
vt 0.929470 0.345980
vt 0.947267 0.346006
vt 0.929470 0.461302
vt 0.817883 0.831403
vt 0.835162 0.831403
vt 0.907844 0.824127
vt 0.965438 0.662669
vt 0.965438 0.824127
vt 0.409958 0.864895
vt 0.409958 0.980222
vt 0.734001 0.345980
vt 0.751135 0.351557
vt 0.684264 0.362153
vt 0.907844 0.662669
vt 0.673668 0.376746
vt 0.345568 0.691932
vt 0.506833 0.691932
vt 0.345568 0.864895
vt 0.506833 0.864895
vt 0.426016 0.980222
vt 0.426016 0.864895
vt 0.965452 0.997117
vt 0.850263 0.997117
vt 0.850263 0.835660
vt 0.965452 0.835660
vt 0.218892 0.694555
vt 0.172784 0.785151
vt 0.197020 0.710457
vt 0.244603 0.686194
vt 0.271625 0.686196
vt 0.297333 0.694556
vt 0.299826 0.857056
vt 0.282029 0.972382
vt 0.282029 0.857056
vt 0.438756 0.864895
vt 0.438756 0.980222
vt 0.715981 0.345980
vt 0.698842 0.351549
vt 0.756866 0.992860
vt 0.756866 0.995744
vt 0.265972 0.857056
vt 0.253232 0.972382
vt 0.333680 0.857056
vt 0.333680 0.972382
vt 0.730095 0.995744
vt 0.730095 0.992860
vt 0.911674 0.461328
vt 0.776302 0.376761
vt 0.201581 0.857056
vt 0.201581 0.972382
vt 0.185524 0.972382
vt 0.185524 0.857056
vt 0.703484 0.995744
vt 0.703484 0.992860
vt 0.219378 0.972382
vt 0.679616 0.995744
vt 0.679616 0.992860
vt 0.265972 0.972382
vt 0.627505 0.859774
vt 0.644783 0.859774
vt 0.172784 0.857056
vt 0.172784 0.972382
vt 0.018947 0.772689
vt 0.018947 0.775572
vt 0.000000 0.775572
vt 0.000000 0.772689
vt 0.627505 0.835659
vt 0.644783 0.835659
vt 0.172784 0.758085
vt 0.181136 0.732357
vt 0.319198 0.710472
vt 0.335080 0.732359
vt 0.343431 0.758100
vt 0.343431 0.785166
vt 0.335079 0.810894
vt 0.319194 0.832794
vt 0.297323 0.848696
vt 0.271623 0.857055
vt 0.244589 0.857055
vt 0.218881 0.848695
vt 0.197016 0.832779
vt 0.181135 0.810893
vt 0.139788 0.772689
vt 0.042910 0.772689
vt 0.042910 0.775572
vt 0.898438 0.000000
vt 0.898438 0.345980
vt 0.907844 0.489679
vt 0.069571 0.772689
vt 0.069571 0.775572
vn 0.5773 0.5773 -0.5774
vn 0.5773 -0.5773 -0.5773
vn 0.0000 -0.7071 -0.7071
vn 0.0000 -0.0065 -1.0000
vn 0.7391 0.0000 -0.6735
vn 0.0000 0.0000 -1.0000
vn 0.7030 0.2284 -0.6735
vn 0.7030 -0.2284 -0.6735
vn 0.5980 -0.4343 -0.6735
vn 0.4345 -0.5980 -0.6735
vn 0.4552 -0.2790 -0.8455
vn 0.5980 0.4343 -0.6735
vn -0.5980 0.6735 -0.4344
vn -0.4344 -0.6735 -0.5980
vn -0.5980 -0.6735 -0.4344
vn 0.0000 -0.7473 -0.6644
vn -0.7071 -0.7071 0.0000
vn 0.0000 -0.7473 0.6644
vn -0.5773 0.5773 -0.5773
vn -0.7029 -0.6735 -0.2284
vn -0.5773 -0.5773 -0.5773
vn -0.0027 -1.0000 0.0000
vn 0.2283 0.7030 -0.6735
vn -0.2283 0.7030 -0.6735
vn -0.4345 0.5980 -0.6735
vn 0.4345 0.5980 -0.6735
vn 0.2283 0.7030 0.6735
vn 0.4345 0.5980 0.6735
vn -0.5980 -0.4343 -0.6735
vn -0.5980 0.4343 -0.6735
vn -0.7030 0.2284 -0.6735
vn -0.3016 0.3531 -0.8856
vn -0.5980 0.4343 0.6735
vn -0.7071 0.0000 -0.7071
vn 0.3015 0.3015 -0.9045
vn -0.7030 0.2284 0.6735
vn 0.5980 -0.4343 0.6735
vn 0.7030 0.2284 0.6735
vn 0.7391 0.0000 0.6735
vn 0.5773 0.5773 -0.5773
vn -0.5773 0.5773 0.5773
vn -0.5773 -0.5773 0.5773
vn 0.5773 -0.5773 0.5773
vn 0.5773 0.5773 0.5773
vn -0.7071 0.0000 0.7071
vn 0.3015 0.3015 0.9045
vn 0.0000 -0.6681 0.7440
vn -0.7391 0.0000 -0.6735
vn -0.7391 0.0000 0.6735
vn -0.4344 -0.6735 0.5980
vn -0.5980 -0.6735 0.4344
vn -0.7029 -0.6735 0.2284
vn -0.2284 -0.6735 0.7029
vn 0.4345 -0.5980 0.6735
vn -0.2284 -0.6735 -0.7029
vn -0.2284 0.6735 -0.7029
vn 0.0000 -0.6735 -0.7392
vn 0.6496 -0.7354 0.1926
vn 0.2064 -0.6354 0.7440
vn 0.2283 -0.7030 -0.6735
vn 0.0000 -0.7391 -0.6735
vn -0.2283 -0.7030 -0.6735
vn -0.4345 -0.5980 -0.6735
vn -0.7030 -0.2284 -0.6735
vn -0.7030 -0.2284 0.6735
vn -0.5980 -0.4343 0.6735
vn -0.2064 -0.6354 0.7440
vn -0.3927 -0.5404 0.7441
vn 0.4344 -0.6735 0.5980
vn 0.5980 -0.6735 0.4344
vn 0.2284 -0.6735 0.7029
vn 0.7029 -0.6735 0.2284
vn 0.0000 -0.6735 0.7392
vn -0.4345 -0.5980 0.6735
vn -0.5406 -0.3927 0.7440
vn -0.4344 0.6735 0.5980
vn 0.7029 0.6735 0.2284
vn -0.5980 0.6735 0.4344
vn -0.2284 0.6735 0.7029
vn 0.5980 0.4343 0.6735
vn -0.2283 -0.7030 0.6735
vn 0.7392 -0.6735 0.0000
vn -0.9987 0.0000 0.0502
vn -0.6354 -0.2064 0.7441
vn 0.0000 -0.7391 0.6735
vn 0.2283 -0.7030 0.6735
vn -0.4345 0.5980 0.6735
vn -0.2283 0.7030 0.6735
vn -0.7029 0.6735 0.2284
vn 0.0000 0.6735 0.7392
vn 0.2284 0.6735 0.7029
vn 0.4344 0.6735 0.5980
vn 0.5980 0.6735 0.4344
vn -0.8645 0.4286 0.2625
vn 0.7392 0.6735 0.0000
vn 0.7029 0.6735 -0.2284
vn 0.5980 0.6735 -0.4344
vn -0.7029 0.6735 -0.2284
vn 0.7030 -0.2284 0.6735
vn -0.7392 -0.6735 0.0000
vn 0.4344 -0.6735 -0.5980
vn 0.2284 -0.6735 -0.7029
vn 0.5980 -0.6735 -0.4344
vn 0.7029 -0.6735 -0.2284
vn -0.7392 0.6735 0.0000
vn -0.4344 0.6735 -0.5980
vn 0.2284 0.6735 -0.7029
vn 0.4344 0.6735 -0.5980
vn 0.0000 0.6735 -0.7392
s 1
f 1/1/1 2/2/2 3/3/3
f 4/4/4 1/1/1 3/3/3
f 5/5/5 6/6/6 7/7/7
f 8/8/8 6/6/6 5/5/5
f 9/9/9 6/6/6 8/8/8
f 10/10/10 6/6/6 9/9/9
f 11/11/11 6/6/6 10/10/10
f 12/12/12 7/7/7 6/6/6
f 13/13/13 14/14/14 15/15/15
f 16/16/16 17/17/17 18/18/17
f 18/18/17 19/19/18 16/16/16
f 20/20/19 18/21/17 17/22/17
f 15/23/15 21/24/20 13/25/13
f 22/26/21 20/27/19 4/4/4
f 1/1/1 4/4/4 20/27/19
f 4/28/4 3/29/3 23/30/22
f 24/31/23 6/6/6 4/32/4
f 25/33/24 4/32/4 6/6/6
f 26/34/25 25/33/24 6/6/6
f 27/35/26 6/6/6 24/31/23
f 28/36/23 29/37/27 30/38/28
f 28/36/23 30/38/28 31/39/26
f 31/40/26 32/41/29 28/42/23
f 33/43/25 34/44/24 28/42/23
f 16/45/16 28/42/23 34/44/24
f 35/46/18 29/37/27 28/36/23
f 35/46/18 28/36/23 16/47/16
f 36/48/30 26/34/25 6/6/6
f 12/12/12 6/6/6 27/35/26
f 37/49/31 36/48/30 6/6/6
f 38/50/32 37/49/31 6/6/6
f 33/51/25 39/52/30 40/53/33
f 6/6/6 11/11/11 38/50/32
f 11/11/11 41/54/34 38/50/32
f 42/55/35 41/54/34 11/11/11
f 43/56/19 38/50/32 41/54/34
f 39/52/30 44/57/31 45/58/36
f 39/52/30 45/58/36 40/53/33
f 8/59/8 46/60/37 9/61/9
f 5/62/5 47/63/38 48/64/39
f 49/65/21 42/55/35 50/66/2
f 41/54/34 42/55/35 49/65/21
f 51/67/40 50/66/2 42/55/35
f 52/68/41 53/69/42 54/70/43
f 52/68/41 54/70/43 55/71/44
f 56/72/45 57/73/46 58/74/47
f 44/57/31 59/75/48 60/76/49
f 44/57/31 60/76/49 45/58/36
f 61/77/50 62/78/51 63/79/52
f 64/80/53 61/77/50 63/79/52
f 10/81/10 9/82/9 65/83/54
f 46/84/37 65/83/54 9/82/9
f 66/85/55 67/86/56 68/87/57
f 57/73/46 69/88/58 70/89/59
f 71/90/7 72/91/5 73/92/12
f 72/91/5 74/93/8 73/92/12
f 74/93/8 75/94/9 73/92/12
f 31/40/26 73/92/12 75/94/9
f 31/40/26 75/94/9 76/95/10
f 31/40/26 76/95/10 77/96/60
f 31/40/26 77/96/60 78/97/61
f 31/40/26 78/97/61 79/98/62
f 31/40/26 79/98/62 80/99/63
f 31/40/26 80/99/63 32/41/29
f 81/100/64 28/42/23 32/41/29
f 59/101/48 28/42/23 81/100/64
f 44/102/31 28/42/23 59/101/48
f 39/103/30 28/42/23 44/102/31
f 33/43/25 28/42/23 39/103/30
f 81/104/64 82/105/65 60/76/49
f 81/104/64 60/76/49 59/75/48
f 18/18/17 23/30/22 19/19/18
f 70/89/59 58/74/47 57/73/46
f 11/106/11 10/81/10 69/107/58
f 65/83/54 69/107/58 10/81/10
f 83/108/17 52/109/41 17/22/17
f 67/86/56 66/85/55 14/14/14
f 32/110/29 84/111/66 82/105/65
f 32/110/29 82/105/65 81/104/64
f 85/112/67 86/113/68 56/72/45
f 58/74/47 85/112/67 56/72/45
f 87/114/69 63/79/52 88/115/70
f 89/116/71 63/79/52 87/114/69
f 90/117/72 88/115/70 63/79/52
f 91/118/73 63/79/52 89/116/71
f 64/80/53 63/79/52 91/118/73
f 16/16/16 19/19/18 3/29/3
f 23/30/22 3/29/3 19/19/18
f 32/110/29 80/119/63 92/120/74
f 32/110/29 92/120/74 84/111/66
f 86/113/68 93/121/75 56/72/45
f 94/122/76 95/123/77 96/124/78
f 97/125/79 95/123/77 94/122/76
f 4/28/4 23/30/22 22/126/21
f 7/127/7 12/128/12 47/63/38
f 98/129/80 47/63/38 12/128/12
f 79/130/62 99/131/81 92/132/74
f 79/130/62 92/132/74 80/133/63
f 63/79/52 100/134/82 90/117/72
f 18/18/17 22/126/21 23/30/22
f 53/135/42 35/136/18 54/137/43
f 83/138/17 35/136/18 53/135/42
f 16/16/16 54/137/43 35/136/18
f 47/63/38 5/62/5 7/127/7
f 101/139/83 56/72/45 102/140/84
f 93/121/75 102/140/84 56/72/45
f 78/141/61 103/142/85 99/131/81
f 78/141/61 99/131/81 79/130/62
f 53/143/42 52/109/41 83/108/17
f 20/20/19 17/22/17 52/109/41
f 11/144/11 57/145/46 42/146/35
f 77/147/60 104/148/86 103/142/85
f 77/147/60 103/142/85 78/141/61
f 105/149/33 106/150/87 26/151/25
f 107/152/88 19/153/18 23/154/22
f 108/155/89 96/124/78 95/123/77
f 11/144/11 69/156/58 57/145/46
f 109/157/88 110/158/39 35/159/18
f 29/160/27 35/159/18 110/158/39
f 111/161/87 110/158/39 109/157/88
f 40/162/33 110/158/39 111/161/87
f 97/125/79 112/163/90 113/164/91
f 97/125/79 113/164/91 114/165/92
f 97/125/79 114/165/92 115/166/93
f 97/125/79 115/166/93 95/123/77
f 116/167/94 117/168/41 101/169/83
f 25/170/24 26/171/25 107/152/88
f 106/172/87 107/152/88 26/171/25
f 19/153/18 118/173/27 23/154/22
f 77/147/60 76/174/10 119/175/54
f 77/147/60 119/175/54 104/148/86
f 4/176/4 25/170/24 23/154/22
f 107/152/88 23/154/22 25/170/24
f 95/123/77 120/177/95 108/155/89
f 121/178/96 122/179/97 123/180/98
f 75/181/9 124/182/37 119/175/54
f 75/181/9 119/175/54 76/174/10
f 23/154/22 118/173/27 24/183/23
f 23/154/22 24/183/23 4/176/4
f 43/184/19 41/185/34 101/186/83
f 117/187/41 43/184/19 101/186/83
f 56/188/45 101/186/83 41/185/34
f 74/189/8 125/190/99 124/191/37
f 74/189/8 124/191/37 75/192/9
f 108/193/89 62/194/51 96/195/78
f 126/196/43 57/73/46 127/197/42
f 128/198/44 57/73/46 126/196/43
f 56/72/45 127/197/42 57/73/46
f 118/173/27 27/199/26 24/183/23
f 62/200/51 61/201/50 94/202/76
f 62/200/51 94/202/76 96/203/78
f 129/204/28 27/199/26 118/173/27
f 72/205/5 110/206/39 125/190/99
f 72/205/5 125/190/99 74/189/8
f 38/207/32 116/208/94 37/209/31
f 130/210/36 37/209/31 116/208/94
f 14/211/14 66/212/55 21/213/20
f 131/214/100 21/213/20 66/212/55
f 15/215/15 14/211/14 21/213/20
f 64/216/53 94/202/76 61/201/50
f 54/137/43 16/16/16 2/217/2
f 98/129/80 12/128/12 27/218/26
f 129/219/28 98/129/80 27/218/26
f 110/158/39 132/220/38 133/221/80
f 110/158/39 133/221/80 30/222/28
f 30/222/28 29/160/27 110/158/39
f 110/158/39 40/162/33 45/223/36
f 110/158/39 45/223/36 60/224/49
f 110/158/39 60/224/49 82/225/65
f 110/158/39 82/225/65 84/226/66
f 110/158/39 84/226/66 92/227/74
f 110/158/39 92/227/74 99/228/81
f 110/158/39 99/228/81 103/229/85
f 110/158/39 103/229/85 104/230/86
f 110/158/39 104/230/86 119/231/54
f 110/158/39 119/231/54 124/232/37
f 110/158/39 124/232/37 125/233/99
f 37/209/31 130/210/36 36/234/30
f 105/149/33 36/234/30 130/210/36
f 71/235/7 132/236/38 110/206/39
f 71/235/7 110/206/39 72/205/5
f 90/237/72 100/238/82 95/239/77
f 64/216/53 97/240/79 94/202/76
f 1/241/1 20/242/19 55/243/44
f 20/242/19 52/244/41 55/243/44
f 26/151/25 36/234/30 105/149/33
f 134/245/99 8/59/8 48/64/39
f 5/62/5 48/64/39 8/59/8
f 135/246/101 63/79/52 136/247/102
f 137/248/103 63/79/52 135/246/101
f 68/249/57 136/247/102 131/214/100
f 73/250/12 133/251/80 132/236/38
f 73/250/12 132/236/38 71/235/7
f 138/252/104 63/79/52 137/248/103
f 134/245/99 46/60/37 8/59/8
f 117/253/41 116/254/94 38/255/32
f 117/253/41 38/255/32 43/256/19
f 112/257/90 97/240/79 91/258/73
f 64/216/53 91/258/73 97/240/79
f 131/259/100 63/260/52 139/261/105
f 73/250/12 31/262/26 133/251/80
f 30/263/28 133/251/80 31/262/26
f 42/264/35 128/265/44 51/266/40
f 89/267/71 113/268/91 91/258/73
f 112/257/90 91/258/73 113/268/91
f 140/269/106 13/270/13 141/271/107
f 13/270/13 123/180/98 141/271/107
f 120/177/95 121/178/96 123/180/98
f 42/264/35 57/272/46 128/265/44
f 142/273/108 141/271/107 123/180/98
f 127/274/42 49/275/21 126/276/43
f 50/277/2 126/276/43 49/275/21
f 114/278/92 113/268/91 87/279/69
f 89/267/71 87/279/69 113/268/91
f 128/280/44 126/281/43 50/282/2
f 128/280/44 50/282/2 51/283/40
f 118/284/27 48/285/39 129/286/28
f 19/287/18 48/285/39 118/284/27
f 107/288/88 48/285/39 19/287/18
f 106/289/87 48/285/39 107/288/88
f 120/290/95 138/291/104 121/292/96
f 120/290/95 95/239/77 100/238/82
f 100/134/82 63/79/52 138/252/104
f 41/185/34 49/275/21 127/274/42
f 41/185/34 127/274/42 56/188/45
f 87/279/69 88/293/70 115/294/93
f 87/279/69 115/294/93 114/278/92
f 67/295/56 140/269/106 141/271/107
f 143/296/109 67/295/56 141/271/107
f 70/297/59 69/107/58 144/298/86
f 65/83/54 144/298/86 69/107/58
f 122/299/97 121/292/96 138/291/104
f 14/14/14 140/300/106 67/86/56
f 90/237/72 95/239/77 115/301/93
f 90/237/72 115/301/93 88/302/70
f 13/13/13 140/300/106 14/14/14
f 144/298/86 145/303/85 58/304/47
f 144/298/86 58/304/47 70/297/59
f 13/25/13 21/24/20 123/305/98
f 122/179/97 142/273/108 123/180/98
f 139/306/105 108/155/89 120/177/95
f 83/138/17 17/17/17 16/16/16
f 83/138/17 16/16/16 35/136/18
f 136/307/102 141/308/107 142/309/108
f 136/307/102 142/309/108 135/310/101
f 146/311/81 85/312/67 58/304/47
f 146/311/81 58/304/47 145/303/85
f 123/305/98 21/24/20 139/261/105
f 21/24/20 131/259/100 139/261/105
f 108/193/89 139/261/105 63/260/52
f 141/308/107 136/307/102 143/313/109
f 68/87/57 143/313/109 136/307/102
f 67/86/56 143/313/109 68/87/57
f 63/260/52 62/194/51 108/193/89
f 147/314/74 86/315/68 85/312/67
f 147/314/74 85/312/67 146/311/81
f 122/299/97 138/291/104 137/316/103
f 34/317/24 109/318/88 35/46/18
f 34/317/24 35/46/18 16/47/16
f 137/319/103 135/310/101 142/309/108
f 137/319/103 142/309/108 122/320/97
f 148/321/66 93/322/75 86/323/68
f 148/321/66 86/323/68 147/324/74
f 33/325/25 111/326/87 109/318/88
f 33/325/25 109/318/88 34/317/24
f 138/291/104 120/290/95 100/238/82
f 48/285/39 47/327/38 98/328/80
f 98/328/80 129/286/28 48/285/39
f 48/285/39 106/289/87 105/329/33
f 48/285/39 105/329/33 130/330/36
f 48/285/39 130/330/36 149/331/49
f 48/285/39 149/331/49 150/332/65
f 48/285/39 150/332/65 148/333/66
f 48/285/39 148/333/66 147/334/74
f 48/285/39 147/334/74 146/335/81
f 48/285/39 146/335/81 145/336/85
f 48/285/39 145/336/85 144/337/86
f 48/285/39 144/337/86 65/338/54
f 48/285/39 65/338/54 46/339/37
f 48/285/39 46/339/37 134/340/99
f 33/51/25 40/53/33 111/341/87
f 150/342/65 102/343/84 93/322/75
f 150/342/65 93/322/75 148/321/66
f 3/29/3 2/217/2 16/16/16
f 1/344/1 55/345/44 2/217/2
f 54/137/43 2/217/2 55/345/44
f 22/346/21 18/21/17 20/20/19
f 149/347/49 101/348/83 102/343/84
f 149/347/49 102/343/84 150/342/65
f 101/348/83 149/347/49 116/208/94
f 130/210/36 116/208/94 149/347/49
f 66/212/55 68/249/57 131/214/100
f 131/214/100 136/247/102 63/79/52
f 139/306/105 120/177/95 123/180/98
