# Blender v2.79 (sub 0) OBJ File: ''
# www.blender.org
o group_0_undefined.009
v 15.000258 47.000355 -30.000099
v 0.000258 47.000355 -30.000099
v 15.000258 51.999355 -30.000099
v 0.000258 51.999355 -30.000099
v 9.817260 32.363354 -30.000099
v 9.817260 32.363354 -29.750099
v 9.464255 32.308056 -29.750099
v 5.182257 32.363354 -30.000099
v 3.091261 33.418354 -30.000099
v 5.182257 46.482353 -30.000099
v 7.499259 32.000355 -30.000099
v 7.499259 46.846355 -30.000099
v 9.817260 46.482353 -30.000099
v 3.091261 45.428356 -30.000099
v 1.432257 43.786354 -30.000099
v 1.432257 35.060356 -30.000099
v 0.367255 41.717354 -30.000099
v 0.367255 37.129356 -30.000099
v 0.000258 39.423355 -30.000099
v 14.632258 41.717354 -30.000099
v 14.999259 39.423355 -15.750101
v 14.999259 39.423355 -30.000099
v 9.045258 62.000355 -10.245103
v 10.439261 52.000355 -10.955102
v 10.439261 62.000355 -10.955102
v 0.000258 10.000356 -29.750099
v 7.499259 32.000355 -29.750099
v 10.000258 10.000356 -29.750099
v 11.908259 33.418354 -30.000099
v 11.908259 45.428356 -30.000099
v 13.567260 43.786354 -30.000099
v 13.567260 35.060356 -30.000099
v 14.632258 37.129356 -30.000099
v 11.545257 52.000355 -12.061098
v 11.545257 62.000355 -12.061098
v 14.632258 41.870354 -15.503099
v 14.632258 41.870354 -14.003099
v 14.999259 39.576355 -14.003099
v 14.999259 39.576355 -15.503099
v 5.182257 32.363354 -29.750099
v 12.255260 62.000355 -13.455103
v 13.567260 43.940353 -15.503099
v 13.567260 43.940353 -14.003099
v 11.908259 45.582355 -15.503099
v 11.908259 45.582355 -14.003099
v 14.632258 37.129356 -15.750101
v 13.567260 35.060356 -15.750101
v 3.091261 33.418354 -29.750099
v 5.955260 52.000355 -19.755096
v 4.561255 52.000355 -19.045097
v 4.561255 62.000355 -19.045097
v 1.432257 35.060356 -29.750099
v 11.908259 33.418354 -15.750101
v 3.455260 52.000355 -17.939102
v 0.367255 37.129356 -29.750099
v 10.000258 32.455654 -15.750100
v 10.000258 32.455654 -29.750099
v 0.000258 47.000355 -14.003098
v 0.000258 47.000355 -15.503098
v 7.499259 47.000355 -15.503098
v 7.499259 47.000355 -14.003098
v 0.000258 39.423355 -29.750099
v 2.745261 52.000355 -13.455102
v 3.455260 52.000355 -12.061097
v 2.745261 62.000355 -13.455102
v 0.000258 40.000355 -29.750099
v 0.092558 40.000355 -29.750099
v 11.908259 45.428356 -15.750101
v 13.567260 43.786354 -15.750101
v 5.955261 62.000355 -10.245103
v 4.561256 52.000355 -10.955102
v 5.955261 52.000355 -10.245103
v 14.632258 41.717354 -15.750101
v 7.500259 62.000355 -10.000100
v 7.500259 52.000355 -10.000100
v 0.000258 0.000355 -29.750099
v 15.000258 10.000356 -29.750099
v 15.000258 0.000355 -29.750099
v 9.045258 52.000355 -10.245103
v 0.000259 51.999355 -0.000100
v 0.000259 47.000355 -0.000100
v 15.000259 47.000355 -0.000100
v 15.000259 51.999355 -0.000100
v 0.367255 41.717354 -15.750100
v 0.092559 40.000355 -15.750100
v 1.432258 43.786354 -15.750100
v 5.182258 46.637356 -15.503098
v 5.182258 46.637356 -14.003098
v 10.000258 10.000356 -15.750100
v 3.091262 45.582355 -15.503098
v 3.091262 45.582355 -14.003098
v 3.091262 45.428356 -15.750100
v 5.182258 46.482353 -15.750100
v 1.432258 43.940353 -15.503098
v 1.432258 43.940353 -14.003098
v 12.255260 52.000355 -13.455103
v 12.500258 52.000355 -15.000101
v 7.499259 46.846355 -15.750100
v 0.000258 10.000356 -15.750100
v 0.000258 40.000355 -15.750100
v 0.367255 41.870354 -15.503098
v 0.367255 41.870354 -14.003098
v 9.817260 46.482353 -15.750100
v 0.000258 39.576355 -15.503098
v 0.000258 39.576355 -14.003098
v 0.367255 37.282356 -15.503098
v 0.367255 37.282356 -14.003098
v 2.745261 52.000355 -16.545097
v 7.500258 52.000355 -20.000099
v 9.045257 52.000355 -19.755096
v 1.432258 35.212357 -15.503098
v 3.091262 33.569355 -15.503098
v 5.182258 32.515354 -15.503098
v 7.499259 32.152355 -15.503098
v 9.817260 46.637356 -15.503098
v 3.455260 62.000355 -12.061097
v 4.561256 62.000355 -10.955102
v 11.545257 52.000355 -17.939102
v 10.439261 52.000355 -19.045097
v 1.432258 35.212357 -14.003098
v 3.091262 33.569355 -14.003098
v 5.182258 32.515354 -14.003098
v 14.632258 37.282356 -15.503099
v 13.567260 35.212357 -15.503099
v 11.908259 33.569355 -15.503099
v 9.817260 32.515354 -15.503098
v 7.499259 32.152355 -14.003098
v 15.000258 10.000356 -15.750101
v 9.045257 62.000355 -19.755096
v 7.500258 62.000355 -20.000099
v 12.500258 62.000355 -15.000101
v 5.955260 62.000355 -19.755096
v 3.455260 62.000355 -17.939102
v 2.745261 62.000355 -16.545097
v 15.000258 0.000355 -15.750101
v 0.000258 0.000355 -15.750100
v 9.817260 46.637356 -14.003098
v 12.255260 62.000355 -16.545097
v 9.817260 32.515354 -14.003098
v 2.500258 52.000355 -15.000100
v 11.908259 33.569355 -14.003099
v 13.567260 35.212357 -14.003099
v 14.632258 37.282356 -14.003099
v 12.255260 52.000355 -16.545097
v 2.500258 62.000355 -15.000100
v 10.000258 40.000355 -15.750100
v 10.439261 62.000355 -19.045097
v 11.545257 62.000355 -17.939102
vt 0.971585 0.171697
vt 0.971585 0.355635
vt 0.909094 0.171697
vt 0.909094 0.355635
vt 0.785115 0.901362
vt 0.785115 0.898296
vt 0.789543 0.898296
vt 0.366634 0.748483
vt 0.375608 0.721145
vt 0.540995 0.721617
vt 0.366644 0.777242
vt 0.549984 0.748993
vt 0.549984 0.777766
vt 0.523924 0.698292
vt 0.500429 0.681319
vt 0.392668 0.697923
vt 0.472813 0.672355
vt 0.416154 0.681085
vt 0.443772 0.672274
vt 0.883229 0.171697
vt 0.854553 0.346461
vt 0.854553 0.171697
vt 0.069879 1.000000
vt 0.087306 0.877359
vt 0.087306 1.000000
vt 0.375000 0.122641
vt 0.281268 0.392451
vt 0.250008 0.122641
vt 0.375623 0.804631
vt 0.392706 0.827954
vt 0.541023 0.805102
vt 0.523962 0.828323
vt 0.500477 0.845161
vt 0.416201 0.844927
vt 0.472859 0.853972
vt 0.443818 0.853891
vt 0.256708 0.396225
vt 0.467765 0.976613
vt 0.453940 0.976613
vt 0.453940 0.853972
vt 0.467765 0.853972
vt 0.716920 0.761232
vt 0.735672 0.761232
vt 0.735672 0.789366
vt 0.716920 0.789366
vt 0.310229 0.396903
vt 0.436513 0.853972
vt 0.716920 0.735845
vt 0.735672 0.735845
vt 0.887621 0.746944
vt 0.868869 0.746944
vt 0.868869 0.726599
vt 0.887621 0.726599
vt 0.800012 0.171697
vt 0.825876 0.346461
vt 0.800012 0.346461
vt 0.336365 0.409841
vt 0.968389 0.367923
vt 0.985955 0.367923
vt 0.985955 0.490564
vt 0.357101 0.429979
vt 0.737473 0.726599
vt 0.758679 0.726599
vt 0.737473 0.901362
vt 1.000000 0.367923
vt 0.370413 0.455353
vt 0.782802 0.726599
vt 0.782801 0.898296
vt 0.814189 0.898296
vt 0.814189 0.901362
vt 0.550011 0.564111
vt 0.550011 0.545715
vt 0.643730 0.545715
vt 0.643730 0.564111
vt 0.375000 0.483487
vt 0.523819 0.854001
vt 0.541245 0.854083
vt 0.523819 0.976636
vt 0.843041 0.898296
vt 0.843041 0.901362
vt 0.364831 0.483487
vt 0.364831 0.490564
vt 0.363677 0.490564
vt 0.842293 0.726599
vt 0.868432 0.551835
vt 0.868432 0.726599
vt 0.868869 0.898296
vt 0.868869 0.901362
vt 0.889170 0.551835
vt 0.889170 0.726599
vt 0.252295 0.396903
vt 0.250008 0.398035
vt 0.570341 0.907543
vt 0.570341 0.910609
vt 0.550011 0.910609
vt 0.550011 0.907543
vt 0.031252 1.000000
vt 0.013826 0.877359
vt 0.031252 0.877359
vt 0.909094 0.171697
vt 0.883230 0.346461
vt 0.909094 0.346461
vt 0.596078 0.907543
vt 0.596078 0.910609
vt 0.050566 1.000000
vt 0.050566 0.877359
vt 0.375000 0.000000
vt 0.187512 0.122641
vt 0.187512 0.000000
vt 0.737473 0.367923
vt 0.550011 0.367923
vt 0.069879 0.877359
vt 0.624711 0.907543
vt 0.624711 0.910609
vt 0.123465 0.756232
vt 0.185956 0.756232
vt 0.185956 0.940194
vt 0.123465 0.940194
vt 0.653429 0.735845
vt 0.653429 0.910609
vt 0.631934 0.907543
vt 0.631934 0.735845
vt 0.679418 0.735845
vt 0.887621 0.829433
vt 0.868869 0.829433
vt 0.868869 0.801017
vt 0.887621 0.801017
vt 0.187512 0.758881
vt 0.187512 0.483487
vt 0.362523 0.758881
vt 0.362523 0.483487
vt 0.679418 0.910609
vt 0.887621 0.855077
vt 0.868869 0.855077
vt 0.800012 0.000000
vt 0.800012 0.177792
vt 0.737523 0.000000
vt 0.737473 0.735845
vt 0.239438 0.758881
vt 0.258988 0.758881
vt 0.220847 0.764816
vt 0.277584 0.764804
vt 0.293402 0.776076
vt 0.304895 0.791597
vt 0.758212 0.551835
vt 0.784352 0.551835
vt 0.784352 0.726599
vt 0.887621 0.875423
vt 0.868869 0.875423
vt 0.737473 0.551835
vt 0.758212 0.726599
vt 0.737473 0.726599
vt 0.436513 0.976613
vt 0.737523 0.367923
vt 0.417200 0.976613
vt 0.813316 0.551835
vt 0.550011 0.367906
vt 0.375000 0.367906
vt 0.550011 0.007076
vt 0.550011 0.000000
vt 0.375000 0.000000
vt 0.205031 0.776094
vt 0.193546 0.791615
vt 0.187512 0.809864
vt 0.716920 0.735845
vt 0.716920 0.761354
vt 0.698169 0.761354
vt 0.698169 0.735845
vt 0.813316 0.726599
vt 0.842293 0.551835
vt 0.716920 0.789529
vt 0.698169 0.789529
vt 0.716920 0.817619
vt 0.698169 0.817619
vt 0.293428 0.862795
vt 0.304913 0.847274
vt 0.277612 0.874072
vt 0.310947 0.829025
vt 0.259021 0.880008
vt 0.239471 0.880008
vt 0.106199 0.756232
vt 0.077158 0.756141
vt 0.133820 0.747431
vt 0.157324 0.730599
vt 0.049532 0.747169
vt 0.026043 0.730188
vt 0.174405 0.707381
vt 0.183376 0.680049
vt 0.008968 0.706859
vt 0.183376 0.651290
vt 0.000002 0.679478
vt 0.000000 0.650707
vt 0.123465 0.826399
vt 0.117420 0.844642
vt 0.123465 0.807213
vt 0.105920 0.860160
vt 0.090100 0.871437
vt 0.071500 0.877359
vt 0.051943 0.877359
vt 0.825876 0.171697
vt 0.205057 0.862813
vt 0.220874 0.874085
vt 0.550011 0.735845
vt 0.716920 0.842882
vt 0.698169 0.842882
vt 0.033349 0.871428
vt 0.017531 0.860146
vt 0.889170 0.551835
vt 0.951662 0.919758
vt 0.889171 0.919758
vt 0.716920 0.862839
vt 0.698169 0.862839
vt 0.800012 0.196189
vt 0.800012 0.367923
vt 0.363677 0.655185
vt 0.362523 0.655185
vt 0.362523 0.483487
vt 0.363677 0.483487
vt 0.758679 0.901362
vt 0.698169 0.735845
vt 0.698169 0.761185
vt 0.679418 0.761185
vt 0.679418 0.735845
vt 0.077178 0.574524
vt 0.106219 0.574615
vt 0.049556 0.583325
vt 0.026052 0.600157
vt 0.133844 0.583587
vt 0.008983 0.623373
vt 0.157345 0.600566
vt 0.174408 0.623897
vt 0.541245 0.976718
vt 0.698169 0.789491
vt 0.679418 0.789491
vt 0.925020 0.171697
vt 0.925020 0.000000
vt 0.987524 0.171697
vt 0.987524 0.000000
vt 0.013826 1.000000
vt 0.000000 1.000000
vt 0.000000 0.877359
vt 0.017545 0.773431
vt 0.033365 0.762154
vt 0.006036 0.844626
vt 0.051965 0.756232
vt 0.071521 0.756232
vt 0.090116 0.762163
vt 0.105934 0.773445
vt 0.737473 0.367923
vt 0.912484 0.367923
vt 0.912484 0.551835
vt 0.737473 0.551835
vt 0.800012 0.000000
vt 0.925020 0.000000
vt 0.925020 0.171697
vt 0.800012 0.171697
vt 0.887621 0.772588
vt 0.868869 0.772588
vt 0.000000 0.826378
vt 0.366636 0.595507
vt 0.541043 0.539925
vt 0.550011 0.567321
vt 0.550011 0.596084
vt 0.541027 0.623422
vt 0.375602 0.622891
vt 0.523959 0.646640
vt 0.416166 0.663207
vt 0.500454 0.663473
vt 0.472833 0.672274
vt 0.443792 0.672182
vt 0.392665 0.646225
vt 0.550011 0.490542
vt 0.375000 0.490542
vt 0.679418 0.818014
vt 0.698169 0.818014
vt 0.310945 0.809840
vt 0.698169 0.843949
vt 0.679418 0.843949
vt 0.698169 0.864754
vt 0.679418 0.864754
vt 0.949029 0.367923
vt 0.949029 0.490564
vt 0.929766 0.490564
vt 0.929766 0.367923
vt 0.366634 0.566732
vt 0.375605 0.539396
vt 0.523968 0.516592
vt 0.392687 0.516176
vt 0.500479 0.499608
vt 0.472853 0.490634
vt 0.416191 0.499343
vt 0.443812 0.490542
vt 0.716920 0.817500
vt 0.735672 0.817500
vt 0.735672 0.842886
vt 0.716920 0.842886
vt 0.968389 0.490564
vt 0.193563 0.847292
vt 0.187514 0.829048
vt 1.000000 0.490564
vt 0.485192 0.976636
vt 0.467765 0.976718
vt 0.485192 0.854001
vt 0.467765 0.854083
vt 0.117428 0.788965
vt 0.504505 0.853972
vt 0.017914 0.037528
vt 0.062504 0.083960
vt 0.004600 0.062903
vt 0.038652 0.017390
vt 0.000012 0.091036
vt 0.062504 0.176489
vt 0.038652 0.164682
vt 0.017914 0.144545
vt 0.004600 0.119170
vt 0.912484 0.490564
vt 0.064792 0.004464
vt 0.093768 0.000000
vt 0.122733 0.004464
vt 0.148872 0.017390
vt 0.169611 0.037528
vt 0.182924 0.062903
vt 0.186358 0.083960
vt 0.504505 0.976608
vt 0.062504 0.451883
vt 0.187512 0.451883
vt 0.187512 0.083960
vt 0.000000 0.451883
vt 0.000000 0.574524
vt 0.187512 0.574524
vt 0.550011 0.367923
vt 0.550011 0.000000
vt 0.397886 0.976613
vt 0.417200 0.853972
vt 0.951662 0.551835
vt 0.000000 0.807192
vt 0.006045 0.788949
vt 0.397886 0.853972
vt 0.380460 0.853972
vt 0.380460 0.976613
vt 0.366634 0.853972
vt 0.366634 0.976613
vt 0.912484 0.367923
vn 0.5773 -0.5773 -0.5773
vn -0.5773 -0.5773 -0.5773
vn 0.5773 0.5773 -0.5773
vn -0.5773 0.5773 -0.5773
vn 0.2263 -0.7034 -0.6738
vn 0.2047 -0.6363 -0.7438
vn 0.1094 -0.6985 -0.7071
vn -0.2264 -0.7034 -0.6738
vn -0.4317 -0.5999 -0.6736
vn -0.2264 0.7033 -0.6738
vn 0.0000 -0.7388 -0.6739
vn 0.0000 0.7389 -0.6738
vn 0.2263 0.7033 -0.6738
vn -0.4316 0.6000 -0.6736
vn -0.5960 0.4373 -0.6734
vn -0.5960 -0.4373 -0.6734
vn -0.7025 0.2305 -0.6733
vn -0.7025 -0.2305 -0.6733
vn -0.7394 0.0000 -0.6732
vn 0.7025 0.2305 -0.6733
vn 0.7394 0.0000 0.6732
vn 0.7394 0.0000 -0.6732
vn 0.2284 0.6735 0.7029
vn 0.4344 -0.6735 0.5980
vn 0.4344 0.6735 0.5980
vn -0.7071 0.0000 -0.7071
vn 0.0000 -0.6685 -0.7436
vn 0.3015 0.3015 -0.9045
vn 0.4317 -0.5998 -0.6736
vn 0.4316 0.6000 -0.6736
vn 0.5960 0.4373 -0.6734
vn 0.5960 -0.4373 -0.6734
vn 0.7025 -0.2305 -0.6733
vn 0.5980 -0.6735 0.4344
vn 0.5980 0.6735 0.4344
vn 0.7025 0.2304 -0.6733
vn 0.7025 0.2304 0.6733
vn -0.2047 -0.6362 -0.7438
vn 0.7029 0.6735 0.2284
vn 0.5961 0.4372 -0.6734
vn 0.5961 0.4372 0.6734
vn 0.4317 0.5999 -0.6736
vn 0.4317 0.5999 0.6736
vn 0.7025 -0.2305 0.6733
vn 0.5960 -0.4373 0.6734
vn -0.3903 -0.5424 -0.7439
vn -0.2284 -0.6735 -0.7029
vn -0.4344 -0.6735 -0.5980
vn -0.4344 0.6735 -0.5980
vn -0.5386 -0.3951 -0.7442
vn 0.4317 -0.5998 0.6736
vn -0.5980 -0.6735 -0.4344
vn -0.6345 -0.2081 -0.7444
vn 0.4541 -0.2795 0.8460
vn 0.6472 -0.7373 -0.1934
vn -0.7071 -0.7071 0.0000
vn 0.0000 -0.7468 -0.6650
vn 0.0000 -0.7468 0.6650
vn -0.9987 0.0000 -0.0507
vn -0.7029 -0.6735 0.2284
vn -0.5980 -0.6735 0.4344
vn -0.7029 0.6735 0.2284
vn -0.8639 0.4299 -0.2622
vn 0.4316 0.6000 0.6736
vn 0.5960 0.4373 0.6734
vn -0.2284 0.6735 0.7029
vn -0.4344 -0.6735 0.5980
vn -0.2284 -0.6735 0.7029
vn 0.7025 0.2305 0.6733
vn 0.0000 0.6735 0.7392
vn 0.0000 -0.6735 0.7392
vn 0.2284 -0.6735 0.7029
vn -0.5773 0.5773 0.5773
vn -0.5773 -0.5773 0.5773
vn 0.5773 -0.5773 0.5773
vn 0.5773 0.5773 0.5773
vn -0.7025 0.2305 0.6733
vn -0.3016 0.3536 0.8854
vn -0.5960 0.4373 0.6734
vn -0.2264 0.7034 -0.6738
vn -0.2264 0.7034 0.6738
vn 0.3015 0.3015 0.9045
vn -0.4317 0.5999 -0.6736
vn -0.4317 0.5999 0.6736
vn -0.4316 0.6000 0.6736
vn -0.2264 0.7033 0.6738
vn -0.5961 0.4372 -0.6734
vn -0.5961 0.4372 0.6734
vn 0.7029 -0.6735 0.2284
vn 0.7392 -0.6735 0.0000
vn 0.0000 0.7389 0.6738
vn -0.7071 0.0000 0.7071
vn -0.7025 0.2304 -0.6733
vn -0.7025 0.2304 0.6733
vn 0.2263 0.7033 0.6738
vn -0.7394 0.0000 0.6732
vn -0.7025 -0.2304 -0.6733
vn -0.7025 -0.2304 0.6733
vn -0.7029 -0.6735 -0.2284
vn 0.0000 -0.6735 -0.7392
vn 0.2284 -0.6735 -0.7029
vn -0.5961 -0.4371 -0.6734
vn -0.2262 -0.7034 -0.6738
vn 0.0000 -0.7388 -0.6738
vn 0.2263 0.7034 -0.6738
vn -0.5980 0.6735 0.4344
vn -0.4344 0.6735 0.5980
vn 0.5980 -0.6735 -0.4344
vn 0.4344 -0.6735 -0.5980
vn -0.5961 -0.4371 0.6734
vn -0.4317 -0.5999 0.6736
vn -0.2262 -0.7034 0.6738
vn 0.7025 -0.2304 -0.6733
vn 0.5961 -0.4371 -0.6734
vn 0.4317 -0.5999 -0.6736
vn 0.2262 -0.7034 -0.6738
vn 0.0000 -0.7388 0.6738
vn 0.2284 0.6735 -0.7029
vn 0.0000 0.6735 -0.7392
vn 0.7392 0.6735 0.0000
vn -0.2284 0.6735 -0.7029
vn -0.5980 0.6735 -0.4344
vn -0.7029 0.6735 -0.2284
vn 0.2263 0.7034 0.6738
vn 0.7029 0.6735 -0.2284
vn 0.2262 -0.7034 0.6738
vn -0.7392 -0.6735 0.0000
vn 0.4317 -0.5999 0.6736
vn 0.5961 -0.4371 0.6734
vn 0.7025 -0.2304 0.6733
vn 0.7029 -0.6735 -0.2284
vn -0.7392 0.6735 0.0000
vn 0.0000 0.0000 1.0000
vn 0.4344 0.6735 -0.5980
vn 0.5980 0.6735 -0.4344
s 1
f 1/1/1 2/2/2 3/3/3
f 4/4/4 3/3/3 2/2/2
f 5/5/5 6/6/6 7/7/7
f 8/8/8 9/9/9 10/10/10
f 11/11/11 8/8/8 10/10/10
f 10/10/10 12/12/12 11/11/11
f 12/12/12 13/13/13 11/11/11
f 14/14/14 10/10/10 9/9/9
f 15/15/15 14/14/14 9/9/9
f 9/9/9 16/16/16 15/15/15
f 17/17/17 15/15/15 16/16/16
f 16/16/16 18/18/18 17/17/17
f 19/19/19 17/17/17 18/18/18
f 20/20/20 21/21/21 22/22/22
f 23/23/23 24/24/24 25/25/25
f 26/26/26 27/27/27 28/28/28
f 5/29/5 11/11/11 13/13/13
f 29/30/29 5/29/5 13/13/13
f 29/30/29 13/13/13 30/31/30
f 29/30/29 30/31/30 31/32/31
f 20/33/20 32/34/32 31/32/31
f 22/35/22 33/36/33 20/33/20
f 32/34/32 20/33/20 33/36/33
f 29/30/29 31/32/31 32/34/32
f 27/27/27 7/37/7 28/28/28
f 24/38/24 34/39/34 35/40/35
f 24/38/24 35/40/35 25/41/25
f 36/42/36 37/43/37 38/44/21
f 36/42/36 38/44/21 39/45/22
f 27/27/27 26/26/26 40/46/38
f 41/47/39 35/40/35 34/39/34
f 42/48/40 43/49/41 37/43/37
f 42/48/40 37/43/37 36/42/36
f 44/50/42 45/51/43 43/52/41
f 44/50/42 43/52/41 42/53/40
f 32/54/32 46/55/44 47/56/45
f 40/46/38 26/26/26 48/57/46
f 49/58/47 50/59/48 51/60/49
f 48/57/46 26/26/26 52/61/50
f 47/62/45 53/63/51 32/64/32
f 50/59/48 54/65/52 51/60/49
f 26/26/26 55/66/53 52/61/50
f 56/67/54 57/68/55 53/63/51
f 7/7/7 27/69/27 11/70/11
f 7/7/7 11/70/11 5/5/5
f 58/71/56 59/72/56 60/73/57
f 58/71/56 60/73/57 61/74/58
f 26/26/26 62/75/59 55/66/53
f 63/76/60 64/77/61 65/78/62
f 40/79/38 8/80/8 11/70/11
f 40/79/38 11/70/11 27/69/27
f 62/81/59 66/82/4 67/83/63
f 13/84/13 68/85/64 30/86/30
f 48/87/46 9/88/9 8/80/8
f 48/87/46 8/80/8 40/79/38
f 68/85/64 69/89/65 31/90/31
f 68/85/64 31/90/31 30/86/30
f 28/28/28 7/37/7 6/91/6
f 57/92/55 28/28/28 6/91/6
f 52/93/50 16/94/16 9/95/9
f 52/93/50 9/95/9 48/96/46
f 70/97/66 71/98/67 72/99/68
f 20/20/20 31/100/31 73/101/69
f 69/102/65 73/101/69 31/100/31
f 55/103/53 18/104/18 16/94/16
f 55/103/53 16/94/16 52/93/50
f 74/105/70 70/97/66 75/106/71
f 72/99/68 75/106/71 70/97/66
f 73/101/69 21/21/21 20/20/20
f 76/107/2 26/26/26 28/28/28
f 77/108/3 78/109/1 28/28/28
f 76/107/2 28/28/28 78/109/1
f 1/110/1 60/73/57 2/111/2
f 79/112/72 23/23/23 75/106/71
f 74/105/70 75/106/71 23/23/23
f 62/113/59 19/114/19 18/104/18
f 62/113/59 18/104/18 55/103/53
f 80/115/73 81/116/74 82/117/75
f 80/115/73 82/117/75 83/118/76
f 84/119/77 17/120/17 67/121/63
f 84/119/77 67/121/63 85/122/78
f 79/112/72 24/24/24 23/23/23
f 62/113/59 67/121/63 19/114/19
f 17/120/17 19/114/19 67/121/63
f 17/120/17 84/119/77 86/123/79
f 87/124/80 88/125/81 61/126/58
f 87/124/80 61/126/58 60/127/57
f 28/128/28 57/129/55 89/130/82
f 56/131/54 89/130/82 57/129/55
f 86/123/79 15/132/15 17/120/17
f 90/133/83 91/134/84 88/125/81
f 90/133/83 88/125/81 87/124/80
f 2/135/2 59/136/56 4/137/4
f 61/74/58 60/73/57 82/138/75
f 59/72/56 2/111/2 60/73/57
f 75/139/71 72/140/68 79/141/72
f 72/140/68 71/142/67 79/141/72
f 71/142/67 64/143/61 79/141/72
f 64/143/61 63/144/60 79/141/72
f 92/145/85 93/146/86 10/147/10
f 94/148/87 95/149/88 91/134/84
f 94/148/87 91/134/84 90/133/83
f 86/150/79 92/145/85 14/151/14
f 86/150/79 14/151/14 15/152/15
f 96/153/89 41/47/39 34/39/34
f 80/154/73 4/137/4 59/136/56
f 97/155/90 41/47/39 96/153/89
f 92/145/85 10/147/10 14/151/14
f 93/146/86 98/156/91 10/147/10
f 26/157/26 99/158/92 62/159/59
f 66/160/4 62/159/59 100/161/73
f 100/161/73 62/159/59 99/158/92
f 24/162/24 63/144/60 34/163/34
f 96/164/89 34/163/34 63/144/60
f 94/165/87 101/166/93 102/167/94
f 94/165/87 102/167/94 95/168/88
f 10/147/10 98/156/91 12/169/12
f 13/84/13 12/169/12 103/170/95
f 101/166/93 104/171/19 105/172/96
f 101/166/93 105/172/96 102/167/94
f 98/156/91 103/170/95 12/169/12
f 104/171/19 106/173/97 107/174/98
f 104/171/19 107/174/98 105/172/96
f 50/175/48 63/144/60 54/176/52
f 49/177/47 63/144/60 50/175/48
f 108/178/99 54/176/52 63/144/60
f 109/179/100 63/144/60 49/177/47
f 110/180/101 63/144/60 109/179/100
f 104/181/19 101/182/93 106/183/97
f 111/184/102 106/183/97 101/182/93
f 101/182/93 94/185/87 111/184/102
f 94/185/87 90/186/83 111/184/102
f 112/187/9 111/184/102 90/186/83
f 113/188/103 112/187/9 90/186/83
f 90/186/83 87/189/80 113/188/103
f 114/190/104 113/188/103 87/189/80
f 114/190/104 87/189/80 60/191/57
f 114/190/104 60/191/57 115/192/105
f 116/193/106 117/194/107 65/195/62
f 65/195/62 117/194/107 70/196/66
f 65/195/62 70/196/66 74/197/70
f 65/195/62 74/197/70 23/198/23
f 23/198/23 25/199/25 65/195/62
f 22/22/22 21/21/21 46/55/44
f 22/22/22 46/55/44 33/200/33
f 118/201/108 63/144/60 119/202/109
f 81/203/74 61/74/58 82/138/75
f 58/71/56 61/74/58 81/203/74
f 106/173/97 111/204/102 120/205/110
f 106/173/97 120/205/110 107/174/98
f 25/199/25 35/206/35 65/195/62
f 41/207/39 65/195/62 35/206/35
f 103/170/95 68/85/64 13/84/13
f 1/208/1 83/209/76 82/210/75
f 46/55/44 32/54/32 33/200/33
f 111/204/102 112/211/9 121/212/111
f 111/204/102 121/212/111 120/205/110
f 80/154/73 58/213/56 81/214/74
f 100/215/73 85/216/78 67/217/63
f 100/215/73 67/217/63 66/218/4
f 32/64/32 53/63/51 29/219/29
f 112/220/9 113/221/103 122/222/112
f 112/220/9 122/222/112 121/223/111
f 39/224/22 123/225/113 36/226/36
f 42/227/40 36/226/36 123/225/113
f 123/225/113 124/228/114 42/227/40
f 44/229/42 42/227/40 124/228/114
f 124/228/114 125/230/115 44/229/42
f 125/230/115 126/231/116 44/229/42
f 115/192/105 44/229/42 126/231/116
f 115/192/105 126/231/116 114/190/104
f 65/78/62 64/77/61 116/232/106
f 29/219/29 57/68/55 5/5/5
f 53/63/51 57/68/55 29/219/29
f 6/6/6 5/5/5 57/68/55
f 113/221/103 114/233/104 127/234/117
f 113/221/103 127/234/117 122/222/112
f 128/235/76 77/236/3 89/237/82
f 28/238/28 89/237/82 77/236/3
f 117/239/107 116/240/106 71/98/67
f 64/241/61 71/98/67 116/240/106
f 129/242/118 130/243/119 131/244/120
f 130/243/119 132/245/121 131/244/120
f 51/246/49 41/207/39 132/245/121
f 133/247/122 41/207/39 51/246/49
f 134/248/123 41/207/39 133/247/122
f 59/136/56 58/213/56 80/154/73
f 78/249/1 135/250/75 136/251/74
f 78/249/1 136/251/74 76/252/2
f 71/98/67 70/97/66 117/239/107
f 128/253/76 135/254/75 78/255/1
f 128/253/76 78/255/1 77/256/3
f 115/257/105 60/127/57 137/258/124
f 61/126/58 137/258/124 60/127/57
f 131/244/120 138/259/125 129/242/118
f 127/260/117 137/261/124 61/262/58
f 127/260/117 61/262/58 88/263/81
f 91/264/84 122/265/112 88/263/81
f 95/266/88 120/267/110 91/264/84
f 102/268/94 120/267/110 95/266/88
f 105/269/96 107/270/98 102/268/94
f 120/267/110 102/268/94 107/270/98
f 121/271/111 91/264/84 120/267/110
f 122/265/112 91/264/84 121/271/111
f 127/260/117 88/263/81 122/265/112
f 26/157/26 76/272/2 136/273/74
f 26/157/26 136/273/74 99/158/92
f 139/274/126 127/234/117 126/275/116
f 114/233/104 126/275/116 127/234/117
f 108/178/99 63/144/60 140/276/127
f 24/162/24 79/141/72 63/144/60
f 126/275/116 125/277/115 141/278/128
f 126/275/116 141/278/128 139/274/126
f 125/277/115 124/279/114 142/280/129
f 125/277/115 142/280/129 141/278/128
f 109/281/100 130/282/119 129/283/118
f 109/281/100 129/283/118 110/284/101
f 139/285/126 141/286/128 45/287/43
f 45/287/43 137/261/124 139/285/126
f 127/260/117 139/285/126 137/261/124
f 141/286/128 142/288/129 45/287/43
f 43/289/41 45/287/43 142/288/129
f 37/290/37 43/289/41 142/288/129
f 142/288/129 143/291/130 37/290/37
f 38/292/21 37/290/37 143/291/130
f 123/293/113 143/294/130 142/295/129
f 123/293/113 142/295/129 124/296/114
f 130/282/119 109/281/100 132/297/121
f 49/58/47 132/297/121 109/281/100
f 118/201/108 144/298/131 63/144/60
f 97/299/90 96/164/89 63/144/60
f 39/45/22 38/44/21 143/294/130
f 39/45/22 143/294/130 123/293/113
f 51/60/49 132/297/121 49/58/47
f 115/257/105 137/258/124 45/51/43
f 115/257/105 45/51/43 44/50/42
f 54/65/52 133/300/122 51/60/49
f 134/301/123 133/302/122 108/303/99
f 54/304/52 108/303/99 133/302/122
f 134/248/123 145/305/132 41/207/39
f 65/195/62 41/207/39 145/305/132
f 134/301/123 108/303/99 140/306/127
f 69/307/65 146/308/133 73/309/69
f 68/310/64 146/308/133 69/307/65
f 21/311/21 73/309/69 146/308/133
f 56/312/54 53/313/51 146/308/133
f 53/313/51 47/314/45 146/308/133
f 47/314/45 46/315/44 146/308/133
f 21/311/21 146/308/133 46/315/44
f 129/283/118 147/316/134 110/284/101
f 131/244/120 132/245/121 41/207/39
f 146/308/133 103/317/95 98/318/91
f 146/308/133 98/318/91 93/319/86
f 146/308/133 93/319/86 92/320/85
f 146/308/133 92/320/85 86/321/79
f 146/308/133 86/321/79 84/322/77
f 146/308/133 84/322/77 85/323/78
f 134/301/123 140/306/127 145/324/132
f 68/310/64 103/317/95 146/308/133
f 89/325/82 56/312/54 99/326/92
f 85/323/78 99/326/92 56/312/54
f 100/327/73 99/326/92 85/323/78
f 146/308/133 85/323/78 56/312/54
f 63/76/60 65/78/62 140/306/127
f 145/324/132 140/306/127 65/78/62
f 128/328/76 89/325/82 135/329/75
f 136/330/74 135/329/75 89/325/82
f 99/326/92 136/330/74 89/325/82
f 83/331/76 3/332/3 80/154/73
f 144/333/131 131/334/120 97/155/90
f 82/138/75 60/73/57 1/110/1
f 83/209/76 1/208/1 3/335/3
f 41/47/39 97/155/90 131/334/120
f 110/180/101 119/202/109 63/144/60
f 97/299/90 63/144/60 144/298/131
f 138/259/125 148/336/135 129/242/118
f 147/337/134 129/242/118 148/336/135
f 131/334/120 144/333/131 138/338/125
f 138/338/125 144/333/131 148/339/135
f 118/340/108 148/339/135 144/333/131
f 147/341/134 148/339/135 118/340/108
f 118/340/108 119/342/109 147/341/134
f 110/284/101 147/316/134 119/343/109
f 3/332/3 4/137/4 80/154/73
